<?xml version="1.0" standalone="no"?>
<!DOCTYPE svg PUBLIC "-//W3C//DTD SVG 20010904//EN"
 "http://www.w3.org/TR/2001/REC-SVG-20010904/DTD/svg10.dtd">
<svg version="1.0" xmlns="http://www.w3.org/2000/svg"
 width="513.000000pt" height="513.000000pt" viewBox="0 0 513.000000 513.000000"
 preserveAspectRatio="xMidYMid meet">
<metadata>
Created by potrace 1.14, written by Peter Selinger 2001-2017
</metadata>
<g transform="translate(0.000000,513.000000) scale(0.100000,-0.100000)"
fill="#000000" stroke="none">
<path d="M2560 4689 c-216 -17 -433 -103 -825 -328 -157 -90 -226 -127 -430
-229 -269 -134 -298 -152 -387 -242 -105 -107 -169 -220 -202 -361 -24 -102
-16 -282 19 -389 32 -100 71 -181 125 -262 l38 -58 -68 0 c-177 0 -330 -105
-395 -270 -34 -88 -26 -249 17 -330 65 -124 182 -209 318 -231 l68 -12 7 -79
c13 -152 64 -327 145 -493 60 -123 68 -137 151 -251 212 -291 514 -494 875
-589 50 -13 188 -36 439 -73 28 -4 133 -7 235 -6 261 1 425 38 650 145 125 60
179 92 285 175 238 183 434 452 520 712 16 50 19 53 44 47 14 -4 67 -9 118
-11 139 -5 244 37 335 134 84 90 117 182 113 315 -3 75 -8 97 -39 160 -41 85
-111 160 -188 199 -29 15 -58 28 -65 28 -25 0 -20 18 22 79 155 223 212 454
170 691 -44 247 -161 620 -242 770 -178 328 -444 485 -808 475 -66 -2 -151
-11 -189 -19 l-69 -16 -52 51 c-215 207 -446 291 -735 268z"/>
</g>
</svg>
