<?xml version="1.0" standalone="no"?>
<!DOCTYPE svg PUBLIC "-//W3C//DTD SVG 20010904//EN"
 "http://www.w3.org/TR/2001/REC-SVG-20010904/DTD/svg10.dtd">
<svg version="1.0" xmlns="http://www.w3.org/2000/svg"
 width="513.000000pt" height="513.000000pt" viewBox="0 0 513.000000 513.000000"
 preserveAspectRatio="xMidYMid meet">
<metadata>
Created by potrace 1.14, written by Peter Selinger 2001-2017
</metadata>
<g transform="translate(0.000000,513.000000) scale(0.100000,-0.100000)"
fill="#000000" stroke="none">
<path d="M2545 5040 c-274 -25 -498 -114 -980 -389 -126 -73 -358 -196 -514
-274 -157 -77 -312 -161 -345 -186 -125 -92 -217 -206 -286 -355 -133 -287
-94 -618 109 -929 28 -43 51 -79 51 -80 0 -1 -25 0 -56 2 -186 11 -375 -101
-458 -271 -98 -199 -54 -427 110 -577 70 -64 143 -99 247 -119 l84 -16 12
-104 c68 -585 435 -1120 961 -1400 215 -115 382 -165 731 -218 390 -60 650
-57 912 11 440 114 828 389 1076 763 66 99 161 285 196 385 31 88 21 83 154
66 390 -52 680 315 541 683 -45 121 -160 235 -281 279 -32 12 -59 24 -59 26 0
2 17 27 39 56 56 75 125 200 161 289 79 201 93 377 46 603 -61 294 -161 624
-241 792 -149 316 -377 520 -662 592 -186 48 -398 50 -566 5 l-58 -15 -80 75
c-140 132 -311 232 -471 276 -62 17 -249 42 -283 38 -5 0 -46 -4 -90 -8z m545
-1438 c95 -134 294 -323 486 -462 206 -150 415 -321 479 -393 139 -153 249
-365 295 -567 14 -63 43 -100 77 -100 30 0 30 7 -12 -277 -39 -263 -65 -374
-125 -526 -88 -224 -207 -404 -390 -587 -151 -152 -269 -237 -455 -330 -220
-110 -401 -160 -654 -181 -156 -13 -276 -4 -605 47 -289 44 -414 81 -611 179
-193 96 -311 181 -460 330 -136 136 -229 261 -309 416 -143 273 -200 509 -200
819 0 156 5 209 48 500 42 284 51 329 72 357 61 81 284 212 472 277 118 41
219 61 387 76 685 63 1189 222 1385 437 30 34 57 61 60 62 3 0 30 -34 60 -77z
m-2500 -879 c0 -5 -10 -81 -22 -170 -25 -186 -13 -173 -136 -152 -77 14 -112
3 -112 -35 0 -40 23 -52 120 -65 l92 -13 -6 -30 c-3 -16 -11 -92 -17 -169 -14
-159 -7 -151 -114 -124 -112 30 -203 107 -255 217 -98 206 8 454 225 530 51
18 225 26 225 11z m4188 -505 c75 -28 163 -112 204 -196 31 -63 33 -73 33
-177 0 -98 -3 -116 -27 -167 -31 -67 -103 -147 -162 -182 -73 -43 -150 -59
-246 -53 -132 10 -129 8 -115 72 7 30 21 108 31 174 20 137 8 128 129 110 68
-10 78 -10 95 6 48 43 10 78 -100 93 -46 7 -85 14 -87 15 -2 2 4 55 13 118
l15 114 57 52 c62 58 60 57 160 21z"/>
<path d="M1904 2781 c-54 -24 -69 -92 -31 -137 20 -23 31 -26 73 -26 72 2 120
-14 166 -56 47 -42 102 -50 136 -19 67 61 15 150 -125 214 -61 28 -180 41
-219 24z"/>
<path d="M2983 2646 c-122 -39 -174 -114 -123 -179 32 -40 62 -42 136 -6 63
30 69 31 150 25 81 -7 85 -6 109 18 51 51 23 124 -56 146 -47 14 -166 11 -216
-4z"/>
<path d="M1964 2360 c-80 -52 -73 -180 11 -226 49 -26 119 -15 159 25 28 28
31 37 31 92 0 57 -2 62 -37 95 -32 29 -45 34 -85 34 -31 0 -59 -8 -79 -20z"/>
<path d="M2909 2225 c-59 -32 -80 -102 -51 -169 23 -51 62 -76 119 -76 50 0
82 18 110 59 39 58 25 134 -33 180 -32 25 -105 28 -145 6z"/>
<path d="M1859 1847 c-53 -35 -66 -75 -94 -287 -52 -381 -16 -545 160 -724
334 -341 913 -210 1071 242 27 80 78 434 72 508 -5 60 -34 105 -80 127 -36 16
-975 157 -1049 157 -31 0 -57 -7 -80 -23z m586 -157 c226 -33 421 -62 434 -65
23 -6 23 -8 17 -72 -12 -118 -45 -163 -121 -163 -22 0 -204 24 -403 54 -347
51 -365 55 -392 81 -37 36 -43 61 -30 142 13 80 24 96 59 88 14 -2 211 -32
436 -65z"/>
</g>
</svg>
