<svg id="icon" xmlns="http://www.w3.org/2000/svg" width="72.171" height="82.919" viewBox="0 0 72.171 82.919">
    <defs>
        <clipPath id="clip-path">
            <path id="사각형_3074" data-name="사각형 3074" style="fill:none" d="M0 0h72.171v82.919H0z"/>
        </clipPath>
        <style>
            .cls-4{fill:none}.cls-3{clip-path:url(#clip-path)}.cls-4{stroke:#5b5652;stroke-linecap:round;stroke-linejoin:round;stroke-width:2.5px}.cls-5{fill:#caddff}.cls-7{fill:#e8e589}
        </style>
    </defs>
    <path id="패스_7209" data-name="패스 7209" d="M15.424 1.25H1.25v74.527h50.566V1.25z" transform="translate(-.285 -.285)" style="fill:#eaeaea"/>
    <g id="그룹_5215" data-name="그룹 5215">
        <g id="그룹_5214" data-name="그룹 5214" class="cls-3">
            <path id="패스_7210" data-name="패스 7210" class="cls-4" d="M15.424 1.25H1.25v74.527h50.566V1.25z" transform="translate(-.285 -.285)"/>
        </g>
    </g>
    <path id="사각형_3075" data-name="사각형 3075" class="cls-5" transform="translate(7.316 8.622)" d="M0 0h7.961v12.105H0z"/>
    <path id="사각형_3076" data-name="사각형 3076" class="cls-4" transform="translate(7.316 8.622)" d="M0 0h7.961v12.105H0z"/>
    <path id="사각형_3077" data-name="사각형 3077" class="cls-5" transform="translate(22.268 8.622)" d="M0 0h7.961v12.105H0z"/>
    <path id="사각형_3078" data-name="사각형 3078" class="cls-4" transform="translate(22.268 8.622)" d="M0 0h7.961v12.105H0z"/>
    <path id="사각형_3079" data-name="사각형 3079" class="cls-5" transform="translate(7.316 29.017)" d="M0 0h7.961v12.105H0z"/>
    <path id="사각형_3080" data-name="사각형 3080" class="cls-4" transform="translate(7.316 29.017)" d="M0 0h7.961v12.105H0z"/>
    <path id="사각형_3081" data-name="사각형 3081" class="cls-5" transform="translate(22.268 29.017)" d="M0 0h7.961v12.105H0z"/>
    <path id="사각형_3082" data-name="사각형 3082" class="cls-4" transform="translate(22.268 29.017)" d="M0 0h7.961v12.105H0z"/>
    <path id="사각형_3083" data-name="사각형 3083" transform="translate(16.991 52.143)" style="fill:#5b5652" d="M0 0h19.99v23.529H0z"/>
    <path id="사각형_3084" data-name="사각형 3084" class="cls-4" transform="translate(16.991 52.143)" d="M0 0h19.99v23.529H0z"/>
    <path id="사각형_3085" data-name="사각형 3085" class="cls-5" transform="translate(36.914 8.622)" d="M0 0h7.961v12.105H0z"/>
    <path id="사각형_3086" data-name="사각형 3086" class="cls-4" transform="translate(36.914 8.622)" d="M0 0h7.961v12.105H0z"/>
    <path id="사각형_3087" data-name="사각형 3087" class="cls-7" transform="translate(36.98 31.641)" d="M0 0h34.225v35.86H0z"/>
    <g id="그룹_5217" data-name="그룹 5217">
        <g id="그룹_5216" data-name="그룹 5216" class="cls-3">
            <path id="사각형_3088" data-name="사각형 3088" class="cls-4" transform="translate(36.98 31.641)" d="M0 0h34.225v35.86H0z"/>
            <path id="패스_7211" data-name="패스 7211" class="cls-7" d="M82.107 85.5c0 3.569-7.661 6.461-17.112 6.461S47.882 89.064 47.882 85.5 55.543 79.034 65 79.034s17.107 2.892 17.107 6.466" transform="translate(-10.902 -17.995)"/>
            <path id="패스_7212" data-name="패스 7212" class="cls-4" d="M82.107 85.5c0 3.569-7.661 6.461-17.112 6.461S47.882 89.064 47.882 85.5 55.543 79.034 65 79.034s17.107 2.892 17.107 6.466z" transform="translate(-10.902 -17.995)"/>
            <path id="패스_7213" data-name="패스 7213" class="cls-7" d="M82.107 79.691c0 3.569-7.661 6.461-17.112 6.461s-17.113-2.892-17.113-6.461S55.543 73.23 65 73.23s17.112 2.892 17.112 6.461" transform="translate(-10.902 -16.673)"/>
            <path id="패스_7214" data-name="패스 7214" class="cls-4" d="M82.107 79.691c0 3.569-7.661 6.461-17.112 6.461s-17.113-2.892-17.113-6.461S55.543 73.23 65 73.23s17.107 2.892 17.107 6.461z" transform="translate(-10.902 -16.673)"/>
            <path id="패스_7215" data-name="패스 7215" class="cls-7" d="M82.107 73.887c0 3.569-7.661 6.461-17.112 6.461s-17.113-2.892-17.113-6.461S55.543 67.426 65 67.426s17.112 2.892 17.112 6.461" transform="translate(-10.902 -15.352)"/>
            <path id="패스_7216" data-name="패스 7216" class="cls-4" d="M82.107 73.887c0 3.569-7.661 6.461-17.112 6.461s-17.113-2.892-17.113-6.461S55.543 67.426 65 67.426s17.107 2.892 17.107 6.461z" transform="translate(-10.902 -15.352)"/>
            <path id="패스_7217" data-name="패스 7217" class="cls-7" d="M82.107 68.083c0 3.569-7.661 6.461-17.112 6.461s-17.113-2.892-17.113-6.461S55.543 61.622 65 61.622s17.112 2.892 17.112 6.461" transform="translate(-10.902 -14.03)"/>
            <path id="패스_7218" data-name="패스 7218" class="cls-4" d="M82.107 68.083c0 3.569-7.661 6.461-17.112 6.461s-17.113-2.892-17.113-6.461S55.543 61.622 65 61.622s17.107 2.892 17.107 6.461z" transform="translate(-10.902 -14.03)"/>
            <path id="패스_7219" data-name="패스 7219" class="cls-7" d="M82.107 62.279c0 3.569-7.661 6.461-17.112 6.461s-17.113-2.892-17.113-6.461S55.543 55.818 65 55.818s17.112 2.892 17.112 6.461" transform="translate(-10.902 -12.709)"/>
            <path id="패스_7220" data-name="패스 7220" class="cls-4" d="M82.107 62.279c0 3.569-7.661 6.461-17.112 6.461s-17.113-2.892-17.113-6.461S55.543 55.818 65 55.818s17.107 2.892 17.107 6.461z" transform="translate(-10.902 -12.709)"/>
            <path id="패스_7221" data-name="패스 7221" class="cls-7" d="M82.107 56.476c0 3.569-7.661 6.461-17.112 6.461s-17.113-2.892-17.113-6.461S55.543 50.015 65 50.015s17.112 2.892 17.112 6.461" transform="translate(-10.902 -11.388)"/>
            <path id="패스_7222" data-name="패스 7222" class="cls-4" d="M82.107 56.476c0 3.569-7.661 6.461-17.112 6.461s-17.113-2.892-17.113-6.461S55.543 50.015 65 50.015s17.107 2.892 17.107 6.461z" transform="translate(-10.902 -11.388)"/>
            <path id="패스_7223" data-name="패스 7223" class="cls-7" d="M82.107 50.672c0 3.569-7.661 6.461-17.112 6.461s-17.113-2.892-17.113-6.461S55.543 44.211 65 44.211s17.107 2.889 17.107 6.461" transform="translate(-10.902 -10.066)"/>
            <path id="패스_7224" data-name="패스 7224" class="cls-4" d="M82.107 50.672c0 3.569-7.661 6.461-17.112 6.461s-17.113-2.892-17.113-6.461S55.543 44.211 65 44.211s17.107 2.889 17.107 6.461z" transform="translate(-10.902 -10.066)"/>
            <path id="패스_7225" data-name="패스 7225" class="cls-7" d="M82.107 44.868c0 3.569-7.661 6.461-17.112 6.461s-17.113-2.892-17.113-6.461S55.543 38.407 65 38.407s17.107 2.893 17.107 6.461" transform="translate(-10.902 -8.745)"/>
            <path id="패스_7226" data-name="패스 7226" class="cls-4" d="M82.107 44.868c0 3.569-7.661 6.461-17.112 6.461s-17.113-2.892-17.113-6.461S55.543 38.407 65 38.407s17.107 2.893 17.107 6.461z" transform="translate(-10.902 -8.745)"/>
            <path id="패스_7227" data-name="패스 7227" class="cls-7" d="M82.107 39.064c0 3.569-7.661 6.461-17.112 6.461s-17.113-2.892-17.113-6.461S55.543 32.6 65 32.6s17.107 2.9 17.107 6.464" transform="translate(-10.902 -7.423)"/>
            <path id="패스_7228" data-name="패스 7228" class="cls-4" d="M82.107 39.064c0 3.569-7.661 6.461-17.112 6.461s-17.113-2.892-17.113-6.461S55.543 32.6 65 32.6s17.107 2.9 17.107 6.464z" transform="translate(-10.902 -7.423)"/>
            <path id="사각형_3089" data-name="사각형 3089" class="cls-7" transform="translate(25.211 62.045)" d="M0 0h34.225v13.447H0z"/>
            <path id="사각형_3090" data-name="사각형 3090" class="cls-4" transform="translate(25.211 62.045)" d="M0 0h34.225v13.447H0z"/>
            <path id="패스_7229" data-name="패스 7229" class="cls-7" d="M66.868 95.843c0 3.569-7.661 6.461-17.112 6.461s-17.113-2.892-17.113-6.461 7.661-6.461 17.113-6.461 17.112 2.892 17.112 6.461" transform="translate(-7.432 -20.351)"/>
            <path id="패스_7230" data-name="패스 7230" class="cls-4" d="M66.868 95.843c0 3.569-7.661 6.461-17.112 6.461s-17.113-2.892-17.113-6.461 7.661-6.461 17.113-6.461 17.112 2.892 17.112 6.461z" transform="translate(-7.432 -20.351)"/>
            <path id="패스_7231" data-name="패스 7231" class="cls-7" d="M66.868 90.039c0 3.569-7.661 6.461-17.112 6.461s-17.113-2.892-17.113-6.461 7.661-6.461 17.113-6.461 17.112 2.892 17.112 6.461" transform="translate(-7.432 -19.029)"/>
            <path id="패스_7232" data-name="패스 7232" class="cls-4" d="M66.868 90.039c0 3.569-7.661 6.461-17.112 6.461s-17.113-2.892-17.113-6.461 7.661-6.461 17.113-6.461 17.112 2.892 17.112 6.461z" transform="translate(-7.432 -19.029)"/>
            <path id="패스_7233" data-name="패스 7233" class="cls-7" d="M66.868 84.235c0 3.569-7.661 6.461-17.112 6.461S32.643 87.8 32.643 84.235s7.661-6.461 17.113-6.461 17.112 2.892 17.112 6.461" transform="translate(-7.432 -17.708)"/>
            <path id="패스_7234" data-name="패스 7234" class="cls-4" d="M66.868 84.235c0 3.569-7.661 6.461-17.112 6.461S32.643 87.8 32.643 84.235s7.661-6.461 17.113-6.461 17.112 2.892 17.112 6.461z" transform="translate(-7.432 -17.708)"/>
            <path id="패스_7235" data-name="패스 7235" class="cls-7" d="M66.868 78.431c0 3.569-7.661 6.461-17.112 6.461S32.643 82 32.643 78.431 40.3 71.97 49.756 71.97s17.112 2.892 17.112 6.461" transform="translate(-7.432 -16.386)"/>
            <path id="패스_7236" data-name="패스 7236" class="cls-4" d="M66.868 78.431c0 3.569-7.661 6.461-17.112 6.461S32.643 82 32.643 78.431 40.3 71.97 49.756 71.97s17.112 2.892 17.112 6.461z" transform="translate(-7.432 -16.386)"/>
        </g>
    </g>
</svg>
