<svg id="image" xmlns="http://www.w3.org/2000/svg" width="46.551" height="45.17" viewBox="0 0 46.551 45.17">
    <defs>
        <clipPath id="clip-path">
            <path id="사각형_2868" data-name="사각형 2868" class="cls-1" d="M0 0h46.551v45.17H0z"/>
        </clipPath>
        <clipPath id="clip-path-3">
            <path id="사각형_2864" data-name="사각형 2864" class="cls-1" d="M0 0h10.956v6.061H0z"/>
        </clipPath>
        <clipPath id="clip-path-4">
            <path id="사각형_2865" data-name="사각형 2865" class="cls-1" d="M0 0h7.397v3.72H0z"/>
        </clipPath>
        <style>
            .cls-1{fill:none}.cls-2{clip-path:url(#clip-path)}.cls-3{fill:#fff0e4}.cls-4{fill:#5b5652}.cls-5{fill:#fff}.cls-8{opacity:.65}.cls-9{clip-path:url(#clip-path-4)}.cls-10{fill:#fdc89d}
        </style>
    </defs>
    <g id="그룹_5123" data-name="그룹 5123" class="cls-2">
        <g id="그룹_5122" data-name="그룹 5122">
            <g id="그룹_5121" data-name="그룹 5121" class="cls-2">
                <path id="패스_6946" data-name="패스 6946" class="cls-3" d="m11.379 332.65-1.25-.184a4.006 4.006 0 0 1 1.17-7.926l1.25.184" transform="translate(-6.283 -303.933)"/>
                <path id="패스_6947" data-name="패스 6947" class="cls-4" d="M5.1 326.79a.416.416 0 0 1-.063 0l-1.25-.184a4.431 4.431 0 0 1 1.294-8.767l1.25.184a.425.425 0 1 1-.124.84l-1.25-.184a3.581 3.581 0 1 0-1.046 7.086l1.25.184a.425.425 0 0 1-.062.845" transform="translate(0 -297.649)"/>
                <path id="패스_6948" data-name="패스 6948" class="cls-3" d="m631.33 351.043 1.377.2a4.14 4.14 0 0 0 4.7-3.491 4.14 4.14 0 0 0-3.491-4.7l-.843-.124.5-3.372" transform="translate(-591.325 -318.043)"/>
                <path id="패스_6949" data-name="패스 6949" class="cls-4" d="M627.035 345.435a4.591 4.591 0 0 1-.669-.049l-1.377-.2a.425.425 0 1 1 .124-.84l1.377.2a3.715 3.715 0 0 0 1.085-7.351l-.843-.124a.425.425 0 0 1-.358-.482l.5-3.372a.425.425 0 0 1 .84.124l-.436 2.952.423.062a4.565 4.565 0 0 1-.663 9.08" transform="translate(-585.046 -311.762)"/>
                <path id="선_202" data-name="선 202" class="cls-5" transform="translate(40.651 28.873)" d="m0 0 1.918.283"/>
                <path id="패스_6950" data-name="패스 6950" class="cls-4" d="M637.162 450.084a.425.425 0 0 1-.063 0l-1.917-.283a.425.425 0 1 1 .124-.84l1.917.283a.425.425 0 0 1-.062.845" transform="translate(-594.594 -420.503)"/>
                <path id="패스_6951" data-name="패스 6951" class="cls-3" d="m115.168 101.918-1.562 10.582a16.359 16.359 0 0 1-18.518 13.755l-2.922-.431a16.359 16.359 0 0 1-13.755-18.518l1.743-12.177 18.6-7.917" transform="translate(-73.278 -81.689)"/>
                <path id="패스_6952" data-name="패스 6952" class="cls-4" d="M91.183 120.583a16.8 16.8 0 0 1-2.454-.181l-2.922-.431a16.755 16.755 0 0 1-14.113-19L73.437 88.8a.424.424 0 0 1 .254-.331l18.6-7.917a.425.425 0 0 1 .333.781l-18.381 7.82-1.709 11.94a15.905 15.905 0 0 0 13.4 18.038l2.922.431a15.9 15.9 0 0 0 18.036-13.4l1.562-10.584a.425.425 0 0 1 .84.124l-1.562 10.585a16.762 16.762 0 0 1-16.546 14.294" transform="translate(-66.981 -75.412)"/>
                <path id="패스_6953" data-name="패스 6953" class="cls-4" d="M86.8 25.361c-3.36-2.854-5.352-3.387-8.054-7.649 0 0-.246 3.988-13.843 5.155-3.38.29-6.924 2.4-7.641 3.691 0 0-4.205-4.458-1.591-9.515a7.868 7.868 0 0 1 3.666-3.469c1.552-.73 4.049-1.955 6.328-3.29 5.3-3.107 11.292-6.2 17.025.008 0 0 8.64-3.219 12.017 6.412a42.292 42.292 0 0 1 1.8 6.906c.362 3.02-1.483 6.878-4.652 9.143a.3.3 0 0 1-.511-.153 12.291 12.291 0 0 0-2.688-5.533 14.8 14.8 0 0 0-1.856-1.706" transform="translate(-51.336 -6.278)"/>
                <path id="패스_6954" data-name="패스 6954" class="cls-4" d="M85.447 26.982a.706.706 0 0 1-.24-.042.723.723 0 0 1-.449-.51 11.847 11.847 0 0 0-2.6-5.369 10.9 10.9 0 0 0-1.433-1.343c-.124-.1-.248-.207-.371-.311-.965-.82-1.8-1.435-2.611-2.031a18.269 18.269 0 0 1-5.082-5.037 5.337 5.337 0 0 1-1.677 1.59c-2.4 1.555-6.506 2.592-12.215 3.082-3.224.277-6.655 2.3-7.306 3.474l-.282.508-.4-.423c-.044-.047-4.381-4.738-1.659-10a8.331 8.331 0 0 1 3.858-3.659c1.644-.773 4.071-1.969 6.295-3.272C61.965 2.062 64.838.49 67.783.094c3.329-.446 6.227.676 8.855 3.43a10.26 10.26 0 0 1 7.088.389c2.359 1.106 4.111 3.25 5.205 6.371a42.1 42.1 0 0 1 1.822 7c.389 3.25-1.641 7.261-4.827 9.539a.826.826 0 0 1-.479.162M80.9 18.759c.121.1.243.2.365.306a11.688 11.688 0 0 1 1.542 1.451 12.521 12.521 0 0 1 2.73 5.536c2.894-2.127 4.724-5.749 4.374-8.671a42.109 42.109 0 0 0-1.78-6.816c-1.016-2.9-2.619-4.878-4.765-5.883a9.577 9.577 0 0 0-6.7-.271l-.267.1L76.2 4.3C73.726 1.619 71.009.518 67.9.936c-2.789.374-5.576 1.9-8.192 3.436C57.453 5.691 55 6.9 53.341 7.68a7.477 7.477 0 0 0-3.47 3.28c-2.037 3.94.272 7.47 1.188 8.632a13.05 13.05 0 0 1 7.631-3.427c12.878-1.106 13.452-4.733 13.457-4.77l.081-1.308.7 1.118a17.575 17.575 0 0 0 5.313 5.485c.783.576 1.67 1.228 2.657 2.068" transform="translate(-45.165 .001)"/>
                <path id="패스_6955" data-name="패스 6955" class="cls-4" d="M277.3 386.031a1.029 1.029 0 1 1-.868-1.169 1.029 1.029 0 0 1 .868 1.169" transform="translate(-257.814 -360.464)"/>
                <path id="패스_6956" data-name="패스 6956" class="cls-4" d="M273.778 384.564a1.213 1.213 0 0 1-.178-.013 1.2 1.2 0 1 1 .178.013m0-2.059a.863.863 0 1 0 .127.009.854.854 0 0 0-.127-.009" transform="translate(-255.304 -357.949)"/>
                <path id="패스_6957" data-name="패스 6957" class="cls-4" d="M412.023 406.1a1.029 1.029 0 1 1-.868-1.169 1.029 1.029 0 0 1 .868 1.169" transform="translate(-383.996 -379.261)"/>
                <path id="패스_6958" data-name="패스 6958" class="cls-4" d="M408.492 404.637a1.212 1.212 0 0 1-.176-.013 1.2 1.2 0 1 1 .176.013m0-2.059a.861.861 0 1 0 .126.009.861.861 0 0 0-.126-.009" transform="translate(-381.483 -376.75)"/>
                <path id="패스_6959" data-name="패스 6959" class="cls-4" d="m266.276 464.454-.418 3.209a5.457 5.457 0 0 1-10.8-1.593l.418-3.209a1.015 1.015 0 0 1 1.152-.856l8.789 1.3a1.015 1.015 0 0 1 .856 1.152" transform="translate(-238.844 -432.72)"/>
                <path id="패스_6960" data-name="패스 6960" class="cls-4" d="M254.18 466.473a5.909 5.909 0 0 1-.864-.064 5.9 5.9 0 0 1-4.96-6.677l.417-3.2a1.444 1.444 0 0 1 1.635-1.221l8.789 1.3a1.439 1.439 0 0 1 1.214 1.63l-.417 3.206a5.9 5.9 0 0 1-5.815 5.031m-3.982-10.33a.591.591 0 0 0-.584.5l-.417 3.2a5.032 5.032 0 0 0 9.955 1.477l.418-3.209a.59.59 0 0 0-.5-.67l-8.789-1.3a.593.593 0 0 0-.086-.006" transform="translate(-232.56 -426.444)"/>
                <path id="패스_6961" data-name="패스 6961" class="cls-5" d="m280.505 467.049-.147 1a1.468 1.468 0 0 1-1.662 1.235l-6.528-.963a1.468 1.468 0 0 1-1.235-1.662l.147-1a.705.705 0 0 1 .8-.595l8.03 1.185a.705.705 0 0 1 .595.8" transform="translate(-253.75 -435.588)"/>
                <path id="패스_6962" data-name="패스 6962" class="cls-4" d="M272.632 463.443a1.906 1.906 0 0 1-.278-.021l-6.528-.963a1.893 1.893 0 0 1-1.593-2.144l.147-1a1.131 1.131 0 0 1 1.283-.953l8.03 1.185a1.131 1.131 0 0 1 .953 1.283l-.147 1a1.895 1.895 0 0 1-1.866 1.613M265.5 459.2a.281.281 0 0 0-.277.24l-.147 1a1.043 1.043 0 0 0 .876 1.18l6.528.963a1.043 1.043 0 0 0 1.18-.876l.147-1a.281.281 0 0 0-.236-.318l-8.03-1.185h-.041" transform="translate(-247.471 -429.309)"/>
                <path id="선_203" data-name="선 203" class="cls-5" transform="translate(3.29 24.4)" d="m0 0 1.675.247"/>
                <path id="패스_6963" data-name="패스 6963" class="cls-4" d="M47.323 379.462a.437.437 0 0 1-.063 0l-1.675-.247a.425.425 0 1 1 .124-.84l1.675.247a.425.425 0 0 1-.062.845" transform="translate(-42.357 -354.39)"/>
                <g id="그룹_5114" data-name="그룹 5114" transform="translate(11.355 3.169)" style="opacity:.39">
                    <g id="그룹_5113" data-name="그룹 5113">
                        <g id="그룹_5112" data-name="그룹 5112" style="clip-path:url(#clip-path-3)">
                            <path id="패스_6964" data-name="패스 6964" class="cls-5" d="M228.124 54.512a.712.712 0 0 1-.28-1.322c.32-.187.632-.375.94-.561a19.311 19.311 0 0 1 5.723-2.6.712.712 0 0 1 .337 1.383 18.165 18.165 0 0 0-5.325 2.435c-.313.189-.63.379-.955.569a.708.708 0 0 1-.44.093" transform="translate(-224.431 -50.01)"/>
                            <path id="패스_6965" data-name="패스 6965" class="cls-5" d="M180.811 120.9a.813.813 0 1 1-.716-.9.813.813 0 0 1 .716.9" transform="translate(-179.19 -115.559)"/>
                        </g>
                    </g>
                </g>
                <g id="그룹_5117" data-name="그룹 5117" class="cls-8" transform="translate(7.365 25.927)">
                    <g id="그룹_5116" data-name="그룹 5116">
                        <g id="그룹_5115" data-name="그룹 5115" class="cls-9">
                            <path id="패스_6966" data-name="패스 6966" class="cls-10" d="M123.614 411.444c-.114 1-1.859 1.623-3.9 1.391s-3.6-1.231-3.486-2.232 1.859-1.623 3.9-1.391 3.6 1.231 3.486 2.231" transform="translate(-116.223 -409.164)"/>
                        </g>
                    </g>
                </g>
                <g id="그룹_5120" data-name="그룹 5120" class="cls-8" transform="translate(29.261 28.418)">
                    <g id="그룹_5119" data-name="그룹 5119">
                        <g id="그룹_5118" data-name="그룹 5118" class="cls-9">
                            <path id="패스_6967" data-name="패스 6967" class="cls-10" d="M469.168 450.759c-.114 1-1.859 1.623-3.9 1.391s-3.6-1.231-3.486-2.232 1.859-1.623 3.9-1.391 3.6 1.231 3.486 2.232" transform="translate(-461.777 -448.479)"/>
                        </g>
                    </g>
                </g>
                <path id="패스_6968" data-name="패스 6968" class="cls-4" d="M267.579 326.491a.763.763 0 0 1-.591-.279 1.932 1.932 0 0 0-1.675-.576.764.764 0 0 1-.146-1.522 3.42 3.42 0 0 1 3 1.127.764.764 0 0 1-.59 1.25" transform="translate(-247.717 -303.559)"/>
                <path id="패스_6969" data-name="패스 6969" class="cls-4" d="M407.52 344.24a.764.764 0 0 1-.485-1.356 3.42 3.42 0 0 1 3.163-.52.764.764 0 0 1-.44 1.464 1.93 1.93 0 0 0-1.755.239.762.762 0 0 1-.484.173" transform="translate(-380.981 -320.511)"/>
            </g>
        </g>
    </g>
</svg>
