<svg xmlns="http://www.w3.org/2000/svg" width="68" height="47.813" viewBox="0 0 68 47.813">
    <path d="M67.629 11.981a8.544 8.544 0 0 0-6.012-6.051C56.314 4.5 35.05 4.5 35.05 4.5s-21.264 0-26.567 1.43a8.544 8.544 0 0 0-6.012 6.051C1.05 17.318 1.05 28.455 1.05 28.455s0 11.136 1.421 16.474a8.417 8.417 0 0 0 6.012 5.954c5.3 1.43 26.567 1.43 26.567 1.43s21.264 0 26.567-1.43a8.417 8.417 0 0 0 6.012-5.954c1.421-5.337 1.421-16.474 1.421-16.474s0-11.136-1.421-16.474zM28.1 38.565V18.344l17.768 10.111L28.1 38.565z" transform="translate(-1.05 -4.5)" style="fill:red"/>
</svg>
