<svg xmlns="http://www.w3.org/2000/svg" width="39.199" height="39.2" viewBox="0 0 39.199 39.2">
    <path d="M22409.6 4708.2a19.532 19.532 0 1 1 7.629-1.541 19.474 19.474 0 0 1-7.629 1.541zm0-30.29a14.885 14.885 0 0 0-9.227 3.02 9.3 9.3 0 0 0-3.82 7.292 8.709 8.709 0 0 0 1.7 5.1 12.018 12.018 0 0 0 4.49 3.679c-.266.984-.988 3.683-1.131 4.267a.634.634 0 0 0 .021.529.244.244 0 0 0 .2.09.614.614 0 0 0 .32-.112l.051-.035c1.088-.738 3.748-2.544 4.971-3.377a16.2 16.2 0 0 0 2.42.18c7.2 0 13.049-4.628 13.049-10.318a9.3 9.3 0 0 0-3.822-7.292 14.885 14.885 0 0 0-9.222-3.024zm9.084 13.78a.615.615 0 0 1-.5-.254l-1.873-2.454-.4.405v1.6a.7.7 0 0 1-1.408 0v-5.19a.7.7 0 0 1 1.408 0v1.835l2.213-2.212a.621.621 0 0 1 .877 0 .627.627 0 0 1-.006.878l-1.783 1.784 1.975 2.6a.625.625 0 0 1 .121.463.636.636 0 0 1-.244.415.608.608 0 0 1-.38.129zm-9.465 0a.632.632 0 0 1-.6-.422l-.326-.923h-2.6l-.326.923a.629.629 0 0 1-.8.388.637.637 0 0 1-.389-.8l1.869-5.016a.507.507 0 0 1 .021-.047.181.181 0 0 0 .018-.037.912.912 0 0 1 .922-.658.927.927 0 0 1 .891.551v.006l1.9 5.2a.632.632 0 0 1-.383.8.648.648 0 0 1-.197.034zm-2.236-5.021-.873 2.5h1.773l-.873-2.494h-.012zm-4.436 5.021h-.141a.638.638 0 0 1-.445-.186.646.646 0 0 1-.186-.45v-4.571h-1.238a.647.647 0 1 1 0-1.294h3.811a.647.647 0 1 1 0 1.294h-1.17v4.571a.646.646 0 0 1-.186.45.638.638 0 0 1-.445.185zm10.971-.045h-2.59a.592.592 0 0 1-.59-.591.383.383 0 0 1 .012-.112v-.02c0-.029-.008-.061-.008-.093v-5.029a.7.7 0 1 1 1.406 0v4.672h1.773a.588.588 0 1 1 0 1.176z" transform="translate(-22390 -4668.999)" style="fill:#fff"/>
</svg>
