<svg xmlns="http://www.w3.org/2000/svg" width="39.199" height="39.2" viewBox="0 0 39.199 39.2">
    <path data-name="빼기 3" d="M22409.6 4708.2a19.532 19.532 0 1 1 7.629-1.541 19.474 19.474 0 0 1-7.629 1.541zm-6.639-29.716a1 1 0 0 0-.352.087h-.008l-.105.04a7.879 7.879 0 0 0-1.256.67 3.734 3.734 0 0 0-1.514 1.593c-.354.769-.549 2.032 1.121 5a27.9 27.9 0 0 0 4.908 6.546l.006.006.01.005a27.987 27.987 0 0 0 6.547 4.914 8.578 8.578 0 0 0 3.891 1.362 2.545 2.545 0 0 0 1.113-.242 3.649 3.649 0 0 0 1.594-1.514 7.89 7.89 0 0 0 .67-1.255l.031-.083.012-.029c.131-.35.211-.561-.494-1.268a17.1 17.1 0 0 0-3.551-2.375 2.871 2.871 0 0 0-1.2-.373 1.68 1.68 0 0 0-1.01.417l-.211.156-.043.031a2.01 2.01 0 0 1-1.205.561 1.409 1.409 0 0 1-.3-.034 10.311 10.311 0 0 1-3.523-2.606 10.423 10.423 0 0 1-2.607-3.524 1.743 1.743 0 0 1 .531-1.505l.057-.08.127-.171c.547-.756.555-1.148.045-2.207a16.86 16.86 0 0 0-2.375-3.552c-.409-.403-.67-.571-.909-.571z" transform="translate(-22390 -4668.998)" style="fill:#fff"/>
</svg>
