<svg id="image" xmlns="http://www.w3.org/2000/svg" width="232.623" height="253.312" viewBox="0 0 232.623 253.312">
    <defs>
        <clipPath id="clip-path">
            <path id="사각형_2831" data-name="사각형 2831" class="cls-1" d="M0 0h232.623v253.312H0z"/>
        </clipPath>
        <clipPath id="clip-path-3">
            <path id="사각형_2827" data-name="사각형 2827" class="cls-1" d="M0 0h33.793v18.696H0z"/>
        </clipPath>
        <clipPath id="clip-path-4">
            <path id="사각형_2828" data-name="사각형 2828" class="cls-1" d="M0 0h22.814v11.473H0z"/>
        </clipPath>
        <style>
            .cls-1{fill:none}.cls-2{clip-path:url(#clip-path)}.cls-3{fill:#fff}.cls-4{fill:#fff0e4}.cls-5{fill:#5b5652}.cls-6{fill:#d1d1d1}.cls-7{fill:#e8e589}.cls-10{fill:#9fcef5}.cls-11{fill:#b59a84}.cls-14{opacity:.65}.cls-15{clip-path:url(#clip-path-4)}.cls-16{fill:#fdc89d}
        </style>
    </defs>
    <g id="그룹_5110" data-name="그룹 5110" class="cls-2">
        <g id="그룹_5109" data-name="그룹 5109">
            <g id="그룹_5108" data-name="그룹 5108" class="cls-2">
                <path id="패스_6860" data-name="패스 6860" class="cls-3" d="M73.633 516.09a1.171 1.171 0 0 1-1.081-.72l-2.94-7.039-7.039-2.941a1.171 1.171 0 0 1 0-2.161l7.039-2.94 2.94-7.039a1.171 1.171 0 0 1 2.161 0l2.941 7.039 7.039 2.94a1.171 1.171 0 0 1 0 2.161l-7.039 2.941-2.941 7.039a1.17 1.17 0 0 1-1.08.72" transform="translate(-49.765 -396.27)"/>
                <path id="패스_6861" data-name="패스 6861" class="cls-4" d="m902.408 465.119-5.413-14.04a6.008 6.008 0 0 0-.309-.8l-.686-1.791q-.766-1.986-1.7-3.9l-1.008-2.055a6.861 6.861 0 0 0-9.051-3.2c-6.25 2.9-15.483 7.265-18.629 9.155a9.181 9.181 0 0 0-3.912 11.052l.277.662c-8.124 6.617-15.477 8.316-20.928 10.257l-5.733 1.385 3.873 20.073c9.386-.523 18.406-4.611 30.632-13.083 1.926 3.51 6.031 5.956 9.789 4.676 7.294-2.484 9.789-4.025 18.257-7.906l2.025-1c3.7-1.764 4.293-5.791 2.524-9.485" transform="translate(-672.054 -352.952)"/>
                <path id="패스_6862" data-name="패스 6862" class="cls-5" d="M833.785 487.875a1.31 1.31 0 0 1-1.285-1.061l-3.873-20.073a1.31 1.31 0 0 1 .979-1.521l5.667-1.368c.847-.3 1.74-.6 2.672-.9 4.778-1.581 10.679-3.533 17.05-8.511a10.5 10.5 0 0 1 4.54-12.422c3.115-1.872 11.917-6.048 18.752-9.221a8.217 8.217 0 0 1 10.778 3.816l1.008 2.055a50.16 50.16 0 0 1 1.749 4l.673 1.744a7.267 7.267 0 0 1 .341.886l5.38 13.954a9.316 9.316 0 0 1 .629 7.074 7.166 7.166 0 0 1-3.792 4.111l-2.011.989a486.82 486.82 0 0 0-5.768 2.7 102.451 102.451 0 0 1-12.646 5.273c-4.118 1.4-8.271-.912-10.583-4.07-12.306 8.389-21.119 12.04-30.187 12.545h-.074m-2.349-20.4 3.416 17.7c8.432-.74 16.894-4.506 28.82-12.77a1.309 1.309 0 0 1 1.894.446c1.539 2.8 4.944 5.183 8.219 4.065a99.054 99.054 0 0 0 12.368-5.16c1.63-.773 3.478-1.648 5.765-2.7l1.993-.981a4.551 4.551 0 0 0 2.465-2.626 6.76 6.76 0 0 0-.544-5.118c-.015-.031-.028-.063-.041-.095l-5.413-14.04c-.01-.027-.02-.054-.028-.081a4.7 4.7 0 0 0-.241-.629 1.306 1.306 0 0 1-.041-.093l-.689-1.788a48.994 48.994 0 0 0-1.658-3.793l-1.008-2.055a5.583 5.583 0 0 0-7.323-2.593c-9.581 4.447-16.153 7.675-18.505 9.09a7.881 7.881 0 0 0-3.368 9.451l.266.637a1.31 1.31 0 0 1-.382 1.52c-7.032 5.728-13.465 7.857-18.633 9.566-.938.31-1.833.607-2.682.909a1.278 1.278 0 0 1-.132.039z" transform="translate(-666.659 -347.603)"/>
                <path id="패스_6863" data-name="패스 6863" class="cls-4" d="m1122.415 506.568 3.358-1.5c2.567-1.056 3.1-4.6 1.906-7.1" transform="translate(-903.048 -400.645)"/>
                <path id="패스_6864" data-name="패스 6864" class="cls-5" d="M1117.023 502.483a1.31 1.31 0 0 1-.535-2.506l3.358-1.5a2.667 2.667 0 0 0 1.46-1.568 5 5 0 0 0-.2-3.77 1.31 1.31 0 1 1 2.362-1.131 7.628 7.628 0 0 1 .284 5.841 5.169 5.169 0 0 1-2.873 3.035l-3.322 1.485a1.3 1.3 0 0 1-.533.114" transform="translate(-897.656 -395.25)"/>
                <path id="패스_6865" data-name="패스 6865" class="cls-4" d="M1049.069 542.137c1.1 2.958 4.295 3.993 7.282 2.98l7.053-3.151" transform="translate(-844.037 -436.043)"/>
                <path id="패스_6866" data-name="패스 6866" class="cls-5" d="M1048.747 541.407a6.536 6.536 0 0 1-6.3-4.209 1.31 1.31 0 0 1 2.457-.909c.879 2.373 3.462 2.906 5.577 2.212l6.995-3.125a1.31 1.31 0 0 1 1.068 2.392l-7.053 3.151a1.421 1.421 0 0 1-.114.045 8.2 8.2 0 0 1-2.631.444" transform="translate(-838.643 -430.649)"/>
                <path id="패스_6867" data-name="패스 6867" class="cls-4" d="m941.084 460.4-6.835-15.434a7.331 7.331 0 0 1 3.844-9.526l.177-.077a7.235 7.235 0 0 1 9.285 3.24l4 9.131" transform="translate(-751.206 -349.785)"/>
                <path id="패스_6868" data-name="패스 6868" class="cls-5" d="M935.75 456.349a1.31 1.31 0 0 1-1.2-.78l-6.835-15.434a8.688 8.688 0 0 1 4.518-11.257l.175-.076a8.581 8.581 0 0 1 10.967 3.824c.016.03.03.059.043.09l4 9.131a1.31 1.31 0 0 1-2.4 1.05l-3.975-9.083a5.949 5.949 0 0 0-7.581-2.613l-.156.068a6.056 6.056 0 0 0-3.181 7.834l6.823 15.406a1.31 1.31 0 0 1-1.2 1.84" transform="translate(-745.872 -344.426)"/>
                <path id="패스_6869" data-name="패스 6869" class="cls-5" d="M1054.673 516.454a6.972 6.972 0 0 1-6.579-4.5l-7.068-16.173-.028-.069a7.014 7.014 0 0 1 4.077-8.97l7.031-2.941a1.31 1.31 0 0 1 1.011 2.417l-7.072 2.957a4.4 4.4 0 0 0-2.6 5.594l7.067 16.169.028.069a4.456 4.456 0 0 0 5.691 2.563 1.31 1.31 0 0 1 .841 2.481 7.456 7.456 0 0 1-2.4.4" transform="translate(-837.194 -389.166)"/>
                <path id="패스_6870" data-name="패스 6870" class="cls-5" d="M1068.744 555.256a7.18 7.18 0 0 1-6.739-4.611 1.31 1.31 0 0 1 2.457-.91 4.575 4.575 0 0 0 5.675 2.684l9.739-4.788a3.48 3.48 0 0 0 1.69-4.667 1.31 1.31 0 1 1 2.362-1.132 6.1 6.1 0 0 1-2.92 8.161l-9.8 4.817a1.378 1.378 0 0 1-.157.065 7.184 7.184 0 0 1-2.31.381" transform="translate(-854.379 -435.337)"/>
                <path id="패스_6871" data-name="패스 6871" class="cls-5" d="M1024.18 554.387a1.31 1.31 0 0 1-.5-2.519 7.163 7.163 0 0 0 4.4-4.148c1.144-3.373-.994-7.148-1.016-7.186a1.31 1.31 0 0 1 2.271-1.307c.113.2 2.746 4.852 1.226 9.334-.86 2.536-2.835 4.462-5.87 5.725a1.306 1.306 0 0 1-.5.1" transform="translate(-822.958 -433.312)"/>
                <path id="패스_6872" data-name="패스 6872" class="cls-6" d="M475.858 645.109a17.3 17.3 0 0 1 18.708 15.771l1.919 22.526a17.3 17.3 0 0 1-15.771 18.708l-61.307 5.223" transform="translate(-337.437 -518.976)"/>
                <path id="패스_6873" data-name="패스 6873" class="cls-5" d="M414.012 703.252a1.31 1.31 0 0 1-.109-2.615l61.307-5.223a15.991 15.991 0 0 0 14.577-17.292l-1.919-22.522a15.992 15.992 0 0 0-17.292-14.578 1.31 1.31 0 1 1-.222-2.61 18.613 18.613 0 0 1 20.124 16.966L492.4 677.9a18.612 18.612 0 0 1-16.965 20.125l-61.308 5.223h-.113" transform="translate(-332.044 -513.582)"/>
                <path id="패스_6874" data-name="패스 6874" class="cls-3" d="M755.613 580.989c14.1 1.734 28.677-2.9 51.448-14.277l-11.729-22.8c-13.471 8.685-24.422 9.12-32.507 10.458l-7.539.444" transform="translate(-607.671 -437.609)"/>
                <path id="패스_6875" data-name="패스 6875" class="cls-5" d="M756.081 577.267a49.178 49.178 0 0 1-6.021-.371 1.31 1.31 0 1 1 .32-2.6c12.876 1.585 26.377-2.1 49.516-13.558l-10.468-20.348c-11.248 6.93-20.611 8.263-28.185 9.341-1.266.18-2.461.35-3.6.538a1.272 1.272 0 0 1-.137.015l-7.539.444a1.3 1.3 0 0 1-1.385-1.231 1.31 1.31 0 0 1 1.23-1.384l7.47-.44c1.144-.188 2.332-.357 3.588-.536 7.593-1.081 17.043-2.426 28.355-9.719a1.309 1.309 0 0 1 1.874.5l11.73 22.8a1.309 1.309 0 0 1-.579 1.771c-20.837 10.411-34.2 14.776-46.173 14.776" transform="translate(-602.279 -432.217)"/>
                <path id="패스_6876" data-name="패스 6876" class="cls-4" d="m121.824 928.826-4.218 5.876-7.479-3.48-.782-7.091" transform="translate(-87.975 -743.516)"/>
                <path id="패스_6877" data-name="패스 6877" class="cls-4" d="M106.545 924.13s-3.577 7.262 5.676 9.826" transform="translate(-85.175 -743.516)"/>
                <path id="패스_6878" data-name="패스 6878" class="cls-5" d="M106.837 929.872a1.32 1.32 0 0 1-.35-.048c-3.4-.941-5.648-2.6-6.691-4.926a8.568 8.568 0 0 1 .191-6.74 1.31 1.31 0 0 1 2.352 1.152 5.971 5.971 0 0 0-.144 4.536c.714 1.572 2.393 2.733 4.992 3.454a1.31 1.31 0 0 1-.349 2.572" transform="translate(-79.79 -738.121)"/>
                <path id="패스_6879" data-name="패스 6879" class="cls-3" d="m242.824 663.791-33.895 2.459c.969-13.212 5.1-26.759 14.722-36.28 5.234-5.179 11.741-8.118 18.682-10.265a164.556 164.556 0 0 1 23.465-5.532" transform="translate(-168.095 -494.138)"/>
                <path id="패스_6880" data-name="패스 6880" class="cls-5" d="M203.537 662.166a1.31 1.31 0 0 1-1.306-1.405c.8-10.9 4.069-26.193 15.107-37.115 4.719-4.67 10.646-7.934 19.217-10.585a164.439 164.439 0 0 1 23.652-5.576 1.31 1.31 0 1 1 .4 2.589 161.921 161.921 0 0 0-23.277 5.489c-8.147 2.519-13.744 5.586-18.147 9.944-9.965 9.862-13.26 23.612-14.212 33.932l32.369-2.349a1.31 1.31 0 0 1 .189 2.612l-33.895 2.459h-.095" transform="translate(-162.704 -488.744)"/>
                <path id="패스_6881" data-name="패스 6881" class="cls-6" d="m313.411 645.025-.524 1.572s-3.343 12.423-5.345 24.89l-.558 3.975-5.019-2.182a4.6 4.6 0 0 1-2.742-4.717 88.636 88.636 0 0 1 2.1-11.892 66.214 66.214 0 0 1 1.939-6.515" transform="translate(-240.721 -518.96)"/>
                <path id="패스_6882" data-name="패스 6882" class="cls-5" d="M301.589 671.377a1.312 1.312 0 0 1-.522-.108l-5.019-2.181a5.881 5.881 0 0 1-3.522-6.061 90.082 90.082 0 0 1 2.132-12.056l.245-1.024c.493-2.069 1.052-4.414 1.717-6.3a1.31 1.31 0 0 1 2.47.873c-.619 1.752-1.161 4.025-1.639 6.03l-.247 1.032a87.689 87.689 0 0 0-2.074 11.727 3.273 3.273 0 0 0 1.962 3.373l3.44 1.495.319-2.269c1.994-12.417 5.343-24.923 5.377-25.048l.022-.074.524-1.572a1.31 1.31 0 0 1 2.485.828l-.511 1.534c-.2.753-3.392 12.8-5.307 24.721l-.555 3.95a1.309 1.309 0 0 1-1.3 1.128" transform="translate(-235.325 -513.565)"/>
                <path id="패스_6883" data-name="패스 6883" class="cls-7" d="m72.287 756.4-54.649-29.47 17.944-33.271 7.1-2.618 36.7 62.744z" transform="translate(-14.191 -555.983)"/>
                <path id="패스_6884" data-name="패스 6884" class="cls-5" d="M66.894 752.322a1.305 1.305 0 0 1-.622-.157l-54.648-29.473a1.309 1.309 0 0 1-.531-1.774l17.943-33.271a1.31 1.31 0 0 1 .7-.607l7.1-2.618a1.311 1.311 0 0 1 1.583.568l36.7 62.743a1.31 1.31 0 0 1-.678 1.891l-7.1 2.618a1.306 1.306 0 0 1-.453.081M14.02 721.008 67 749.579l5.079-1.873-35.365-60.447-5.607 2.067z" transform="translate(-8.799 -550.591)"/>
                <path id="사각형_2826" data-name="사각형 2826" class="cls-7" transform="rotate(-61.64 146.347 75.323)" d="M0 0h37.801v62.089H0z"/>
                <path id="패스_6885" data-name="패스 6885" class="cls-5" d="M103.227 749.7a1.309 1.309 0 0 1-.622-.157l-54.648-29.472a1.309 1.309 0 0 1-.531-1.774l17.944-33.271a1.309 1.309 0 0 1 1.774-.531l54.648 29.473a1.309 1.309 0 0 1 .531 1.774l-17.944 33.271a1.309 1.309 0 0 1-.777.633 1.323 1.323 0 0 1-.375.055m-52.874-31.313 52.343 28.23 16.7-30.966-52.343-28.23z" transform="translate(-38.03 -550.589)"/>
                <path id="패스_6886" data-name="패스 6886" d="m169.1 683.821-14.549-7.847 1.882-3.49a2.51 2.51 0 0 1 3.4-1.018l10.131 5.464a2.51 2.51 0 0 1 1.018 3.4z" transform="translate(-124.345 -539.991)" style="fill:#66bd82"/>
                <path id="패스_6887" data-name="패스 6887" class="cls-5" d="M163.706 679.734a1.3 1.3 0 0 1-.621-.157l-14.549-7.846a1.309 1.309 0 0 1-.531-1.774l1.882-3.49a3.819 3.819 0 0 1 5.175-1.548l10.13 5.463a3.824 3.824 0 0 1 1.549 5.175l-1.882 3.49a1.309 1.309 0 0 1-1.154.688m-12.774-9.687 12.244 6.6 1.261-2.337a1.2 1.2 0 0 0-.487-1.626l-10.13-5.464a1.2 1.2 0 0 0-1.626.487z" transform="translate(-118.952 -534.595)"/>
                <path id="패스_6888" data-name="패스 6888" d="m259.457 732.552-14.549-7.847 1.882-3.49a2.51 2.51 0 0 1 3.4-1.018l10.131 5.464a2.51 2.51 0 0 1 1.018 3.4z" transform="translate(-197.043 -579.198)" style="fill:#fd8b62"/>
                <path id="패스_6889" data-name="패스 6889" class="cls-5" d="M254.065 728.474a1.308 1.308 0 0 1-.622-.157l-14.549-7.846a1.31 1.31 0 0 1-.531-1.774l1.882-3.49a3.824 3.824 0 0 1 5.175-1.549l10.13 5.464a3.819 3.819 0 0 1 1.55 5.178l-1.882 3.49a1.311 1.311 0 0 1-1.153.688m-12.774-9.687 12.243 6.6 1.261-2.337a1.2 1.2 0 0 0-.487-1.626l-10.13-5.464a1.2 1.2 0 0 0-1.626.487z" transform="translate(-191.651 -573.81)"/>
                <path id="패스_6890" data-name="패스 6890" class="cls-3" d="M339.118 611.545c-.891 10.7-1.625 30.039 2.761 38.69l76.529-3.912-2.908-39.778s2.3-23.231-.823-36.022" transform="translate(-272.296 -459.019)"/>
                <path id="패스_6891" data-name="패스 6891" class="cls-5" d="M336.517 646.152a1.309 1.309 0 0 1-1.168-.717c-4.791-9.448-3.622-30.7-2.9-39.392a1.31 1.31 0 1 1 2.61.217c-.687 8.24-1.8 28.006 2.264 37.229l74.316-3.8-2.811-38.444a1.3 1.3 0 0 1 0-.224c.023-.23 2.239-23.158-.793-35.583a1.31 1.31 0 0 1 2.545-.621c3.059 12.537 1.056 34.371.866 36.349l2.9 39.667a1.309 1.309 0 0 1-1.239 1.4l-76.529 3.912h-.067" transform="translate(-266.935 -453.625)"/>
                <path id="선_198" data-name="선 198" class="cls-3" transform="translate(142.379 140.166)" d="M.823 7.361 0 0"/>
                <path id="패스_6892" data-name="패스 6892" class="cls-5" d="M723.929 720.453a1.31 1.31 0 0 1-1.3-1.164l-.824-7.361a1.31 1.31 0 1 1 2.6-.291l.824 7.361a1.309 1.309 0 0 1-1.156 1.447 1.3 1.3 0 0 1-.147.008" transform="translate(-580.728 -571.616)"/>
                <path id="패스_6893" data-name="패스 6893" class="cls-10" d="M516.154 753.328s-.014 29.326 36.954 25.4c0 0-11.458-10.441-9.889-17.086 0 0-15.446-1.1-21.33-9.026" transform="translate(-415.276 -605.525)"/>
                <path id="패스_6894" data-name="패스 6894" class="cls-5" d="M541.171 775.01c-9.625 0-17.281-2.509-22.817-7.49-8.805-7.924-8.9-19.113-8.9-19.585a1.31 1.31 0 0 1 1.31-1.309 1.31 1.31 0 0 1 1.309 1.31c0 .178.147 10.561 8.059 17.66 5.7 5.111 13.975 7.354 24.645 6.679a53.726 53.726 0 0 1-3.628-4.184c-3.231-4.167-4.833-7.745-4.777-10.667-4.021-.478-15.746-2.44-20.926-9.415a1.31 1.31 0 0 1 2.1-1.562c5.453 7.342 20.224 8.49 20.373 8.5a1.31 1.31 0 0 1 1.18 1.607c-1.14 4.828 6.469 13.055 9.5 15.817a1.31 1.31 0 0 1-.744 2.271 63.436 63.436 0 0 1-6.683.369m-29.1-27.075z" transform="translate(-409.885 -600.133)"/>
                <path id="패스_6895" data-name="패스 6895" class="cls-10" d="M492.822 663.163s-.639 11.821 4.54 13.044l5.734-.709 4.412-9.988-3.936-8.372s-6.778-2.623-10.75 6.025" transform="translate(-396.484 -528.404)"/>
                <path id="패스_6896" data-name="패스 6896" class="cls-5" d="M491.967 672.011a1.315 1.315 0 0 1-.3-.035c-2.716-.641-4.467-3.351-5.205-8.052a33.851 33.851 0 0 1-.342-6.337 1.3 1.3 0 0 1 .118-.476c3.548-7.727 9.672-7.762 12.413-6.7a1.309 1.309 0 0 1 .713.664l3.936 8.372a1.312 1.312 0 0 1 .013 1.086l-4.413 9.988a1.31 1.31 0 0 1-1.038.77l-5.734.709a1.333 1.333 0 0 1-.161.01m-3.243-14.034c-.113 2.927.273 10.36 3.343 11.392l4.736-.586 3.871-8.762-3.432-7.3c-1.4-.326-5.663-.724-8.518 5.256" transform="translate(-391.089 -522.898)"/>
                <path id="패스_6897" data-name="패스 6897" class="cls-3" d="m413.273 655.06 6.973 14.94a5.159 5.159 0 0 0 1 1.484c1.4 1.394 3.145 1.555 5.707-.3l8.79-6.307 9.13 6.883a3.849 3.849 0 0 0 5.625-.68L460 655.654" transform="translate(-332.502 -527.034)"/>
                <path id="패스_6898" data-name="패스 6898" class="cls-5" d="M442.061 668.595a5.6 5.6 0 0 1-3.364-1.178l-8.361-6.3-8.008 5.746c-2.906 2.1-5.4 2.159-7.4.162a6.473 6.473 0 0 1-1.266-1.857l-6.973-14.944a1.31 1.31 0 0 1 2.374-1.108l6.973 14.944a3.886 3.886 0 0 0 .743 1.111c.694.693 1.634 1.289 4.014-.433l8.8-6.31a1.306 1.306 0 0 1 1.552.018l9.13 6.883a2.875 2.875 0 0 0 2.122.626 2.5 2.5 0 0 0 1.632-1l9.461-15.375a1.31 1.31 0 1 1 2.231 1.373l-9.495 15.43a1.1 1.1 0 0 1-.066.1 5.147 5.147 0 0 1-3.393 2.07 5 5 0 0 1-.7.05" transform="translate(-327.109 -521.641)"/>
                <path id="선_199" data-name="선 199" class="cls-3" transform="translate(39.739 184.073)" d="M25.457 13.73 0 0"/>
                <path id="패스_6899" data-name="패스 6899" class="cls-5" d="M223.393 951.473a1.3 1.3 0 0 1-.621-.157l-25.457-13.73a1.31 1.31 0 1 1 1.243-2.305l25.457 13.73a1.31 1.31 0 0 1-.623 2.462" transform="translate(-158.198 -752.361)"/>
                <path id="패스_6900" data-name="패스 6900" class="cls-4" d="M171.767 918c.776-2.924-3.245-7.59-6.06-8.975l-10.024-4.237a6.419 6.419 0 0 0-.657-.277l-7.115-3.008a7.2 7.2 0 0 0-9.259 3.452l-4.937 10.825a6.275 6.275 0 0 0 3.616 8.111l7.794 3.829 10.318 3.948 5.1 1.949 4.614-7.98s4.563-4.08 2.431-4.473z" transform="translate(-107.245 -724.852)"/>
                <path id="패스_6901" data-name="패스 6901" class="cls-5" d="M154.967 946.335a1.305 1.305 0 0 1-.546-.12l-22.887-10.524a7.585 7.585 0 0 1-3.993-9.933l4.808-10.206a1.31 1.31 0 1 1 2.37 1.116l-4.787 10.159a4.968 4.968 0 0 0 2.659 6.467l22.924 10.54a1.31 1.31 0 0 1-.548 2.5" transform="translate(-102.127 -736.01)"/>
                <path id="패스_6902" data-name="패스 6902" class="cls-5" d="M272.568 1058.893a9 9 0 0 1-3.435-.679l-4.654-1.917a1.31 1.31 0 1 1 1-2.422l4.654 1.917a6.543 6.543 0 0 0 8.442-3.409 1.31 1.31 0 1 1 2.4 1.049 9.185 9.185 0 0 1-8.405 5.462" transform="translate(-212.136 -846.07)"/>
                <path id="패스_6903" data-name="패스 6903" class="cls-5" d="M235.2 946.428a1.311 1.311 0 0 1-1.184-1.867l3.084-6.57a.68.68 0 0 1 .027-.054 7.861 7.861 0 0 1 10.429-3.549 1.31 1.31 0 0 1-1.156 2.35 5.253 5.253 0 0 0-6.942 2.394l-3.071 6.542a1.309 1.309 0 0 1-1.186.754" transform="translate(-188.18 -751.132)"/>
                <path id="패스_6904" data-name="패스 6904" class="cls-5" d="M180.962 922.951a1.31 1.31 0 0 1-.941-2.221l8.493-8.772c.644-1.99-3.51-5.553-6.7-7.13l-17.754-7.508a5.893 5.893 0 0 0-7.575 2.823 1.31 1.31 0 1 1-2.35-1.156 8.512 8.512 0 0 1 10.945-4.079l17.794 7.522.068.031a22.3 22.3 0 0 1 5.773 4.179c2.914 3.016 2.747 5.264 2.094 6.618a1.323 1.323 0 0 1-.239.342l-8.666 8.952a1.306 1.306 0 0 1-.941.4" transform="translate(-123.902 -719.464)"/>
                <path id="패스_6905" data-name="패스 6905" class="cls-5" d="M186.221 927.345a1.311 1.311 0 0 1-1.2-1.825l3.362-7.869.046-.1a8.068 8.068 0 0 1 10.6-3.532 1.31 1.31 0 1 1-1.156 2.35 5.429 5.429 0 0 0-7.1 2.357l-3.34 7.818a1.31 1.31 0 0 1-1.2.8" transform="translate(-148.772 -734.747)"/>
                <path id="패스_6906" data-name="패스 6906" class="cls-5" d="M278.864 625.886a1.31 1.31 0 0 1-.922-2.241c4.719-4.67 10.646-7.934 19.217-10.585a164.418 164.418 0 0 1 23.652-5.576 1.31 1.31 0 1 1 .4 2.589 161.921 161.921 0 0 0-23.277 5.489c-8.147 2.519-13.744 5.586-18.147 9.944a1.306 1.306 0 0 1-.922.379" transform="translate(-223.309 -488.744)"/>
                <path id="패스_6907" data-name="패스 6907" class="cls-11" d="m959.295 859.037 5.992-9.394a3.486 3.486 0 0 1 4.987-1.169l27.465 18.775a4.493 4.493 0 0 1-2.606 8.2l-12.6.812" transform="translate(-771.809 -682.163)"/>
                <path id="패스_6908" data-name="패스 6908" class="cls-5" d="M977.14 872.185a1.31 1.31 0 0 1-.083-2.617l12.6-.812h.1a3.183 3.183 0 0 0 1.846-5.81l-27.465-18.775a2.176 2.176 0 0 0-3.108.734.715.715 0 0 1-.036.059l-5.992 9.394a1.31 1.31 0 0 1-2.208-1.409l5.975-9.367a4.8 4.8 0 0 1 6.847-1.582l27.47 18.779a5.769 5.769 0 0 1 2.259 6.534 5.84 5.84 0 0 1-5.535 4.058h-.034l-12.55.809h-.086" transform="translate(-766.416 -676.778)"/>
                <path id="패스_6909" data-name="패스 6909" class="cls-11" d="m21.6 1152.29-10.728-.011a4.137 4.137 0 0 0-2.272 7.6l28.5 18.677a3.208 3.208 0 0 0 4.573-1.144l5.48-10.019" transform="translate(-5.413 -927.075)"/>
                <path id="패스_6910" data-name="패스 6910" class="cls-5" d="M33.452 1175a4.527 4.527 0 0 1-2.481-.739l-28.5-18.677a5.447 5.447 0 0 1 2.985-10h.006l10.728.01a1.31 1.31 0 0 1 0 2.62l-10.728-.01a2.828 2.828 0 0 0-1.549 5.192l28.5 18.677a1.9 1.9 0 0 0 2.706-.677l5.48-10.018a1.31 1.31 0 0 1 2.3 1.258l-5.48 10.018a4.516 4.516 0 0 1-3.967 2.346" transform="translate(0 -921.684)"/>
                <path id="패스_6911" data-name="패스 6911" class="cls-5" d="M82.1 947.961s13.612-34.555 53.223-36.467l77.076-2.068s21.4 13.749 41.8-10.906l24.33 18.38s-14.923 25.24-48.05 28.527c-15.41 1.529-38.56-3.481-53.986-4.823-47.522-4.135-54.551 10.109-69.344 23.28z" transform="translate(-66.053 -722.912)"/>
                <path id="패스_6912" data-name="패스 6912" class="cls-5" d="m100.633 958.106-26.8-17.027.4-1.006a62.284 62.284 0 0 1 12.022-17.935 61.07 61.07 0 0 1 42.356-19.361l77.508-2.079.34.218a28.013 28.013 0 0 0 12.723 3.592c10 .406 19.21-4.382 27.359-14.231l.8-.965 26.259 19.835-.6 1.007a59.234 59.234 0 0 1-11.88 13.36 67.21 67.21 0 0 1-37.169 15.8c-10.613 1.054-24.92-.961-37.543-2.738-6.049-.851-11.762-1.655-16.687-2.084-40.759-3.546-51 6.336-62.848 17.778-1.756 1.7-3.572 3.448-5.512 5.175zM77.1 940.048l23.264 14.783c1.631-1.48 3.188-2.983 4.7-4.443 11.8-11.392 22.946-22.155 64.895-18.5 4.993.434 10.74 1.243 16.825 2.1 12.478 1.757 26.62 3.747 36.918 2.726a64.823 64.823 0 0 0 46.416-26.914l-22.37-16.9c-6.078 7.029-15.811 14.8-28.808 14.215a30.722 30.722 0 0 1-13.538-3.781l-76.693 2.057a58.474 58.474 0 0 0-40.547 18.539A62.918 62.918 0 0 0 77.1 940.048" transform="translate(-59.405 -715.503)"/>
                <path id="패스_6913" data-name="패스 6913" class="cls-6" d="M712.678 600.915s2.746 14.228 3.916 26.8l.915 8.714 3.851-2.912a9.117 9.117 0 0 0 3.73-8.147c-.468-10.914-4.589-28.534-4.589-28.534z" transform="translate(-573.391 -480.19)"/>
                <path id="패스_6914" data-name="패스 6914" class="cls-5" d="M712.115 632.348a1.309 1.309 0 0 1-1.3-1.173l-.915-8.714c-1.152-12.377-3.872-26.548-3.9-26.69a1.31 1.31 0 0 1 .681-1.41l7.822-4.078a1.309 1.309 0 0 1 1.881.863c.169.724 4.155 17.865 4.623 28.776a10.425 10.425 0 0 1-4.249 9.248l-3.851 2.912a1.309 1.309 0 0 1-.79.265m-3.365-36.112c.633 3.418 2.765 15.344 3.754 25.967l.671 6.391 2-1.513a7.813 7.813 0 0 0 3.211-7.046c-.375-8.734-3.164-22.022-4.184-26.642z" transform="translate(-567.997 -474.798)"/>
                <path id="패스_6915" data-name="패스 6915" class="cls-3" d="M344.189 701.3c-1.006 4.429-2.155 9.941-3.042 15.462l-.184 2.792" transform="translate(-274.325 -564.24)"/>
                <path id="패스_6916" data-name="패스 6916" class="cls-5" d="M335.575 715.473h-.087a1.309 1.309 0 0 1-1.221-1.393l.184-2.792c0-.041.007-.081.013-.122.757-4.712 1.786-9.942 3.059-15.545a1.31 1.31 0 1 1 2.554.58c-1.255 5.524-2.269 10.678-3.016 15.319l-.18 2.73a1.31 1.31 0 0 1-1.305 1.224" transform="translate(-268.935 -558.845)"/>
                <path id="패스_6917" data-name="패스 6917" class="cls-5" d="M496.644 681.7a1.308 1.308 0 0 1-.836-.3l-6.079-5.035a1.31 1.31 0 1 1 1.671-2.017l5.278 4.371 5.408-4.116a1.31 1.31 0 0 1 1.587 2.084l-6.236 4.746a1.31 1.31 0 0 1-.793.268" transform="translate(-393.634 -542.306)"/>
                <path id="패스_6918" data-name="패스 6918" class="cls-4" d="m200.225 349.645-3.854-.569a12.356 12.356 0 0 1 3.608-24.448l3.854.569" transform="translate(-149.501 -261.074)"/>
                <path id="패스_6919" data-name="패스 6919" class="cls-5" d="M194.83 345.557a1.3 1.3 0 0 1-.193-.014l-3.854-.569a13.666 13.666 0 0 1 3.991-27.039l3.854.569a1.31 1.31 0 1 1-.383 2.591l-3.854-.569a11.046 11.046 0 1 0-3.225 21.856l3.854.569a1.31 1.31 0 0 1-.19 2.606" transform="translate(-144.104 -255.676)"/>
                <path id="패스_6920" data-name="패스 6920" class="cls-4" d="m810.439 374.979 4.246.627a12.768 12.768 0 0 0 14.5-10.767 12.768 12.768 0 0 0-10.767-14.5l-2.6-.384 1.535-10.4" transform="translate(-652.045 -273.194)"/>
                <path id="패스_6921" data-name="패스 6921" class="cls-5" d="M811.165 371.659a14.152 14.152 0 0 1-2.064-.152l-4.246-.627a1.31 1.31 0 1 1 .383-2.591l4.246.627a11.459 11.459 0 0 0 3.345-22.672l-2.6-.384a1.31 1.31 0 0 1-1.1-1.487l1.535-10.4a1.31 1.31 0 0 1 2.592.382l-1.344 9.106 1.3.192a14.079 14.079 0 0 1-2.046 28.006" transform="translate(-646.652 -267.799)"/>
                <path id="선_200" data-name="선 200" class="cls-3" transform="translate(160.386 89.054)" d="m0 0 5.915.873"/>
                <path id="패스_6922" data-name="패스 6922" class="cls-5" d="M821.154 452.444a1.323 1.323 0 0 1-.193-.014l-5.914-.873a1.31 1.31 0 1 1 .383-2.591l5.914.873a1.31 1.31 0 0 1-.19 2.606" transform="translate(-654.853 -361.206)"/>
                <path id="패스_6923" data-name="패스 6923" class="cls-4" d="m371.256 132.565-4.818 32.646a50.458 50.458 0 0 1-57.116 42.426l-9.012-1.33a50.458 50.458 0 0 1-42.426-57.116l5.377-37.558 57.363-24.419" transform="translate(-207.049 -70.169)"/>
                <path id="패스_6924" data-name="패스 6924" class="cls-5" d="M311.291 204.1a51.81 51.81 0 0 1-7.569-.557l-9.012-1.33a51.678 51.678 0 0 1-43.531-58.6l5.376-37.553a1.309 1.309 0 0 1 .783-1.019L314.7 80.618a1.31 1.31 0 0 1 1.026 2.41l-56.684 24.13-5.272 36.828a49.057 49.057 0 0 0 41.321 55.634l9.012 1.33a49.056 49.056 0 0 0 55.628-41.321l4.818-32.646a1.31 1.31 0 0 1 2.592.382l-4.818 32.646a51.7 51.7 0 0 1-51.032 44.089" transform="translate(-201.64 -64.777)"/>
                <path id="패스_6925" data-name="패스 6925" class="cls-5" d="M332.575 64.25c-10.363-8.8-16.506-10.447-24.841-23.593 0 0-.759 12.3-42.7 15.9-10.426.9-21.357 7.395-23.569 11.385 0 0-12.971-13.751-4.908-29.346a24.267 24.267 0 0 1 11.307-10.7c4.787-2.252 12.49-6.028 19.519-10.148 16.349-9.582 34.829-19.132 52.51.024 0 0 26.648-9.929 37.064 19.775 0 0 4.553 12.94 5.554 21.3 1.116 9.314-4.575 21.214-14.349 28.2a.938.938 0 0 1-1.576-.473c-1.707-6.46-3.177-10.938-8.291-17.065a45.665 45.665 0 0 0-5.723-5.261" transform="translate(-188.201 -5.391)"/>
                <path id="패스_6926" data-name="패스 6926" class="cls-5" d="M342.148 83.221a2.179 2.179 0 0 1-.74-.129 2.23 2.23 0 0 1-1.386-1.574c-1.67-6.318-3.043-10.586-8.03-16.561a33.6 33.6 0 0 0-4.42-4.143c-.383-.319-.766-.637-1.145-.959-2.978-2.529-5.558-4.428-8.054-6.263-5.675-4.175-10.25-7.541-15.675-15.535a16.464 16.464 0 0 1-5.174 4.905c-7.391 4.8-20.067 7.995-37.677 9.507-9.943.854-20.525 7.089-22.535 10.715l-.869 1.567-1.229-1.3C235.078 63.3 221.7 48.835 230.1 32.6a25.7 25.7 0 0 1 11.913-11.284c5.071-2.386 12.556-6.073 19.415-10.093 8.3-4.864 17.16-9.714 26.244-10.933 10.268-1.377 19.207 2.085 27.311 10.581 2.858-.878 12.432-3.224 21.863 1.2 7.277 3.412 12.679 10.023 16.055 19.65.187.533 4.611 13.171 5.619 21.578 1.2 10.023-5.06 22.4-14.888 29.423a2.549 2.549 0 0 1-1.478.5m-14.032-25.363c.373.316.749.63 1.125.943A36.051 36.051 0 0 1 334 63.279c5.185 6.213 6.76 10.853 8.42 17.075 8.926-6.561 14.57-17.732 13.49-26.744-.973-8.123-5.444-20.893-5.489-21.022-3.135-8.939-8.079-15.044-14.7-18.147-10.033-4.7-20.571-.875-20.676-.836l-.824.307-.6-.646C306 4.994 297.619 1.6 288.016 2.888c-8.6 1.154-17.2 5.868-25.268 10.6-6.943 4.069-14.5 7.795-19.624 10.2a23.062 23.062 0 0 0-10.7 10.117c-6.284 12.154.839 23.04 3.663 26.624 3.892-4.492 14.173-9.766 23.538-10.57 39.721-3.411 41.492-14.6 41.505-14.711l.249-4.034 2.162 3.448c5.78 9.116 10.46 12.56 16.386 16.919 2.414 1.776 5.15 3.789 8.2 6.377" transform="translate(-182.901 .002)"/>
                <path id="패스_6927" data-name="패스 6927" class="cls-5" d="M460.682 388.488a3.175 3.175 0 1 1-2.677-3.6 3.175 3.175 0 0 1 2.677 3.6" transform="translate(-365.564 -309.634)"/>
                <path id="패스_6928" data-name="패스 6928" class="cls-5" d="M455.392 389.564a3.761 3.761 0 0 1-.548-.04 3.687 3.687 0 1 1 .548.04m-.013-6.351a2.659 2.659 0 1 0 .392.029 2.634 2.634 0 0 0-.392-.029" transform="translate(-363.407 -307.473)"/>
                <path id="패스_6929" data-name="패스 6929" class="cls-5" d="M595.4 408.556a3.175 3.175 0 1 1-2.677-3.6 3.175 3.175 0 0 1 2.677 3.6" transform="translate(-473.953 -325.78)"/>
                <path id="패스_6930" data-name="패스 6930" class="cls-5" d="M590.1 409.636a3.729 3.729 0 0 1-.543-.04 3.7 3.7 0 1 1 .543.04m0-6.35a2.653 2.653 0 1 0 .388.029 2.656 2.656 0 0 0-.388-.029" transform="translate(-471.794 -323.623)"/>
                <path id="패스_6931" data-name="패스 6931" class="cls-5" d="m468.883 469.581-1.289 9.9a16.831 16.831 0 0 1-33.3-4.914l1.289-9.9a3.13 3.13 0 0 1 3.554-2.64l27.108 4a3.13 3.13 0 0 1 2.64 3.554" transform="translate(-349.269 -371.7)"/>
                <path id="패스_6932" data-name="패스 6932" class="cls-5" d="M445.559 489.773a18.248 18.248 0 0 1-2.664-.2 18.191 18.191 0 0 1-15.3-20.595l1.286-9.875a4.453 4.453 0 0 1 5.043-3.766l27.108 4a4.439 4.439 0 0 1 3.745 5.029l-1.287 9.887a18.209 18.209 0 0 1-17.934 15.516m-12.281-31.86a1.823 1.823 0 0 0-1.8 1.555l-1.286 9.875A15.521 15.521 0 0 0 460.9 473.9l1.289-9.9a1.821 1.821 0 0 0-1.535-2.066l-27.108-4a1.815 1.815 0 0 0-.267-.02" transform="translate(-343.87 -366.31)"/>
                <path id="패스_6933" data-name="패스 6933" class="cls-3" d="m479.6 471.2-.454 3.075a4.529 4.529 0 0 1-5.127 3.808l-20.135-2.972a4.529 4.529 0 0 1-3.808-5.126l.454-3.075a2.175 2.175 0 0 1 2.47-1.831l24.767 3.655a2.175 2.175 0 0 1 1.833 2.466" transform="translate(-362.073 -374.164)"/>
                <path id="패스_6934" data-name="패스 6934" class="cls-5" d="M469.29 474.051a5.879 5.879 0 0 1-.857-.063l-20.133-2.972a5.838 5.838 0 0 1-4.912-6.613l.454-3.075a3.489 3.489 0 0 1 3.956-2.938l24.768 3.655A3.489 3.489 0 0 1 475.5 466l-.454 3.075a5.844 5.844 0 0 1-5.757 4.976m-22-13.079a.866.866 0 0 0-.855.739l-.454 3.075a3.219 3.219 0 0 0 2.7 3.639l20.136 2.971a3.218 3.218 0 0 0 3.639-2.7l.454-3.075a.865.865 0 0 0-.729-.982l-24.767-3.655a.9.9 0 0 0-.126-.009" transform="translate(-356.678 -368.771)"/>
                <path id="선_201" data-name="선 201" class="cls-3" transform="translate(45.154 75.258)" d="m0 0 5.167.763"/>
                <path id="패스_6935" data-name="패스 6935" class="cls-5" d="M230.812 381.746a1.292 1.292 0 0 1-.193-.014l-5.168-.762a1.31 1.31 0 1 1 .383-2.591l5.168.763a1.31 1.31 0 0 1-.19 2.606" transform="translate(-180.489 -304.415)"/>
                <g id="그룹_5101" data-name="그룹 5101" transform="translate(70.027 9.774)" style="opacity:.39">
                    <g id="그룹_5100" data-name="그룹 5100">
                        <g id="그룹_5099" data-name="그룹 5099" style="clip-path:url(#clip-path-3)">
                            <path id="패스_6936" data-name="패스 6936" class="cls-3" d="M408.55 63.893a2.2 2.2 0 0 1-.864-4.076c.987-.578 1.949-1.158 2.9-1.73 5.336-3.211 10.377-6.244 17.651-8.014a2.2 2.2 0 0 1 1.039 4.267c-6.623 1.612-11.384 4.477-16.425 7.511-.966.581-1.942 1.169-2.944 1.755a2.183 2.183 0 0 1-1.357.288" transform="translate(-397.16 -50.009)"/>
                            <path id="패스_6937" data-name="패스 6937" class="cls-3" d="M363.3 122.785a2.509 2.509 0 1 1-2.209-2.776 2.509 2.509 0 0 1 2.209 2.776" transform="translate(-358.3 -106.315)"/>
                        </g>
                    </g>
                </g>
                <g id="그룹_5104" data-name="그룹 5104" class="cls-14" transform="translate(57.72 79.968)">
                    <g id="그룹_5103" data-name="그룹 5103">
                        <g id="그룹_5102" data-name="그룹 5102" class="cls-15">
                            <path id="패스_6938" data-name="패스 6938" class="cls-16" d="M318.128 416.2c-.351 3.086-5.735 5.007-12.025 4.291s-11.1-3.8-10.753-6.883 5.735-5.007 12.025-4.291 11.1 3.8 10.753 6.883" transform="translate(-295.332 -409.163)"/>
                        </g>
                    </g>
                </g>
                <g id="그룹_5107" data-name="그룹 5107" class="cls-14" transform="translate(125.256 87.652)">
                    <g id="그룹_5106" data-name="그룹 5106">
                        <g id="그룹_5105" data-name="그룹 5105" class="cls-15">
                            <path id="패스_6939" data-name="패스 6939" class="cls-16" d="M663.683 455.51c-.351 3.086-5.735 5.007-12.025 4.291s-11.1-3.8-10.753-6.883 5.735-5.007 12.025-4.291 11.1 3.8 10.753 6.883" transform="translate(-640.887 -448.478)"/>
                        </g>
                    </g>
                </g>
                <path id="패스_6940" data-name="패스 6940" class="cls-5" d="M453.155 331.484a2.353 2.353 0 0 1-1.822-.859 5.957 5.957 0 0 0-5.166-1.777 2.358 2.358 0 1 1-.45-4.694 10.549 10.549 0 0 1 9.257 3.474 2.358 2.358 0 0 1-1.819 3.856" transform="translate(-356.89 -260.754)"/>
                <path id="패스_6941" data-name="패스 6941" class="cls-5" d="M588.223 348.5a2.358 2.358 0 0 1-1.5-4.182 10.548 10.548 0 0 1 9.756-1.605 2.358 2.358 0 0 1-1.356 4.516 5.953 5.953 0 0 0-5.413.737 2.349 2.349 0 0 1-1.492.533" transform="translate(-471.362 -275.314)"/>
                <path id="패스_6942" data-name="패스 6942" class="cls-5" d="M900.674 376.178a1.306 1.306 0 0 1-.959-.417l-4.09-4.395a1.31 1.31 0 1 1 1.918-1.784l4.09 4.394a1.31 1.31 0 0 1-.958 2.2" transform="translate(-720.3 -297.014)"/>
                <path id="패스_6943" data-name="패스 6943" class="cls-5" d="M953.483 355.688h-.048a1.309 1.309 0 0 1-1.262-1.356l.215-6a1.31 1.31 0 1 1 2.617.094l-.216 6a1.309 1.309 0 0 1-1.308 1.263" transform="translate(-766.078 -279.238)"/>
                <path id="패스_6944" data-name="패스 6944" class="cls-5" d="M988.738 379.167a1.31 1.31 0 0 1-.893-2.268l4.394-4.09a1.31 1.31 0 1 1 1.785 1.917l-4.394 4.09a1.305 1.305 0 0 1-.892.351" transform="translate(-794.443 -299.663)"/>
                <path id="패스_6945" data-name="패스 6945" class="cls-5" d="M67.893 511.744a1.31 1.31 0 0 1-1.208-.805l-3.285-7.873-7.873-3.288a1.31 1.31 0 0 1 0-2.417l7.873-3.288 3.288-7.873a1.309 1.309 0 0 1 2.417 0l3.289 7.873 7.873 3.288a1.31 1.31 0 0 1 0 2.417l-7.873 3.288-3.294 7.873a1.31 1.31 0 0 1-1.208.805m-8.466-13.174 5.476 2.287a1.309 1.309 0 0 1 .7.7l2.287 5.475 2.287-5.475a1.31 1.31 0 0 1 .7-.7l5.476-2.287-5.476-2.287a1.309 1.309 0 0 1-.7-.7l-2.283-5.483-2.287 5.476a1.308 1.308 0 0 1-.7.7z" transform="translate(-44.025 -390.528)"/>
            </g>
        </g>
    </g>
</svg>
