<svg xmlns="http://www.w3.org/2000/svg" width="107" height="107" viewBox="0 0 107 107">
    <defs>
        <clipPath id="clip-path">
            <path id="사각형_3099" data-name="사각형 3099" style="stroke-width:2.5px;stroke:#707070;fill:none" d="M0 0h69.733v79.549H0z"/>
        </clipPath>
        <style>
            .cls-4{fill:none;stroke-width:2.5px}.cls-3{clip-path:url(#clip-path)}.cls-4{stroke:#5b5652;stroke-linecap:round;stroke-linejoin:round}
        </style>
    </defs>
    <g id="icon" transform="translate(-934 -1350)">
        <g id="그룹_5236" data-name="그룹 5236" transform="translate(953 1364)">
            <path id="사각형_3097" data-name="사각형 3097" transform="translate(.984 .984)" style="fill:#eaeaea;stroke-width:2.5px;stroke:#707070" d="M0 0h55.263v67.348H0z"/>
            <g id="그룹_5233" data-name="그룹 5233">
                <g id="그룹_5232" data-name="그룹 5232" class="cls-3">
                    <path id="사각형_3098" data-name="사각형 3098" class="cls-4" transform="translate(.984 .984)" d="M0 0h55.263v67.348H0z"/>
                </g>
            </g>
            <path id="패스_7247" data-name="패스 7247" d="M56.829 81.6h-39.7V14.25h55.265v52.013z" transform="translate(-3.646 -3.033)" style="fill:#fff;stroke-width:2.5px;stroke:#707070"/>
            <g id="그룹_5235" data-name="그룹 5235">
                <g id="그룹_5234" data-name="그룹 5234" class="cls-3">
                    <path id="패스_7248" data-name="패스 7248" class="cls-4" d="M56.829 81.6h-39.7V14.25h55.265v52.013z" transform="translate(-3.646 -3.033)"/>
                    <path id="패스_7249" data-name="패스 7249" class="cls-4" d="M67.56 95.589V80h15.566" transform="translate(-14.378 -17.024)"/>
                </g>
            </g>
            <path id="선_226" data-name="선 226" class="cls-4" transform="translate(20.86 22.112)" d="M0 0h40.106"/>
            <path id="선_227" data-name="선 227" class="cls-4" transform="translate(20.86 28.596)" d="M0 0h40.106"/>
            <path id="선_228" data-name="선 228" class="cls-4" transform="translate(20.86 35.08)" d="M0 0h40.106"/>
            <path id="선_229" data-name="선 229" class="cls-4" transform="translate(40.913 42.541)" d="M0 0h20.053"/>
            <path id="선_230" data-name="선 230" class="cls-4" transform="translate(40.913 49.026)" d="M0 0h20.053"/>
            <path id="선_231" data-name="선 231" class="cls-4" transform="translate(40.913 55.51)" d="M0 0h20.053"/>
            <path id="사각형_3101" data-name="사각형 3101" transform="translate(20.86 42.122)" style="fill:#caddff;stroke-width:2.5px;stroke:#707070" d="M0 0h15.512v15.512H0z"/>
            <path id="사각형_3102" data-name="사각형 3102" class="cls-4" transform="translate(20.86 42.122)" d="M0 0h15.512v15.512H0z"/>
        </g>
        <path id="사각형_3262" data-name="사각형 3262" transform="translate(934 1350)" style="fill:none" d="M0 0h107v107H0z"/>
    </g>
</svg>
