<svg xmlns="http://www.w3.org/2000/svg" width="107" height="107" viewBox="0 0 107 107">
    <defs>
        <clipPath id="clip-path">
            <path id="사각형_3204" data-name="사각형 3204" style="stroke-linecap:round;stroke-linejoin:round;stroke-width:2.5px;stroke:#707070;fill:none" d="M0 0h94.608v82.633H0z"/>
        </clipPath>
        <style>
            .cls-4{fill:none}.cls-5{stroke:#707070}.cls-4,.cls-5{stroke-linecap:round;stroke-linejoin:round;stroke-width:2.5px}.cls-4{stroke:#5b5652}.cls-5{fill:#fff}
        </style>
    </defs>
    <g id="icon" transform="translate(-257 -1350)">
        <g id="그룹_5292" data-name="그룹 5292" transform="translate(263 1362)" style="clip-path:url(#clip-path)">
            <path id="패스_7295" data-name="패스 7295" d="M83.775 20.534a6.075 6.075 0 0 0-6.044-6.075H29.13a6.093 6.093 0 0 0-6.075 6.075v36.45a6.093 6.093 0 0 0 6.075 6.075h42.526l12.15 12.151z" transform="translate(9.061 5.683)" style="fill:#eaeaea;stroke-linecap:round;stroke-linejoin:round;stroke-width:2.5px;stroke:#707070"/>
            <path id="패스_7296" data-name="패스 7296" class="cls-4" d="M83.775 20.534a6.075 6.075 0 0 0-6.044-6.075H29.13a6.093 6.093 0 0 0-6.075 6.075v36.45a6.093 6.093 0 0 0 6.075 6.075h42.526l12.15 12.151z" transform="translate(9.061 5.683)"/>
            <path id="패스_7297" data-name="패스 7297" class="cls-5" d="M1.25 62 13.4 49.851h42.526A6.1 6.1 0 0 0 62 43.776V7.325a6.1 6.1 0 0 0-6.074-6.075H7.325a6.075 6.075 0 0 0-6.044 6.075z" transform="translate(.491 .492)"/>
            <path id="패스_7298" data-name="패스 7298" class="cls-4" d="M1.25 62 13.4 49.851h42.526A6.1 6.1 0 0 0 62 43.776V7.325a6.1 6.1 0 0 0-6.074-6.075H7.325a6.075 6.075 0 0 0-6.044 6.075z" transform="translate(.491 .492)"/>
            <path id="패스_7299" data-name="패스 7299" class="cls-5" d="M16.744 19.883a3.106 3.106 0 1 1-3.106-3.106 3.106 3.106 0 0 1 3.106 3.106" transform="translate(4.139 6.594)"/>
            <circle id="타원_313" data-name="타원 313" class="cls-4" cx="3.106" cy="3.106" r="3.106" transform="translate(14.67 23.371)"/>
            <path id="패스_7300" data-name="패스 7300" class="cls-5" d="M27.519 19.883a3.106 3.106 0 1 1-3.106-3.106 3.106 3.106 0 0 1 3.106 3.106" transform="translate(8.374 6.594)"/>
            <circle id="타원_314" data-name="타원 314" class="cls-4" cx="3.106" cy="3.106" r="3.106" transform="translate(29.68 23.371)"/>
            <path id="패스_7301" data-name="패스 7301" class="cls-5" d="M38.294 19.883a3.106 3.106 0 1 1-3.106-3.106 3.106 3.106 0 0 1 3.106 3.106" transform="translate(12.608 6.594)"/>
            <circle id="타원_315" data-name="타원 315" class="cls-4" cx="3.106" cy="3.106" r="3.106" transform="translate(44.69 23.371)"/>
        </g>
        <path id="사각형_3264" data-name="사각형 3264" transform="translate(257 1350)" style="fill:none" d="M0 0h107v107H0z"/>
    </g>
</svg>
