<svg xmlns="http://www.w3.org/2000/svg" width="107" height="107" viewBox="0 0 107 107">
    <defs>
        <clipPath id="clip-path">
            <path id="사각형_2969" data-name="사각형 2969" class="cls-1" d="M0 0h57.123v74.487H0z"/>
        </clipPath>
        <style>
            .cls-1{fill:none}.cls-3{fill:#fff0e4}.cls-4{fill:#5b5652}
        </style>
    </defs>
    <g id="icon" transform="translate(-934 -1636)">
        <g id="그룹_5179" data-name="그룹 5179" transform="translate(959 1652)">
            <g id="그룹_5135" data-name="그룹 5135" style="clip-path:url(#clip-path)">
                <path id="패스_6970" data-name="패스 6970" class="cls-3" d="M14.227 104.6c.559 5.673 4.564 11.171 10.2 11.6 10.94.827 15.068.206 28.326-.138l3.209-.171c5.827-.242 8.861-5.181 8.611-11.007l.766-21.41a8.509 8.509 0 0 0 .044-1.224l.1-2.727q.109-3.028-.05-6.058l-.17-3.255a9.769 9.769 0 0 0-10.057-9.258c-9.806.3-24.336.85-29.512 1.566A13.071 13.071 0 0 0 14.388 74.8l-.008 1.022" transform="translate(-10.268 -43.99)"/>
                <path id="패스_6971" data-name="패스 6971" class="cls-4" d="M8.181 69.56a14.956 14.956 0 0 1 12.894-13.723c5.125-.709 18.985-1.252 29.71-1.583a11.7 11.7 0 0 1 11.977 11.025l.17 3.255c.107 2.061.125 4.154.05 6.221l-.095 2.659a10.465 10.465 0 0 1-.049 1.35l-.762 21.28a13.263 13.263 0 0 1-3.134 9.614 10.2 10.2 0 0 1-7.265 3.261l-3.186.17c-3.608.095-6.5.207-9.06.306a145.872 145.872 0 0 1-19.506-.171c-6.176-.467-10.319-5.82-11.581-11.249m1.146-4.034a1.864 1.864 0 0 1 2.23 1.644c.446 4.532 3.574 9.552 8.487 9.921a141.029 141.029 0 0 0 19.08.163c2.566-.1 5.475-.212 9.056-.3l3.158-.169a6.479 6.479 0 0 0 4.7-2.059 9.624 9.624 0 0 0 2.151-7.006v-.147l.766-21.41c0-.04 0-.081.008-.121a6.713 6.713 0 0 0 .037-.958v-.144l.1-2.727c.07-1.958.053-3.941-.049-5.894l-.17-3.255a7.949 7.949 0 0 0-8.144-7.497c-15.032.463-25.442 1.018-29.314 1.549a11.221 11.221 0 0 0-9.7 10.49l-.005.979a1.865 1.865 0 0 1-1.35 1.776" transform="translate(-5.904 -39.153)"/>
                <path id="패스_6972" data-name="패스 6972" class="cls-3" d="m156.015 145.815 5.236-.085c3.951.054 6.636-4.281 6.467-8.228" transform="translate(-112.601 -99.239)"/>
                <path id="패스_6973" data-name="패스 6973" class="cls-4" d="M150.448 142.691a1.865 1.865 0 0 1 .7-3.58l5.235-.086a3.8 3.8 0 0 0 2.789-1.236 7.113 7.113 0 0 0 1.845-5.048 1.865 1.865 0 1 1 3.726-.159 10.861 10.861 0 0 1-2.9 7.805 7.359 7.359 0 0 1-5.459 2.367l-5.18.086a1.859 1.859 0 0 1-.762-.149" transform="translate(-107.766 -94.4)"/>
                <path id="패스_6974" data-name="패스 6974" class="cls-3" d="M88.2 139.365c-.22 4.485 3.39 7.63 7.867 7.975l11-.18" transform="translate(-63.649 -100.584)"/>
                <path id="패스_6975" data-name="패스 6975" class="cls-4" d="M87.394 143.472a9.307 9.307 0 0 1-5.894-9.035 1.865 1.865 0 0 1 3.726.183c-.177 3.6 2.906 5.742 6.065 6.017l10.906-.178a1.865 1.865 0 0 1 .061 3.729l-11 .18q-.086 0-.174-.005a11.66 11.66 0 0 1-3.693-.89" transform="translate(-58.813 -95.748)"/>
                <path id="패스_6976" data-name="패스 6976" class="cls-3" d="m27.808 30.327-.124-14.19A10.3 10.3 0 0 0 17.339 6.7h-.274A10.437 10.437 0 0 0 6.7 17.025l.315 24.031L8.8 65.451" transform="translate(-4.837 -4.836)"/>
                <path id="패스_6977" data-name="패스 6977" class="cls-4" d="M1.447 37.936a1.865 1.865 0 0 1-1.132-1.691L0 12.214A12.371 12.371 0 0 1 12.212 0h.271A12.217 12.217 0 0 1 24.7 11.142c0 .048.006.095.007.142l.124 14.19a1.865 1.865 0 1 1-3.729.033l-.124-14.115a8.47 8.47 0 0 0-8.461-7.662h-.243a8.623 8.623 0 0 0-8.546 8.477L4.044 36.2a1.866 1.866 0 0 1-2.6 1.74" transform="translate(.001)"/>
                <path id="패스_6978" data-name="패스 6978" class="cls-4" d="M87.829 149.271a9.927 9.927 0 0 1-6.1-9.567l-.207-25.129v-.107a9.986 9.986 0 0 1 10.356-9.464l10.851.083a1.865 1.865 0 1 1-.029 3.73l-10.913-.084a6.262 6.262 0 0 0-6.537 5.868l.208 25.123v.106a6.345 6.345 0 0 0 6.017 6.539 1.865 1.865 0 0 1-.286 3.719 10.619 10.619 0 0 1-3.36-.818" transform="translate(-58.838 -75.779)"/>
                <path id="패스_6979" data-name="패스 6979" class="cls-4" d="M88.12 193.14a10.223 10.223 0 0 1-6.244-9.807 1.865 1.865 0 0 1 3.726.183 6.513 6.513 0 0 0 5.928 6.689l15.429-.822a4.954 4.954 0 0 0 4.823-5.165 1.865 1.865 0 0 1 3.726-.16 8.683 8.683 0 0 1-8.388 9.051l-15.52.827a1.906 1.906 0 0 1-.242 0 10.22 10.22 0 0 1-3.237-.793" transform="translate(-59.084 -131.037)"/>
                <path id="패스_6980" data-name="패스 6980" class="cls-4" d="M37.242 153.917a1.865 1.865 0 0 1 .749-3.581c3.561.034 6.279-.966 8.076-2.971 3.385-3.776 2.7-9.915 2.689-9.977a1.865 1.865 0 0 1 3.7-.441c.038.32.881 7.889-3.617 12.907-2.545 2.839-6.208 4.256-10.888 4.212a1.857 1.857 0 0 1-.715-.149" transform="translate(-26.061 -97.653)"/>
                <path id="패스_6981" data-name="패스 6981" class="cls-4" d="M3.226 156.862a194.383 194.383 0 0 1-2.143-26.7H4.84a189.8 189.8 0 0 0 2.091 26.073z" transform="translate(-.782 -93.944)"/>
            </g>
        </g>
        <path id="사각형_3261" data-name="사각형 3261" class="cls-1" transform="translate(934 1636)" d="M0 0h107v107H0z"/>
    </g>
</svg>
