<svg xmlns="http://www.w3.org/2000/svg" width="46.999" height="46.999" viewBox="0 0 46.999 46.999">
    <defs>
        <clipPath id="qa434bzvwa">
            <path data-name="사각형 3730" style="fill:none" d="M0 0h46.999v46.999H0z"/>
        </clipPath>
    </defs>
    <g data-name="그룹 5566">
        <path data-name="패스 7602" d="M10.548 1.531H2.31v43.317H31.7V1.531z" style="fill:#e5e5e4"/>
        <g data-name="그룹 5567">
            <g data-name="그룹 5566" style="clip-path:url(#qa434bzvwa)">
                <path data-name="패스 7603" d="M10.548 1.531H2.31v43.317H31.7V1.531z" style="stroke:#494440;stroke-linecap:round;stroke-linejoin:round;fill:none"/>
            </g>
        </g>
        <path data-name="사각형 3731" transform="translate(6.001 5.982)" style="fill:#bad0ec" d="M0 0h4.627v7.035H0z"/>
        <path data-name="사각형 3732" transform="translate(6.001 5.982)" style="stroke:#5d5d5d;fill:none" d="M0 0h4.627v7.035H0z"/>
        <path data-name="사각형 3733" transform="translate(6.001 5.982)" style="stroke:#494440;stroke-linecap:round;stroke-linejoin:round;fill:none" d="M0 0h4.627v7.035H0z"/>
        <path data-name="사각형 3734" transform="translate(14.692 5.982)" style="fill:#bad0ec" d="M0 0h4.627v7.035H0z"/>
        <path data-name="사각형 3735" transform="translate(14.692 5.982)" style="stroke:#5d5d5d;fill:none" d="M0 0h4.627v7.035H0z"/>
        <path data-name="사각형 3736" transform="translate(14.692 5.982)" style="stroke:#494440;stroke-linecap:round;stroke-linejoin:round;fill:none" d="M0 0h4.627v7.035H0z"/>
        <path data-name="사각형 3737" transform="translate(6.001 17.836)" style="fill:#bad0ec" d="M0 0h4.627v7.035H0z"/>
        <path data-name="사각형 3738" transform="translate(6.001 17.836)" style="stroke:#5d5d5d;fill:none" d="M0 0h4.627v7.035H0z"/>
        <path data-name="사각형 3739" transform="translate(6.001 17.836)" style="stroke:#494440;stroke-linecap:round;stroke-linejoin:round;fill:none" d="M0 0h4.627v7.035H0z"/>
        <path data-name="사각형 3740" transform="translate(14.692 17.836)" style="fill:#bad0ec" d="M0 0h4.627v7.035H0z"/>
        <path data-name="사각형 3741" transform="translate(14.692 17.836)" style="stroke:#5d5d5d;fill:none" d="M0 0h4.627v7.035H0z"/>
        <path data-name="사각형 3742" transform="translate(14.692 17.836)" style="stroke:#494440;stroke-linecap:round;stroke-linejoin:round;fill:none" d="M0 0h4.627v7.035H0z"/>
        <path data-name="사각형 3743" transform="translate(23.205 17.836)" style="fill:#bad0ec" d="M0 0h4.627v7.035H0z"/>
        <path data-name="사각형 3744" transform="translate(23.205 17.836)" style="stroke:#5d5d5d;fill:none" d="M0 0h4.627v7.035H0z"/>
        <path data-name="사각형 3745" transform="translate(23.205 17.836)" style="stroke:#494440;stroke-linecap:round;stroke-linejoin:round;fill:none" d="M0 0h4.627v7.035H0z"/>
        <path data-name="사각형 3746" transform="translate(23.205 5.982)" style="fill:#bad0ec" d="M0 0h4.627v7.035H0z"/>
        <path data-name="사각형 3747" transform="translate(23.205 5.982)" style="stroke:#5d5d5d;fill:none" d="M0 0h4.627v7.035H0z"/>
        <path data-name="사각형 3748" transform="translate(23.205 5.982)" style="stroke:#494440;stroke-linecap:round;stroke-linejoin:round;fill:none" d="M0 0h4.627v7.035H0z"/>
        <path data-name="사각형 3749" transform="translate(11.625 31.173)" style="fill:#5d5d5d" d="M0 0h11.619v13.676H0z"/>
        <path data-name="사각형 3750" transform="translate(11.625 31.173)" style="stroke:#484440;fill:none" d="M0 0h11.619v13.676H0z"/>
        <path data-name="사각형 3751" transform="translate(31.7 22.724)" style="fill:#e5e5e4" d="M0 0h13.283v22.125H0z"/>
        <path data-name="사각형 3752" transform="translate(31.7 22.724)" style="stroke:#494440;stroke-linecap:round;stroke-linejoin:round;fill:none" d="M0 0h13.283v22.125H0z"/>
        <path data-name="사각형 3753" transform="translate(34.824 25.653)" style="fill:#bad0ec" d="M0 0h7.035v4.627H0z"/>
        <path data-name="사각형 3754" transform="translate(34.824 25.653)" style="stroke:#5d5d5d;fill:none" d="M0 0h7.035v4.627H0z"/>
        <path data-name="사각형 3755" transform="translate(34.824 25.653)" style="stroke:#494440;stroke-linecap:round;stroke-linejoin:round;fill:none" d="M0 0h7.035v4.627H0z"/>
        <path data-name="사각형 3756" transform="translate(34.824 33.241)" style="fill:#bad0ec" d="M0 0h7.035v4.627H0z"/>
        <path data-name="사각형 3757" transform="translate(34.824 33.241)" style="stroke:#5d5d5d;fill:none" d="M0 0h7.035v4.627H0z"/>
        <path data-name="사각형 3758" transform="translate(34.824 33.241)" style="stroke:#494440;stroke-linecap:round;stroke-linejoin:round;fill:none" d="M0 0h7.035v4.627H0z"/>
    </g>
</svg>
