<svg xmlns="http://www.w3.org/2000/svg" width="40.948" height="47.047" viewBox="0 0 40.948 47.047">
    <defs>
        <clipPath id="mcrcuovrza">
            <path data-name="사각형 3074" style="stroke:#707070;fill:none" d="M0 0h40.948v47.047H0z"/>
        </clipPath>
    </defs>
    <path data-name="패스 7209" d="M9.292 1.25H1.25v42.285h28.69V1.25z" transform="translate(-.702 -.702)" style="fill:#eaeaea;stroke:#707070"/>
    <g data-name="그룹 5215">
        <g data-name="그룹 5214" style="clip-path:url(#mcrcuovrza)">
            <path data-name="패스 7210" d="M9.292 1.25H1.25v42.285h28.69V1.25z" transform="translate(-.702 -.702)" style="stroke:#5b5652;stroke-linecap:round;stroke-linejoin:round;fill:none"/>
        </g>
    </g>
    <path data-name="사각형 3075" transform="translate(4.151 4.892)" style="fill:#caddff;stroke:#707070" d="M0 0h4.517v6.868H0z"/>
    <path data-name="사각형 3076" transform="translate(4.151 4.892)" style="stroke:#5b5652;stroke-linecap:round;stroke-linejoin:round;fill:none" d="M0 0h4.517v6.868H0z"/>
    <path data-name="사각형 3077" transform="translate(12.635 4.892)" style="fill:#caddff;stroke:#707070" d="M0 0h4.517v6.868H0z"/>
    <path data-name="사각형 3078" transform="translate(12.635 4.892)" style="stroke:#5b5652;stroke-linecap:round;stroke-linejoin:round;fill:none" d="M0 0h4.517v6.868H0z"/>
    <path data-name="사각형 3079" transform="translate(4.151 16.463)" style="fill:#caddff;stroke:#707070" d="M0 0h4.517v6.868H0z"/>
    <path data-name="사각형 3080" transform="translate(4.151 16.463)" style="stroke:#5b5652;stroke-linecap:round;stroke-linejoin:round;fill:none" d="M0 0h4.517v6.868H0z"/>
    <path data-name="사각형 3081" transform="translate(12.635 16.463)" style="fill:#caddff;stroke:#707070" d="M0 0h4.517v6.868H0z"/>
    <path data-name="사각형 3082" transform="translate(12.635 16.463)" style="stroke:#5b5652;stroke-linecap:round;stroke-linejoin:round;fill:none" d="M0 0h4.517v6.868H0z"/>
    <path data-name="사각형 3083" transform="translate(9.64 29.585)" style="fill:#5b5652;stroke:#707070" d="M0 0h11.342v13.35H0z"/>
    <path data-name="사각형 3084" transform="translate(9.64 29.585)" style="stroke:#5b5652;stroke-linecap:round;stroke-linejoin:round;fill:none" d="M0 0h11.342v13.35H0z"/>
    <path data-name="사각형 3085" transform="translate(20.944 4.892)" style="fill:#caddff;stroke:#707070" d="M0 0h4.517v6.868H0z"/>
    <path data-name="사각형 3086" transform="translate(20.944 4.892)" style="stroke:#5b5652;stroke-linecap:round;stroke-linejoin:round;fill:none" d="M0 0h4.517v6.868H0z"/>
    <path data-name="사각형 3087" transform="translate(20.982 17.952)" style="fill:#e8e589;stroke:#707070" d="M0 0h19.419v20.346H0z"/>
    <g data-name="그룹 5217">
        <g data-name="그룹 5216" style="clip-path:url(#mcrcuovrza)">
            <path data-name="사각형 3088" transform="translate(20.982 17.952)" style="stroke:#5b5652;stroke-linecap:round;stroke-linejoin:round;fill:none" d="M0 0h19.419v20.346H0z"/>
            <path data-name="패스 7211" d="M67.3 82.7c0 2.025-4.347 3.666-9.709 3.666s-9.71-1.641-9.71-3.666 4.347-3.666 9.71-3.666S67.3 80.675 67.3 82.7" transform="translate(-26.9 -44.402)" style="fill:#e8e589;stroke:#707070"/>
            <path data-name="패스 7212" d="M67.3 82.7c0 2.025-4.347 3.666-9.709 3.666s-9.71-1.641-9.71-3.666 4.347-3.666 9.71-3.666S67.3 80.675 67.3 82.7z" transform="translate(-26.9 -44.402)" style="stroke:#5b5652;stroke-linecap:round;stroke-linejoin:round;fill:none"/>
            <path data-name="패스 7213" d="M67.3 76.9c0 2.025-4.347 3.666-9.709 3.666s-9.71-1.641-9.71-3.666 4.347-3.666 9.71-3.666S67.3 74.871 67.3 76.9" transform="translate(-26.9 -41.141)" style="fill:#e8e589;stroke:#707070"/>
            <path data-name="패스 7214" d="M67.3 76.9c0 2.025-4.347 3.666-9.709 3.666s-9.71-1.641-9.71-3.666 4.347-3.666 9.71-3.666S67.3 74.871 67.3 76.9z" transform="translate(-26.9 -41.141)" style="stroke:#5b5652;stroke-linecap:round;stroke-linejoin:round;fill:none"/>
            <path data-name="패스 7215" d="M67.3 71.092c0 2.025-4.347 3.666-9.709 3.666s-9.71-1.641-9.71-3.666 4.347-3.666 9.71-3.666 9.709 1.641 9.709 3.666" transform="translate(-26.9 -37.88)" style="fill:#e8e589;stroke:#707070"/>
            <path data-name="패스 7216" d="M67.3 71.092c0 2.025-4.347 3.666-9.709 3.666s-9.71-1.641-9.71-3.666 4.347-3.666 9.71-3.666 9.709 1.641 9.709 3.666z" transform="translate(-26.9 -37.88)" style="stroke:#5b5652;stroke-linecap:round;stroke-linejoin:round;fill:none"/>
            <path data-name="패스 7217" d="M67.3 65.288c0 2.025-4.347 3.666-9.709 3.666s-9.71-1.641-9.71-3.666 4.347-3.666 9.71-3.666 9.709 1.641 9.709 3.666" transform="translate(-26.9 -34.619)" style="fill:#e8e589;stroke:#707070"/>
            <path data-name="패스 7218" d="M67.3 65.288c0 2.025-4.347 3.666-9.709 3.666s-9.71-1.641-9.71-3.666 4.347-3.666 9.71-3.666 9.709 1.641 9.709 3.666z" transform="translate(-26.9 -34.619)" style="stroke:#5b5652;stroke-linecap:round;stroke-linejoin:round;fill:none"/>
            <path data-name="패스 7219" d="M67.3 59.484c0 2.025-4.347 3.666-9.709 3.666s-9.71-1.641-9.71-3.666 4.347-3.666 9.71-3.666 9.709 1.641 9.709 3.666" transform="translate(-26.9 -31.359)" style="fill:#e8e589;stroke:#707070"/>
            <path data-name="패스 7220" d="M67.3 59.484c0 2.025-4.347 3.666-9.709 3.666s-9.71-1.641-9.71-3.666 4.347-3.666 9.71-3.666 9.709 1.641 9.709 3.666z" transform="translate(-26.9 -31.359)" style="stroke:#5b5652;stroke-linecap:round;stroke-linejoin:round;fill:none"/>
            <path data-name="패스 7221" d="M67.3 53.681c0 2.025-4.347 3.666-9.709 3.666s-9.71-1.641-9.71-3.666 4.347-3.666 9.71-3.666 9.709 1.641 9.709 3.666" transform="translate(-26.9 -28.099)" style="fill:#e8e589;stroke:#707070"/>
            <path data-name="패스 7222" d="M67.3 53.681c0 2.025-4.347 3.666-9.709 3.666s-9.71-1.641-9.71-3.666 4.347-3.666 9.71-3.666 9.709 1.641 9.709 3.666z" transform="translate(-26.9 -28.099)" style="stroke:#5b5652;stroke-linecap:round;stroke-linejoin:round;fill:none"/>
            <path data-name="패스 7223" d="M67.3 47.877c0 2.025-4.347 3.666-9.709 3.666s-9.71-1.641-9.71-3.666 4.347-3.666 9.71-3.666 9.709 1.641 9.709 3.666" transform="translate(-26.9 -24.838)" style="fill:#e8e589;stroke:#707070"/>
            <path data-name="패스 7224" d="M67.3 47.877c0 2.025-4.347 3.666-9.709 3.666s-9.71-1.641-9.71-3.666 4.347-3.666 9.71-3.666 9.709 1.641 9.709 3.666z" transform="translate(-26.9 -24.838)" style="stroke:#5b5652;stroke-linecap:round;stroke-linejoin:round;fill:none"/>
            <path data-name="패스 7225" d="M67.3 42.073c0 2.025-4.347 3.666-9.709 3.666s-9.71-1.641-9.71-3.666 4.347-3.666 9.71-3.666 9.709 1.641 9.709 3.666" transform="translate(-26.9 -21.577)" style="fill:#e8e589;stroke:#707070"/>
            <path data-name="패스 7226" d="M67.3 42.073c0 2.025-4.347 3.666-9.709 3.666s-9.71-1.641-9.71-3.666 4.347-3.666 9.71-3.666 9.709 1.641 9.709 3.666z" transform="translate(-26.9 -21.577)" style="stroke:#5b5652;stroke-linecap:round;stroke-linejoin:round;fill:none"/>
            <path data-name="패스 7227" d="M67.3 36.269c0 2.025-4.347 3.666-9.709 3.666s-9.71-1.641-9.71-3.666 4.347-3.666 9.71-3.666 9.709 1.641 9.709 3.666" transform="translate(-26.9 -18.316)" style="fill:#e8e589;stroke:#707070"/>
            <path data-name="패스 7228" d="M67.3 36.269c0 2.025-4.347 3.666-9.709 3.666s-9.71-1.641-9.71-3.666 4.347-3.666 9.71-3.666 9.709 1.641 9.709 3.666z" transform="translate(-26.9 -18.316)" style="stroke:#5b5652;stroke-linecap:round;stroke-linejoin:round;fill:none"/>
            <path data-name="사각형 3089" transform="translate(14.304 35.203)" style="fill:#e8e589;stroke:#707070" d="M0 0h19.419v7.629H0z"/>
            <path data-name="사각형 3090" transform="translate(14.304 35.203)" style="stroke:#5b5652;stroke-linecap:round;stroke-linejoin:round;fill:none" d="M0 0h19.419v7.629H0z"/>
            <path data-name="패스 7229" d="M52.062 93.048c0 2.025-4.347 3.666-9.709 3.666s-9.71-1.641-9.71-3.666 4.347-3.666 9.71-3.666 9.709 1.641 9.709 3.666" transform="translate(-18.339 -50.215)" style="fill:#e8e589;stroke:#707070"/>
            <path data-name="패스 7230" d="M52.062 93.048c0 2.025-4.347 3.666-9.709 3.666s-9.71-1.641-9.71-3.666 4.347-3.666 9.71-3.666 9.709 1.641 9.709 3.666z" transform="translate(-18.339 -50.215)" style="stroke:#5b5652;stroke-linecap:round;stroke-linejoin:round;fill:none"/>
            <path data-name="패스 7231" d="M52.062 87.244c0 2.025-4.347 3.666-9.709 3.666s-9.71-1.641-9.71-3.666 4.347-3.666 9.71-3.666 9.709 1.641 9.709 3.666" transform="translate(-18.339 -46.954)" style="fill:#e8e589;stroke:#707070"/>
            <path data-name="패스 7232" d="M52.062 87.244c0 2.025-4.347 3.666-9.709 3.666s-9.71-1.641-9.71-3.666 4.347-3.666 9.71-3.666 9.709 1.641 9.709 3.666z" transform="translate(-18.339 -46.954)" style="stroke:#5b5652;stroke-linecap:round;stroke-linejoin:round;fill:none"/>
            <path data-name="패스 7233" d="M52.062 81.44c0 2.025-4.347 3.666-9.709 3.666s-9.71-1.641-9.71-3.666 4.347-3.666 9.71-3.666 9.709 1.641 9.709 3.666" transform="translate(-18.339 -43.694)" style="fill:#e8e589;stroke:#707070"/>
            <path data-name="패스 7234" d="M52.062 81.44c0 2.025-4.347 3.666-9.709 3.666s-9.71-1.641-9.71-3.666 4.347-3.666 9.71-3.666 9.709 1.641 9.709 3.666z" transform="translate(-18.339 -43.694)" style="stroke:#5b5652;stroke-linecap:round;stroke-linejoin:round;fill:none"/>
            <path data-name="패스 7235" d="M52.062 75.636c0 2.025-4.347 3.666-9.709 3.666s-9.71-1.641-9.71-3.666 4.347-3.666 9.71-3.666 9.709 1.641 9.709 3.666" transform="translate(-18.339 -40.433)" style="fill:#e8e589;stroke:#707070"/>
            <path data-name="패스 7236" d="M52.062 75.636c0 2.025-4.347 3.666-9.709 3.666s-9.71-1.641-9.71-3.666 4.347-3.666 9.71-3.666 9.709 1.641 9.709 3.666z" transform="translate(-18.339 -40.433)" style="stroke:#5b5652;stroke-linecap:round;stroke-linejoin:round;fill:none"/>
        </g>
    </g>
</svg>
