<svg xmlns="http://www.w3.org/2000/svg" width="48" height="46.577" viewBox="0 0 48 46.577">
    <defs>
        <clipPath id="wnkn5kmgda">
            <path data-name="사각형 2868" style="fill:none" d="M0 0h48v46.577H0z"/>
        </clipPath>
        <clipPath id="xfmr6431vb">
            <path data-name="사각형 2864" style="fill:none" d="M0 0h11.297v6.25H0z"/>
        </clipPath>
        <clipPath id="8g52ten8gc">
            <path data-name="사각형 2865" style="fill:none" d="M0 0h7.627v3.836H0z"/>
        </clipPath>
    </defs>
    <g data-name="그룹 5123" style="clip-path:url(#wnkn5kmgda)">
        <g data-name="그룹 5122">
            <g data-name="그룹 5121" style="clip-path:url(#wnkn5kmgda)">
                <path data-name="패스 6946" d="m11.525 332.9-1.288-.19a4.131 4.131 0 0 1 1.206-8.173l1.288.19" transform="translate(-6.27 -303.293)" style="fill:#fff0e4"/>
                <path data-name="패스 6947" d="M5.256 327.07a.438.438 0 0 1-.064 0l-1.288-.19a4.569 4.569 0 0 1 1.334-9.039l1.288.19a.438.438 0 1 1-.128.866l-1.288-.19a3.693 3.693 0 1 0-1.078 7.307l1.288.19a.438.438 0 0 1-.063.871" transform="translate(0 -297.022)" style="fill:#5b5652"/>
                <path data-name="패스 6948" d="m631.33 351.4 1.42.21a4.269 4.269 0 0 0 4.846-3.6 4.269 4.269 0 0 0-3.6-4.846l-.869-.128.513-3.477" transform="translate(-590.08 -317.373)" style="fill:#fff0e4"/>
                <path data-name="패스 6949" d="M627.11 345.827a4.74 4.74 0 0 1-.69-.051l-1.42-.21a.438.438 0 1 1 .128-.866l1.42.21a3.831 3.831 0 0 0 1.118-7.579l-.869-.128a.438.438 0 0 1-.369-.5l.513-3.477a.438.438 0 0 1 .867.128l-.449 3.044.436.064a4.707 4.707 0 0 1-.684 9.363" transform="translate(-583.814 -311.105)" style="fill:#5b5652"/>
                <path data-name="선 202" transform="translate(41.916 29.772)" style="fill:#fff" d="m0 0 1.977.292"/>
                <path data-name="패스 6950" d="M637.235 450.119a.439.439 0 0 1-.064 0l-1.977-.292a.438.438 0 0 1 .128-.866l1.977.292a.438.438 0 0 1-.064.871" transform="translate(-593.341 -419.617)" style="fill:#5b5652"/>
                <path data-name="패스 6951" d="m116.318 102.376-1.611 10.914a16.869 16.869 0 0 1-19.094 14.183l-3.013-.445a16.869 16.869 0 0 1-14.184-19.094l1.8-12.556 19.177-8.163" transform="translate(-73.124 -81.516)" style="fill:#fff0e4"/>
                <path data-name="패스 6952" d="M91.8 121.83a17.323 17.323 0 0 1-2.53-.186l-3.013-.445A17.277 17.277 0 0 1 71.7 101.608l1.8-12.554a.438.438 0 0 1 .262-.341l19.177-8.164a.438.438 0 0 1 .343.806l-18.95 8.067-1.763 12.312a16.4 16.4 0 0 0 13.814 18.6l3.013.445a16.4 16.4 0 0 0 18.6-13.814l1.604-10.916a.438.438 0 0 1 .866.128l-1.611 10.914A17.284 17.284 0 0 1 91.8 121.83" transform="translate(-66.84 -75.254)" style="fill:#5b5652"/>
                <path data-name="패스 6953" d="M87.791 25.942c-3.464-2.942-5.518-3.492-8.3-7.887 0 0-.254 4.112-14.274 5.316-3.486.3-7.14 2.472-7.879 3.806 0 0-4.336-4.6-1.641-9.811a8.113 8.113 0 0 1 3.78-3.577c1.6-.753 4.176-2.015 6.525-3.393 5.466-3.2 11.644-6.4 17.555.008 0 0 8.909-3.319 12.391 6.611a43.608 43.608 0 0 1 1.852 7.121c.373 3.114-1.53 7.092-4.8 9.428a.314.314 0 0 1-.527-.158A12.674 12.674 0 0 0 89.7 27.7a15.263 15.263 0 0 0-1.913-1.759" transform="translate(-51.228 -6.265)" style="fill:#5b5652"/>
                <path data-name="패스 6954" d="M86.606 27.822a.728.728 0 0 1-.248-.043.746.746 0 0 1-.463-.526 12.216 12.216 0 0 0-2.684-5.536 11.234 11.234 0 0 0-1.478-1.385c-.128-.107-.256-.213-.383-.321-1-.845-1.858-1.48-2.693-2.094a18.838 18.838 0 0 1-5.24-5.194 5.5 5.5 0 0 1-1.73 1.64c-2.471 1.6-6.709 2.673-12.6 3.178-3.324.285-6.862 2.37-7.534 3.582l-.29.524-.411-.436c-.045-.048-4.517-4.886-1.711-10.312a8.591 8.591 0 0 1 3.983-3.773c1.7-.8 4.2-2.03 6.491-3.374C62.393 2.126 65.355.5 68.392.1c3.433-.46 6.421.7 9.13 3.537a10.579 10.579 0 0 1 7.309.4C87.264 5.176 89.07 7.386 90.2 10.6a43.407 43.407 0 0 1 1.878 7.214c.4 3.351-1.692 7.488-4.977 9.836a.852.852 0 0 1-.494.167m-4.689-8.479.376.315a12.051 12.051 0 0 1 1.59 1.5 12.911 12.911 0 0 1 2.816 5.71c2.984-2.193 4.871-5.928 4.51-8.941a43.42 43.42 0 0 0-1.835-7.028c-1.048-2.989-2.7-5.029-4.913-6.067a9.875 9.875 0 0 0-6.912-.28l-.275.1-.2-.216C74.52 1.67 71.719.534 68.508.965c-2.876.386-5.75 1.962-8.447 3.543-2.321 1.36-4.849 2.606-6.56 3.411a7.71 7.71 0 0 0-3.578 3.381c-2.1 4.063.281 7.7 1.225 8.9 1.3-1.5 4.738-3.265 7.869-3.534 13.279-1.14 13.871-4.88 13.876-4.918l.083-1.349.723 1.153a18.122 18.122 0 0 0 5.478 5.656c.807.594 1.722 1.267 2.74 2.132" transform="translate(-45.07 .001)" style="fill:#5b5652"/>
                <path data-name="패스 6955" d="M277.367 386.067a1.061 1.061 0 1 1-.9-1.2 1.061 1.061 0 0 1 .9 1.2" transform="translate(-257.271 -359.705)" style="fill:#5b5652"/>
                <path data-name="패스 6956" d="M273.815 384.639a1.238 1.238 0 0 1-1.226-1.417 1.236 1.236 0 1 1 1.226 1.417m0-2.123a.888.888 0 1 0 .131.01.9.9 0 0 0-.131-.01" transform="translate(-254.766 -357.195)" style="fill:#5b5652"/>
                <path data-name="패스 6957" d="M412.086 406.135a1.061 1.061 0 1 1-.9-1.205 1.061 1.061 0 0 1 .9 1.205" transform="translate(-383.188 -378.462)" style="fill:#5b5652"/>
                <path data-name="패스 6958" d="M408.529 404.712a1.248 1.248 0 0 1-.182-.013 1.236 1.236 0 1 1 .182.013m0-2.123a.887.887 0 1 0 .13.01.877.877 0 0 0-.13-.01" transform="translate(-380.679 -375.957)" style="fill:#5b5652"/>
                <path data-name="패스 6959" d="m266.627 464.531-.431 3.309a5.627 5.627 0 1 1-11.133-1.643l.431-3.309a1.046 1.046 0 0 1 1.188-.882l9.063 1.337a1.046 1.046 0 0 1 .882 1.188" transform="translate(-238.341 -431.808)" style="fill:#5b5652"/>
                <path data-name="패스 6960" d="M254.363 466.821a6.1 6.1 0 0 1-.89-.066 6.082 6.082 0 0 1-5.114-6.885l.43-3.3a1.489 1.489 0 0 1 1.686-1.259l9.063 1.337a1.484 1.484 0 0 1 1.252 1.681l-.43 3.305a6.088 6.088 0 0 1-6 5.187m-4.106-10.651a.609.609 0 0 0-.6.52l-.43 3.3a5.189 5.189 0 0 0 10.266 1.523l.431-3.309a.609.609 0 0 0-.513-.691l-9.063-1.337a.605.605 0 0 0-.089-.007" transform="translate(-232.07 -425.546)" style="fill:#5b5652"/>
                <path data-name="패스 6961" d="m280.8 467.112-.152 1.028a1.514 1.514 0 0 1-1.714 1.273l-6.732-.993a1.514 1.514 0 0 1-1.273-1.714l.152-1.028a.727.727 0 0 1 .826-.613l8.28 1.222a.727.727 0 0 1 .613.825" transform="translate(-253.216 -434.67)" style="fill:#fff"/>
                <path data-name="패스 6962" d="M272.894 463.6a1.958 1.958 0 0 1-.287-.021l-6.732-.993a1.952 1.952 0 0 1-1.642-2.211l.152-1.028a1.166 1.166 0 0 1 1.323-.982l8.28 1.222a1.166 1.166 0 0 1 .982 1.323l-.152 1.028a1.954 1.954 0 0 1-1.924 1.663m-7.356-4.373a.29.29 0 0 0-.286.247l-.152 1.025a1.076 1.076 0 0 0 .9 1.217l6.732.993a1.076 1.076 0 0 0 1.217-.9l.152-1.028a.289.289 0 0 0-.244-.328l-8.28-1.222a.3.3 0 0 0-.042 0" transform="translate(-246.949 -428.405)" style="fill:#5b5652"/>
                <path data-name="선 203" transform="translate(3.393 25.16)" style="fill:#fff" d="m0 0 1.728.255"/>
                <path data-name="패스 6963" d="M47.389 379.5a.447.447 0 0 1-.064 0l-1.728-.255a.438.438 0 1 1 .128-.866l1.728.255a.438.438 0 0 1-.063.871" transform="translate(-42.268 -353.644)" style="fill:#5b5652"/>
                <g data-name="그룹 5114" style="opacity:.39">
                    <g data-name="그룹 5113">
                        <g data-name="그룹 5112" style="clip-path:url(#xfmr6431vb)" transform="translate(11.708 3.268)">
                            <path data-name="패스 6964" d="M228.143 54.652a.734.734 0 0 1-.289-1.363c.33-.193.651-.387.97-.578a19.912 19.912 0 0 1 5.9-2.679.734.734 0 0 1 .347 1.426 18.731 18.731 0 0 0-5.491 2.511c-.323.194-.649.391-.984.587a.73.73 0 0 1-.454.1" transform="translate(-224.336 -50.01)" style="fill:#fff"/>
                            <path data-name="패스 6965" d="M180.862 120.927a.839.839 0 1 1-.739-.928.839.839 0 0 1 .739.928" transform="translate(-179.19 -115.421)" style="fill:#fff"/>
                        </g>
                    </g>
                </g>
                <g data-name="그룹 5117" style="opacity:.65">
                    <g data-name="그룹 5116">
                        <g data-name="그룹 5115" style="clip-path:url(#8g52ten8gc)" transform="translate(7.594 26.734)">
                            <path data-name="패스 6966" d="M123.844 411.515c-.117 1.032-1.917 1.674-4.02 1.435s-3.712-1.269-3.595-2.3 1.917-1.674 4.02-1.435 3.712 1.269 3.6 2.3" transform="translate(-116.223 -409.164)" style="fill:#fdc89d"/>
                        </g>
                    </g>
                </g>
                <g data-name="그룹 5120" style="opacity:.65">
                    <g data-name="그룹 5119">
                        <g data-name="그룹 5118" style="clip-path:url(#8g52ten8gc)" transform="translate(30.172 29.303)">
                            <path data-name="패스 6967" d="M469.4 450.83c-.117 1.032-1.917 1.674-4.02 1.435s-3.712-1.269-3.6-2.3 1.917-1.674 4.02-1.435 3.712 1.269 3.595 2.3" transform="translate(-461.777 -448.479)" style="fill:#fdc89d"/>
                        </g>
                    </g>
                </g>
                <path data-name="패스 6968" d="M267.676 326.566a.787.787 0 0 1-.609-.287 1.992 1.992 0 0 0-1.727-.594.788.788 0 0 1-.151-1.569 3.527 3.527 0 0 1 3.095 1.162.788.788 0 0 1-.608 1.289" transform="translate(-247.195 -302.92)" style="fill:#5b5652"/>
                <path data-name="패스 6969" d="M407.544 344.3a.788.788 0 0 1-.5-1.4 3.526 3.526 0 0 1 3.262-.537.788.788 0 0 1-.453 1.51 1.99 1.99 0 0 0-1.81.246.785.785 0 0 1-.5.178" transform="translate(-380.178 -319.836)" style="fill:#5b5652"/>
            </g>
        </g>
    </g>
</svg>
