<svg xmlns="http://www.w3.org/2000/svg" width="48.251" height="49.584" viewBox="0 0 48.251 49.584">
    <defs>
        <clipPath id="lbp4glj7ga">
            <path data-name="사각형 3189" style="stroke:#707070;fill:none" d="M0 0h48.251v49.584H0z"/>
        </clipPath>
    </defs>
    <g data-name="그룹 5275" style="clip-path:url(#lbp4glj7ga)">
        <path data-name="패스 7252" d="M47.531 77.167a2.71 2.71 0 0 0-3.488 0l-7.565 6.05a5.213 5.213 0 0 1-3.278 1.146h-9.682a1.313 1.313 0 0 1 0-2.62h6.41a2.725 2.725 0 0 0 2.726-2.178 2.626 2.626 0 0 0-2.154-3.026 2.661 2.661 0 0 0-.436-.037h-13.1a9.635 9.635 0 0 0-6.064 2.155l-3.8 3.086H2.563a1.313 1.313 0 0 0-1.313 1.313v7.86a1.313 1.313 0 0 0 1.313 1.313H31.77a5.247 5.247 0 0 0 3.275-1.147l12.379-9.906a2.618 2.618 0 0 0 .107-4.008" transform="translate(-.706 -43.189)" style="fill:#fff0e4;stroke:#707070"/>
        <path data-name="패스 7253" d="M47.531 77.167a2.71 2.71 0 0 0-3.488 0l-7.565 6.05a5.213 5.213 0 0 1-3.278 1.146h-9.682a1.313 1.313 0 0 1 0-2.62h6.41a2.725 2.725 0 0 0 2.726-2.178 2.626 2.626 0 0 0-2.154-3.026 2.661 2.661 0 0 0-.436-.037h-13.1a9.635 9.635 0 0 0-6.064 2.155l-3.8 3.086H2.563a1.313 1.313 0 0 0-1.313 1.313v7.86a1.313 1.313 0 0 0 1.313 1.313H31.77a5.247 5.247 0 0 0 3.275-1.147l12.379-9.906a2.618 2.618 0 0 0 .107-4.008z" transform="translate(-.706 -43.189)" style="stroke:#5b5652;stroke-linecap:round;stroke-linejoin:round;fill:none"/>
        <path data-name="패스 7254" d="M53.24 13.158c3.827.019 6.935-10.916 6.935-10.916a5.747 5.747 0 0 1-2.709.661c-1.6 0-2.3-1.654-4.226-1.654S50.354 2.9 49.014 2.9a6.607 6.607 0 0 1-3.093-.661s3.407 10.9 7.319 10.916" transform="translate(-25.924 -.706)" style="fill:#caddff;stroke:#707070"/>
        <path data-name="패스 7255" d="M53.24 13.158c3.827.019 6.935-10.916 6.935-10.916a5.747 5.747 0 0 1-2.709.661c-1.6 0-2.3-1.654-4.226-1.654S50.354 2.9 49.014 2.9a6.607 6.607 0 0 1-3.093-.661s3.407 10.9 7.319 10.919z" transform="translate(-25.924 -.706)" style="stroke:#5b5652;stroke-linecap:round;stroke-linejoin:round;fill:none"/>
        <path data-name="패스 7256" d="M59.493 29.547c0 6.577-5.554 8.752-12.4 8.752s-12.4-2.175-12.4-8.752 5.554-15.065 12.4-15.065 12.4 8.488 12.4 15.065" transform="translate(-19.58 -8.176)" style="fill:#caddff;stroke:#707070"/>
        <path data-name="패스 7257" d="M59.493 29.547c0 6.577-5.554 8.752-12.4 8.752s-12.4-2.175-12.4-8.752 5.554-15.065 12.4-15.065 12.4 8.488 12.4 15.065z" transform="translate(-19.58 -8.176)" style="stroke:#5b5652;stroke-linecap:round;stroke-linejoin:round;fill:none"/>
        <path data-name="패스 7258" d="M50.855 39.169v-1.343h1.013l-.837-4.039h1.6l.776 4.039h1.154l.754-3.672h1.7l.766 3.672H58.9l.775-4.039h1.613l-.848 4.039h.775c.318 0 .365.223.365.671s-.047.671-.365.671h-1.064l-.542 2.567c-.141.624-.53.836-1.224.836a1.1 1.1 0 0 1-1.224-.813l-.53-2.591h-.959l-.518 2.591c-.141.683-.648.813-1.213.813-.706 0-1.107-.212-1.248-.836l-.542-2.567zm2.838.118c.081.354.212 1.248.259 1.637h.024c.071-.365.236-1.306.294-1.613l.024-.141h-.624zm2.249-1.46h.435c-.071-.495-.153-1.26-.212-1.625a33.943 33.943 0 0 1-.223 1.624zm2.438 3.1c.059-.377.177-1.305.247-1.637l.024-.118h-.589l.024.106c.094.459.212 1.319.271 1.649z" transform="translate(-28.71 -19.074)" style="fill:#5b5652"/>
    </g>
</svg>
