<svg xmlns="http://www.w3.org/2000/svg" width="76" height="76" viewBox="0 0 76 76">
    <defs>
        <clipPath id="b35lc0czaa">
            <path data-name="사각형 2969" style="fill:none" d="M0 0h47.962v62.542H0z"/>
        </clipPath>
    </defs>
    <g data-name="그룹 5179">
        <g data-name="그룹 5135" style="clip-path:url(#b35lc0czaa)" transform="translate(14.154 6.455)">
            <path data-name="패스 6970" d="M14.227 97.6c.469 4.763 3.832 9.38 8.566 9.738 9.185.695 12.651.173 23.783-.116l2.694-.144c4.892-.2 7.44-4.35 7.23-9.242l.643-17.976a7.144 7.144 0 0 0 .037-1.028l.082-2.29q.091-2.543-.042-5.086l-.143-2.733a8.2 8.2 0 0 0-8.444-7.773c-8.234.254-20.433.714-24.779 1.315a10.975 10.975 0 0 0-9.492 10.312l-.007.858" transform="translate(-10.903 -46.71)" style="fill:#fff0e4"/>
            <path data-name="패스 6971" d="M8.181 67.1a12.558 12.558 0 0 1 10.826-11.518c4.3-.6 15.94-1.051 24.946-1.329a9.823 9.823 0 0 1 10.056 9.257l.143 2.733c.09 1.73.1 3.488.042 5.223l-.08 2.234a8.786 8.786 0 0 1-.041 1.134L53.434 92.7a11.136 11.136 0 0 1-2.632 8.072 8.565 8.565 0 0 1-6.1 2.738l-2.675.143c-3.029.079-5.461.174-7.607.257a122.478 122.478 0 0 1-16.378-.143c-5.186-.392-8.664-4.887-9.723-9.445m.962-3.387a1.565 1.565 0 0 1 1.872 1.38c.375 3.805 3 8.02 7.126 8.33a118.413 118.413 0 0 0 16.02.137c2.155-.084 4.6-.178 7.6-.256l2.651-.142a5.44 5.44 0 0 0 3.95-1.73 8.08 8.08 0 0 0 1.8-5.882v-.123l.643-17.977c0-.034 0-.068.007-.1a5.638 5.638 0 0 0 .031-.8v-.121l.082-2.289a56.325 56.325 0 0 0-.041-4.949l-.143-2.733a6.674 6.674 0 0 0-6.832-6.29c-12.621.389-21.362.851-24.613 1.3a9.422 9.422 0 0 0-8.141 8.808l-.007.825a1.566 1.566 0 0 1-1.133 1.491" transform="translate(-6.27 -41.574)" style="fill:#5b5652"/>
            <path data-name="패스 6972" d="m156.015 144.481 4.4-.072c3.317.045 5.572-3.594 5.43-6.909" transform="translate(-119.563 -105.375)" style="fill:#fff0e4"/>
            <path data-name="패스 6973" d="M150.267 140.784a1.566 1.566 0 0 1 .589-3.006l4.4-.072a3.187 3.187 0 0 0 2.342-1.038 5.973 5.973 0 0 0 1.549-4.238 1.566 1.566 0 1 1 3.129-.134 9.119 9.119 0 0 1-2.432 6.554 6.179 6.179 0 0 1-4.584 1.987l-4.349.072a1.56 1.56 0 0 1-.64-.125" transform="translate(-114.429 -100.237)" style="fill:#5b5652"/>
            <path data-name="패스 6974" d="M88.2 139.365c-.185 3.766 2.846 6.406 6.606 6.7l9.234-.151" transform="translate(-67.585 -106.803)" style="fill:#fff0e4"/>
            <path data-name="패스 6975" d="M86.447 141.739a7.814 7.814 0 0 1-4.949-7.586 1.566 1.566 0 0 1 3.128.154c-.149 3.022 2.44 4.821 5.092 5.052l9.157-.15a1.566 1.566 0 0 1 .051 3.131l-9.234.151a1.458 1.458 0 0 1-.146 0 9.79 9.79 0 0 1-3.1-.747" transform="translate(-62.449 -101.668)" style="fill:#5b5652"/>
            <path data-name="패스 6976" d="m24.423 26.538-.1-11.915a8.649 8.649 0 0 0-8.69-7.923h-.23A8.764 8.764 0 0 0 6.7 15.37l.264 20.177L8.46 56.029" transform="translate(-5.136 -5.135)" style="fill:#fff0e4"/>
            <path data-name="패스 6977" d="M1.215 31.852a1.566 1.566 0 0 1-.951-1.42L0 10.255A10.387 10.387 0 0 1 10.253 0h.228a10.258 10.258 0 0 1 10.261 9.356c0 .04.005.079.006.119l.1 11.915a1.566 1.566 0 1 1-3.131.028l-.1-11.852a7.112 7.112 0 0 0-7.107-6.434h-.2a7.24 7.24 0 0 0-7.18 7.119l.27 20.141a1.566 1.566 0 0 1-2.18 1.461" transform="translate(.001)" style="fill:#5b5652"/>
            <path data-name="패스 6978" d="M86.818 142.171a8.335 8.335 0 0 1-5.121-8.033l-.174-21.1v-.089A8.385 8.385 0 0 1 90.22 105l9.111.069a1.566 1.566 0 1 1-.024 3.132l-9.163-.071a5.258 5.258 0 0 0-5.489 4.927l.175 21.094v.089a5.327 5.327 0 0 0 5.052 5.491 1.566 1.566 0 0 1-.24 3.122 8.917 8.917 0 0 1-2.821-.686" transform="translate(-62.476 -80.465)" style="fill:#5b5652"/>
            <path data-name="패스 6979" d="M87.116 191.283a8.583 8.583 0 0 1-5.243-8.234A1.566 1.566 0 0 1 85 183.2a5.469 5.469 0 0 0 4.978 5.617l12.955-.69a4.159 4.159 0 0 0 4.05-4.336 1.566 1.566 0 1 1 3.129-.134 7.29 7.29 0 0 1-7.043 7.6l-13.031.695a1.6 1.6 0 0 1-.2 0 8.58 8.58 0 0 1-2.718-.666" transform="translate(-62.737 -139.14)" style="fill:#5b5652"/>
            <path data-name="패스 6980" d="M37.06 150.932a1.566 1.566 0 0 1 .629-3.006c2.99.029 5.272-.811 6.781-2.495 2.842-3.171 2.265-8.325 2.258-8.377a1.566 1.566 0 0 1 3.11-.371c.032.269.74 6.624-3.037 10.837-2.137 2.384-5.212 3.574-9.142 3.536a1.559 1.559 0 0 1-.6-.125" transform="translate(-27.672 -103.691)" style="fill:#5b5652"/>
            <path data-name="패스 6981" d="M2.883 152.58a163.21 163.21 0 0 1-1.8-22.416h3.154a159.364 159.364 0 0 0 1.756 21.891z" transform="translate(-.83 -99.752)" style="fill:#5b5652"/>
        </g>
    </g>
    <path data-name="사각형 3261" style="fill:none" d="M0 0h76v76H0z"/>
</svg>
