<svg xmlns="http://www.w3.org/2000/svg" width="39.199" height="39.199" viewBox="0 0 39.199 39.199">
    <defs>
        <style>
            .cls-1{fill:#fff}
        </style>
    </defs>
    <g id="blog" transform="translate(-1032.965 -8251.184)">
        <path id="빼기_3" data-name="빼기 3" class="cls-1" d="M22409.6 4708.2a19.532 19.532 0 1 1 7.629-1.541 19.474 19.474 0 0 1-7.629 1.541zm-7.412-28.713a3.432 3.432 0 0 0-3.424 3.434v8.15a3.432 3.432 0 0 0 3.424 3.434h5.105l1.744 2.837a.65.65 0 0 0 .057.079.578.578 0 0 0 .506.293.589.589 0 0 0 .5-.287.5.5 0 0 0 .061-.084l1.74-2.837h5.105a3.432 3.432 0 0 0 3.422-3.434v-8.15a3.432 3.432 0 0 0-3.422-3.434z" transform="translate(-21357.035 3582.185)"/>
        <path id="패스_7448" data-name="패스 7448" class="cls-1" d="M43.768 64.145a1.762 1.762 0 0 0-1.127.522v-2.1h-1.327v5.523h1.34v-.433a1.272 1.272 0 0 0 1.114.571 1.955 1.955 0 0 0 1.869-2.062s-.069-2.021-1.869-2.021m-.292 2.916a.852.852 0 1 1 .852-.853.853.853 0 0 1-.852.853" transform="translate(1002.775 8203.496)"/>
        <path id="패스_7449" data-name="패스 7449" class="cls-1" d="M88.313 61.341v1.279s.605-.027.605 1.1v3.271H90.2v-3.574s.055-2.076-1.884-2.076" transform="translate(960.525 8204.595)"/>
        <path id="패스_7450" data-name="패스 7450" class="cls-1" d="M118.39 78.381s-2.191 0-2.191 2.047a1.98 1.98 0 0 0 2.191 2.019s2.242 0 2.242-2.019a2.014 2.014 0 0 0-2.242-2.047m0 2.9a.852.852 0 1 1 .852-.853.853.853 0 0 1-.852.853" transform="translate(935.459 8189.277)"/>
        <path id="패스_7451" data-name="패스 7451" class="cls-1" d="M169.692 78.512v.371a1.45 1.45 0 0 0-1.113-.5 1.829 1.829 0 0 0-1.879 2.027s-.021 1.967 1.825 1.967a1.516 1.516 0 0 0 1.165-.505v.31a.843.843 0 0 1-.845.969h-.319v1.175h.515a1.926 1.926 0 0 0 1.938-2.072v-3.742zm-.793 2.765a.852.852 0 1 1 .852-.853.852.852 0 0 1-.852.853" transform="translate(890.059 8189.281)"/>
    </g>
</svg>
