<svg xmlns="http://www.w3.org/2000/svg" width="39.199" height="39.199" viewBox="0 0 39.199 39.199">
    <path d="M22409.6 4708.2a19.532 19.532 0 1 1 7.629-1.541 19.474 19.474 0 0 1-7.629 1.541zm0-27.256c-.07 0-7.117.005-8.865.479a2.872 2.872 0 0 0-2.01 2.021 32.2 32.2 0 0 0 0 10.993 2.815 2.815 0 0 0 2.01 1.987c1.748.473 8.795.479 8.865.479s7.113-.005 8.865-.479a2.825 2.825 0 0 0 2-1.987 31.808 31.808 0 0 0 0-10.993 2.843 2.843 0 0 0-2-2.021c-1.752-.475-8.795-.48-8.865-.48zm-2.324 11.371v-6.749l5.934 3.372-5.932 3.376z" transform="translate(-22390 -4668.999)" style="fill:#fff"/>
</svg>
