<svg id="blog" xmlns="http://www.w3.org/2000/svg" width="68" height="68" viewBox="0 0 68 68">
    <defs>
        <clipPath id="clip-path">
            <path id="사각형_3245" data-name="사각형 3245" style="fill:none" d="M0 0h68v68H0z"/>
        </clipPath>
        <style>
            .cls-5{fill:#f15d19}
        </style>
    </defs>
    <g id="그룹_5338" data-name="그룹 5338" style="clip-path:url(#clip-path)">
        <path id="패스_7446" data-name="패스 7446" d="M68 54.4A13.6 13.6 0 0 1 54.4 68H13.6A13.6 13.6 0 0 1 0 54.4V13.6A13.6 13.6 0 0 1 13.6 0h40.8A13.6 13.6 0 0 1 68 13.6z" transform="translate(0 -.001)" style="fill:#3fa636"/>
        <path id="패스_7447" data-name="패스 7447" d="M67.019 19.143H27.184a9.212 9.212 0 0 0-9.2 9.229v21.894a9.213 9.213 0 0 0 9.2 9.229H40.9l4.683 7.625a1.708 1.708 0 0 0 .152.216 1.568 1.568 0 0 0 2.716.01 1.1 1.1 0 0 0 .158-.227L53.3 59.5h13.719a9.214 9.214 0 0 0 9.2-9.229V28.372a9.213 9.213 0 0 0-9.2-9.229" transform="translate(-13.102 -13.944)" style="fill:#fff"/>
        <path id="패스_7448" data-name="패스 7448" class="cls-5" d="M47.91 66.814a4.735 4.735 0 0 0-3.03 1.4v-5.65h-3.566v14.852h3.6v-1.163a3.418 3.418 0 0 0 2.994 1.535 5.253 5.253 0 0 0 5.024-5.542s-.185-5.431-5.024-5.431m-.785 7.838a2.291 2.291 0 1 1 2.291-2.292 2.292 2.292 0 0 1-2.291 2.292" transform="translate(-30.093 -45.571)"/>
        <path id="패스_7449" data-name="패스 7449" class="cls-5" d="M88.313 61.341v3.436s1.626-.074 1.626 2.956v8.792h3.436v-9.604s.147-5.58-5.063-5.58" transform="translate(-64.326 -44.68)"/>
        <path id="패스_7450" data-name="패스 7450" class="cls-5" d="M122.089 78.381s-5.89 0-5.89 5.5c0 0-.191 5.427 5.89 5.427 0 0 6.026-.009 6.026-5.427 0 0 .2-5.5-6.026-5.5m0 7.792a2.291 2.291 0 1 1 2.291-2.292 2.292 2.292 0 0 1-2.291 2.292" transform="translate(-84.638 -57.092)"/>
        <path id="패스_7451" data-name="패스 7451" class="cls-5" d="M174.738 78.738v1a3.9 3.9 0 0 0-2.991-1.357s-5.044-.213-5.044 5.463c0 0-.056 5.288 4.9 5.288a4.076 4.076 0 0 0 3.13-1.358v.826s.251 2.6-2.272 2.6h-.859v3.158h1.385A5.176 5.176 0 0 0 178.2 88.8V78.738zm-2.131 7.432a2.291 2.291 0 1 1 2.291-2.292 2.291 2.291 0 0 1-2.291 2.292" transform="translate(-121.425 -57.089)"/>
    </g>
</svg>
