<svg xmlns="http://www.w3.org/2000/svg" width="31.914" height="32.096" viewBox="0 0 31.914 32.096">
    <defs>
        <clipPath id="e05kyzkhha">
            <path data-name="사각형 3798" style="fill:none" d="M0 0h31.914v32.096H0z"/>
        </clipPath>
    </defs>
    <g data-name="그룹 5585">
        <g data-name="그룹 5584" style="clip-path:url(#e05kyzkhha)">
            <path data-name="패스 7623" d="M31.914 24.955a7.121 7.121 0 0 1-7.1 7.141H7.1A7.121 7.121 0 0 1 0 24.955V7.141A7.121 7.121 0 0 1 7.1 0h17.713a7.121 7.121 0 0 1 7.1 7.141z" style="fill:#ffde00"/>
            <path data-name="패스 7624" d="M60.884 60.874c-5.575 0-10.093 4.179-10.093 9.336 0 3.808 1.6 5.626 3.779 7.283h.01v4.469a.256.256 0 0 0 .41.206l3.827-2.843.083.036a10.938 10.938 0 0 0 1.984.181c5.574 0 10.093-4.18 10.093-9.336s-4.518-9.336-10.093-9.336" transform="translate(-44.944 -53.866)" style="fill:#ffde00"/>
            <path data-name="패스 7625" d="M60.884 48.959c-5.575 0-10.093 4.179-10.093 9.336 0 3.808 1.6 5.626 3.779 7.283h.01v4.469a.257.257 0 0 0 .41.206l3.827-2.843.083.036a10.949 10.949 0 0 0 1.984.181c5.574 0 10.093-4.18 10.093-9.336s-4.518-9.336-10.093-9.336M57.5 60.66a2.109 2.109 0 0 0 2.091-1.507h1.463a3.5 3.5 0 0 1-3.554 2.915 3.784 3.784 0 1 1 0-7.568 3.505 3.505 0 0 1 3.564 2.969h-1.458a2.081 2.081 0 0 0-2.106-1.581 2.285 2.285 0 0 0-2.375 2.4A2.343 2.343 0 0 0 57.5 60.66m9.643 1.263H65.8V58.9a.963.963 0 0 0-1.029-1.071c-.7 0-1.143.426-1.143 1.289v2.807h-1.34v-7.4h1.342v2.783a1.719 1.719 0 0 1 1.549-.727 1.839 1.839 0 0 1 1.4.572 2.157 2.157 0 0 1 .562 1.58z" transform="translate(-44.944 -43.323)" style="fill:#000002"/>
        </g>
    </g>
</svg>
