<svg id="logo" xmlns="http://www.w3.org/2000/svg" width="180" height="33.383" viewBox="0 0 180 33.383">
    <defs>
        <clipPath id="clip-path">
            <path id="사각형_2814" data-name="사각형 2814" class="cls-1" d="M0 0h180v33.383H0z"/>
        </clipPath>
        <clipPath id="clip-path-3">
            <path id="사각형_2810" data-name="사각형 2810" class="cls-1" d="M0 0h4.453v2.464H0z"/>
        </clipPath>
        <clipPath id="clip-path-4">
            <path id="사각형_2811" data-name="사각형 2811" class="cls-1" d="M0 0h3.007v1.512H0z"/>
        </clipPath>
        <style>
            .cls-1{fill:none}.cls-2{clip-path:url(#clip-path)}.cls-3{fill:#5b5652}.cls-4{fill:#fff}.cls-5{fill:#fff0e4}.cls-6{fill:#d1d1d1}.cls-7{fill:#e8e589}.cls-10{fill:#9fcef5}.cls-11{fill:#b59a84}.cls-14{opacity:.65}.cls-15{clip-path:url(#clip-path-4)}.cls-16{fill:#fdc89d}
        </style>
    </defs>
    <g id="그룹_5097" data-name="그룹 5097" class="cls-2">
        <g id="그룹_5096" data-name="그룹 5096">
            <g id="그룹_5095" data-name="그룹 5095" class="cls-2">
                <path id="패스_6768" data-name="패스 6768" class="cls-3" d="M449.142 80.206a1.966 1.966 0 0 1-1.028-.155 2.207 2.207 0 0 1-1.028-.992l-.072-.12a1.969 1.969 0 0 1-.371-1.661 1.475 1.475 0 0 1 1.157-.778 19.362 19.362 0 0 0 5.331-1.685 4.9 4.9 0 0 0 2.438-2.474h-6.1a1.685 1.685 0 0 1-1.793-1.793v-.12a1.685 1.685 0 0 1 1.793-1.793h9.7a1.748 1.748 0 0 1 1.255.466 1.423 1.423 0 0 1 .418 1.231 9.039 9.039 0 0 1-1.327 3.956 11.039 11.039 0 0 1-2.713 2.928 14.007 14.007 0 0 1-3.621 1.948 20.837 20.837 0 0 1-4.052 1.04m16.517.646a1.686 1.686 0 0 1 1.793 1.793v5.091a1.686 1.686 0 0 1-1.793 1.793h-14.64a1.686 1.686 0 0 1-1.793-1.793v-5.09a1.685 1.685 0 0 1 1.793-1.793zm-11.522 4.876h8.39v-1.169h-8.39zm10.183-5.474a1.686 1.686 0 0 1-1.793-1.793v-8.603a1.686 1.686 0 0 1 1.793-1.793h1.339a1.686 1.686 0 0 1 1.793 1.793v8.605a1.686 1.686 0 0 1-1.793 1.793z" transform="translate(-408.023 -62.188)"/>
                <path id="패스_6769" data-name="패스 6769" class="cls-3" d="M735.66 84.842a1.686 1.686 0 0 1 1.793 1.793v.454a1.685 1.685 0 0 1-1.793 1.793h-11.067a1.685 1.685 0 0 1-1.793-1.793v-.5a1.66 1.66 0 0 1 .526-1.231 1.747 1.747 0 0 1 1.267-.514h1.243v-6.336a1.454 1.454 0 0 1 .406-1.076 1.486 1.486 0 0 1 1.1-.406h1.865a1.4 1.4 0 0 1 1.482 1.482v6.334zm1.147-3.944a1.686 1.686 0 0 1-1.793 1.793h-1.243a1.686 1.686 0 0 1-1.793-1.793V72.7h-7a1.686 1.686 0 0 1-1.793-1.793v-.454a1.686 1.686 0 0 1 1.793-1.793h10.04a1.686 1.686 0 0 1 1.793 1.793zm3.012 8.773a1.685 1.685 0 0 1-1.793-1.793V69.855a1.685 1.685 0 0 1 1.793-1.793h1.315a1.685 1.685 0 0 1 1.793 1.793v5.952h1.1a1.474 1.474 0 0 1 1.243.526 2.167 2.167 0 0 1 .406 1.363v.478a2.164 2.164 0 0 1-.406 1.362 1.472 1.472 0 0 1-1.243.526h-1.1v7.816a1.685 1.685 0 0 1-1.793 1.793z" transform="translate(-660.407 -62.187)"/>
                <path id="패스_6770" data-name="패스 6770" class="cls-3" d="M1014.152 76.095a1.319 1.319 0 0 1 .848 1 2.237 2.237 0 0 1-.442 1.53 2.568 2.568 0 0 1-1.267 1.123 1.665 1.665 0 0 1-1.243-.048 13.83 13.83 0 0 1-2.45-1.41 8.834 8.834 0 0 1-1.8-1.769 10.316 10.316 0 0 1-.9 1.088 8.8 8.8 0 0 1-1.028.92 11.6 11.6 0 0 1-1.243.825 16.228 16.228 0 0 1-1.542.777 1.887 1.887 0 0 1-1.279.1 2.523 2.523 0 0 1-1.757-2.534 1.608 1.608 0 0 1 1-1.171 10.257 10.257 0 0 0 2.8-1.912 4.16 4.16 0 0 0 1.267-2.271h-2.773a1.685 1.685 0 0 1-1.793-1.793v-.12a1.685 1.685 0 0 1 1.793-1.793h10.4a1.685 1.685 0 0 1 1.793 1.793v.12a1.685 1.685 0 0 1-1.793 1.793h-2.486a2.931 2.931 0 0 0 .43 1.052 5.449 5.449 0 0 0 .848 1.016 7.885 7.885 0 0 0 1.183.92 10.16 10.16 0 0 0 1.434.765m-7.625 13.6a5.957 5.957 0 0 1-2.127-.347 4.354 4.354 0 0 1-1.518-.944 3.757 3.757 0 0 1-.908-1.422 5.453 5.453 0 0 1 0-3.561 3.756 3.756 0 0 1 .908-1.422 4.354 4.354 0 0 1 1.518-.944 5.957 5.957 0 0 1 2.127-.347h9.323a5.959 5.959 0 0 1 2.127.347 4.356 4.356 0 0 1 1.518.944 3.761 3.761 0 0 1 .908 1.422 5.458 5.458 0 0 1 0 3.561 3.762 3.762 0 0 1-.908 1.422 4.356 4.356 0 0 1-1.518.944 5.959 5.959 0 0 1-2.127.347zm.908-5.283a1.118 1.118 0 0 0-.741.191.938.938 0 0 0 0 1.2 1.117 1.117 0 0 0 .741.191h7.482a1.164 1.164 0 0 0 .765-.191.937.937 0 0 0 0-1.2 1.165 1.165 0 0 0-.765-.191zm9.705-4.159a1.686 1.686 0 0 1-1.793-1.793v-8.605a1.685 1.685 0 0 1 1.793-1.793h1.41a1.6 1.6 0 0 1 1.7 1.7v1.984h1.1a1.537 1.537 0 0 1 1.219.49 1.867 1.867 0 0 1 .43 1.279v.621a1.867 1.867 0 0 1-.43 1.279 1.536 1.536 0 0 1-1.219.49h-1.1v2.558a1.686 1.686 0 0 1-1.793 1.793z" transform="translate(-913.704 -62.188)"/>
                <path id="패스_6771" data-name="패스 6771" class="cls-3" d="M1296.4 77.863h-2.366a1.461 1.461 0 0 1-1.1-.418 1.525 1.525 0 0 1-.406-1.112v-.574a11.917 11.917 0 0 1-4.04 3.538 18.128 18.128 0 0 1-5.5 1.912 2.246 2.246 0 0 1-.49.048 1.665 1.665 0 0 1-.55-.1 2.085 2.085 0 0 1-.562-.311 2.379 2.379 0 0 1-.55-.622l-.167-.263a1.473 1.473 0 0 1-.251-1.339 1.341 1.341 0 0 1 1.111-.741 25.216 25.216 0 0 0 2.57-.6 14.108 14.108 0 0 0 2.043-.765h-3.036a1.675 1.675 0 1 1 0-3.347h6.287a6.475 6.475 0 0 0 .287-1.052h-6.143a1.746 1.746 0 1 1 0-3.49h9.275a1.723 1.723 0 0 1 1.255.478 1.456 1.456 0 0 1 .418 1.243 12.315 12.315 0 0 1-.335 1.924 10.7 10.7 0 0 1-.621 1.757 1.589 1.589 0 0 1 .5-.072h2.366v-4.102a1.685 1.685 0 0 1 1.793-1.793h1.339a1.686 1.686 0 0 1 1.793 1.793v11.617a1.686 1.686 0 0 1-1.793 1.793h-1.339a1.686 1.686 0 0 1-1.793-1.793zm3.346 7.625a1.685 1.685 0 0 1 1.793 1.793v.311a1.686 1.686 0 0 1-1.793 1.793H1285a1.686 1.686 0 0 1-1.793-1.793v-3.753a1.685 1.685 0 0 1 1.793-1.793h1.41a1.639 1.639 0 0 1 1.721 1.721v1.721z" transform="translate(-1169.826 -62.187)"/>
                <path id="패스_6772" data-name="패스 6772" class="cls-3" d="M1575.281 75.138a1.118 1.118 0 0 1 .478.383 1.334 1.334 0 0 1 .239.609 2.148 2.148 0 0 1-.036.741 2.412 2.412 0 0 1-.323.777 3.449 3.449 0 0 1-.634.753 1.965 1.965 0 0 1-.645.382 1.457 1.457 0 0 1-.633.072 2.2 2.2 0 0 1-.6-.155 11.509 11.509 0 0 1-2.462-1.422 11.116 11.116 0 0 1-1.888-1.829 11.8 11.8 0 0 1-2 2 12.561 12.561 0 0 1-2.737 1.638 1.845 1.845 0 0 1-.514.167 1.614 1.614 0 0 1-.586-.012 1.647 1.647 0 0 1-.633-.287 2.786 2.786 0 0 1-.634-.657 2.2 2.2 0 0 1-.49-1.638 1.645 1.645 0 0 1 .968-1.183 8.672 8.672 0 0 0 3.024-2.319 4.346 4.346 0 0 0 .992-2.677v-.6a1.619 1.619 0 0 1 .49-1.231 1.81 1.81 0 0 1 1.3-.466h1.458a1.812 1.812 0 0 1 1.3.466 1.621 1.621 0 0 1 .49 1.231v.765a3.753 3.753 0 0 0 1.088 2.546 9.3 9.3 0 0 0 2.976 1.948m5.57 11.5a1.531 1.531 0 1 1 0 3.06h-15.37a1.686 1.686 0 0 1-1.793-1.793v-2.681a1.686 1.686 0 0 1 1.793-1.793H1577v-.55h-11.761a1.476 1.476 0 0 1-1.554-1.554 1.48 1.48 0 0 1 .43-1.112 1.545 1.545 0 0 1 1.124-.418h14.892a1.686 1.686 0 0 1 1.793 1.793v2.629a1.685 1.685 0 0 1-1.793 1.793h-11.521v.622zm-5.51-12.74a1.523 1.523 0 0 1-1.625-1.625v-.5a1.568 1.568 0 0 1 .442-1.159 1.6 1.6 0 0 1 1.183-.442H1577v-.311a1.685 1.685 0 0 1 1.793-1.793h1.339a1.685 1.685 0 0 1 1.793 1.793v7.625a1.686 1.686 0 0 1-1.793 1.793h-1.339a1.686 1.686 0 0 1-1.793-1.8V73.9z" transform="translate(-1426.404 -62.188)"/>
                <path id="패스_6773" data-name="패스 6773" class="cls-3" d="M1851.968 72.82h7a1.483 1.483 0 1 1 0 2.964h-7v.932h7.96a1.722 1.722 0 1 1 0 3.442h-11.067a1.686 1.686 0 0 1-1.793-1.793v-8.031a1.685 1.685 0 0 1 1.793-1.793H1859a1.7 1.7 0 1 1 0 3.394h-7.028zm1 16.876a6.351 6.351 0 0 1-2.127-.323 4.257 4.257 0 0 1-1.518-.9 3.616 3.616 0 0 1-.908-1.351 4.9 4.9 0 0 1 0-3.37 3.615 3.615 0 0 1 .908-1.35 4.4 4.4 0 0 1 1.518-.908 6.145 6.145 0 0 1 2.127-.335h9.777a6.25 6.25 0 0 1 2.14.335 4.384 4.384 0 0 1 1.53.908 3.624 3.624 0 0 1 .908 1.35 4.905 4.905 0 0 1 0 3.37 3.625 3.625 0 0 1-.908 1.351 4.247 4.247 0 0 1-1.53.9 6.461 6.461 0 0 1-2.14.323zm.932-4.9a1.372 1.372 0 0 0-.765.155.564.564 0 0 0-.215.49.532.532 0 0 0 .215.478 1.466 1.466 0 0 0 .765.143h7.936a1.4 1.4 0 0 0 .753-.143.544.544 0 0 0 .2-.478.578.578 0 0 0-.2-.49 1.308 1.308 0 0 0-.753-.155zm10.135-4.064a1.686 1.686 0 0 1-1.793-1.793v-9.083a1.685 1.685 0 0 1 1.793-1.793h1.339a1.685 1.685 0 0 1 1.793 1.793v9.083a1.686 1.686 0 0 1-1.793 1.793z" transform="translate(-1687.626 -62.188)"/>
                <path id="패스_6774" data-name="패스 6774" class="cls-4" d="M20.008 150.067a.154.154 0 0 1-.142-.095l-.387-.928-.928-.388a.154.154 0 0 1 0-.285l.928-.387.387-.928a.154.154 0 0 1 .285 0l.388.928.928.387a.154.154 0 0 1 0 .285l-.928.388-.388.928a.154.154 0 0 1-.142.095" transform="translate(-16.863 -134.276)"/>
                <path id="패스_6775" data-name="패스 6775" class="cls-5" d="m258.084 134.38-.713-1.85a.8.8 0 0 0-.041-.106l-.091-.236q-.1-.262-.225-.514l-.133-.271a.9.9 0 0 0-1.193-.422c-.824.382-2.041.957-2.455 1.207a1.21 1.21 0 0 0-.516 1.457l.036.087a7.807 7.807 0 0 1-2.753 1.351l-.755.182.51 2.645a7.894 7.894 0 0 0 4.037-1.724 1.137 1.137 0 0 0 1.29.616 21.283 21.283 0 0 0 2.406-1.042l.267-.131a.875.875 0 0 0 .333-1.25" transform="translate(-227.726 -119.598)"/>
                <path id="패스_6776" data-name="패스 6776" class="cls-3" d="M247.923 136.272a.173.173 0 0 1-.169-.14l-.51-2.645a.173.173 0 0 1 .129-.2l.747-.18c.112-.04.229-.079.352-.119a6.822 6.822 0 0 0 2.247-1.122 1.385 1.385 0 0 1 .6-1.637c.411-.247 1.57-.8 2.471-1.215a1.083 1.083 0 0 1 1.42.5l.133.271c.084.172.162.349.231.528l.089.23a.956.956 0 0 1 .045.117l.709 1.839a1.227 1.227 0 0 1 .083.932.944.944 0 0 1-.5.542l-.265.13c-.3.139-.546.254-.76.355a13.512 13.512 0 0 1-1.667.695 1.273 1.273 0 0 1-1.395-.536 7.782 7.782 0 0 1-3.978 1.653h-.01m-.31-2.689.45 2.333a7.954 7.954 0 0 0 3.8-1.683.173.173 0 0 1 .25.059.968.968 0 0 0 1.083.536 13.047 13.047 0 0 0 1.63-.68c.215-.1.458-.217.76-.355l.263-.129a.6.6 0 0 0 .325-.346.89.89 0 0 0-.072-.675l-.005-.013-.713-1.85v-.011a.618.618 0 0 0-.032-.083l-.005-.012-.091-.236a6.514 6.514 0 0 0-.218-.5l-.133-.271a.736.736 0 0 0-.965-.342c-1.263.586-2.129 1.012-2.439 1.2a1.039 1.039 0 0 0-.444 1.245l.035.084a.172.172 0 0 1-.05.2 7.035 7.035 0 0 1-2.456 1.261c-.124.041-.242.08-.353.12l-.017.005z" transform="translate(-225.898 -117.786)"/>
                <path id="패스_6777" data-name="패스 6777" class="cls-5" d="m334.909 149.718.443-.2a.69.69 0 0 0 .251-.936" transform="translate(-305.999 -135.759)"/>
                <path id="패스_6778" data-name="패스 6778" class="cls-3" d="M333.081 148.063a.173.173 0 0 1-.07-.33l.443-.2a.351.351 0 0 0 .192-.207.658.658 0 0 0-.026-.5.173.173 0 1 1 .311-.149 1 1 0 0 1 .037.77.681.681 0 0 1-.379.4l-.438.2a.173.173 0 0 1-.07.015" transform="translate(-304.171 -133.931)"/>
                <path id="패스_6779" data-name="패스 6779" class="cls-5" d="M313.023 161.736a.728.728 0 0 0 .96.393l.93-.415" transform="translate(-286.002 -147.754)"/>
                <path id="패스_6780" data-name="패스 6780" class="cls-3" d="M311.864 160.523a.862.862 0 0 1-.83-.555.173.173 0 0 1 .324-.12.56.56 0 0 0 .735.292l.922-.412a.173.173 0 0 1 .141.315l-.93.415-.015.006a1.08 1.08 0 0 1-.347.059" transform="translate(-284.175 -145.926)"/>
                <path id="패스_6781" data-name="패스 6781" class="cls-5" d="m279.571 133.1-.9-2.034a.966.966 0 0 1 .507-1.255l.023-.01a.953.953 0 0 1 1.224.427l.527 1.2" transform="translate(-254.547 -118.525)"/>
                <path id="패스_6782" data-name="패스 6782" class="cls-3" d="M277.763 131.459a.173.173 0 0 1-.158-.1l-.9-2.034a1.145 1.145 0 0 1 .6-1.484l.023-.01a1.131 1.131 0 0 1 1.445.5l.006.012.527 1.2a.173.173 0 1 1-.316.138l-.524-1.2a.784.784 0 0 0-1-.344l-.021.009a.8.8 0 0 0-.419 1.032l.9 2.03a.173.173 0 0 1-.158.243" transform="translate(-252.74 -116.709)"/>
                <path id="패스_6783" data-name="패스 6783" class="cls-3" d="M312.345 148.644a.919.919 0 0 1-.867-.593l-.932-2.131v-.009a.924.924 0 0 1 .537-1.182l.927-.388a.173.173 0 0 1 .133.319l-.932.39a.58.58 0 0 0-.343.737l.931 2.131v.009a.587.587 0 0 0 .75.338.173.173 0 0 1 .111.327.984.984 0 0 1-.316.053" transform="translate(-283.684 -131.869)"/>
                <path id="패스_6784" data-name="패스 6784" class="cls-3" d="M317.758 163.318a.946.946 0 0 1-.888-.608.173.173 0 1 1 .324-.12.6.6 0 0 0 .748.354l1.283-.631a.458.458 0 0 0 .223-.615.173.173 0 1 1 .311-.149.8.8 0 0 1-.385 1.075l-1.291.635-.021.009a.946.946 0 0 1-.3.05" transform="translate(-289.507 -147.515)"/>
                <path id="패스_6785" data-name="패스 6785" class="cls-3" d="M305.379 162.785a.173.173 0 0 1-.066-.332.944.944 0 0 0 .579-.547 1.325 1.325 0 0 0-.134-.947.173.173 0 0 1 .3-.172 1.669 1.669 0 0 1 .161 1.23 1.271 1.271 0 0 1-.774.754.172.172 0 0 1-.066.013" transform="translate(-278.86 -146.828)"/>
                <path id="패스_6786" data-name="패스 6786" class="cls-6" d="M132.583 192.479a2.28 2.28 0 0 1 2.466 2.078l.253 2.969a2.28 2.28 0 0 1-2.078 2.466l-8.08.688" transform="translate(-114.34 -175.856)"/>
                <path id="패스_6787" data-name="패스 6787" class="cls-3" d="M123.316 199.023a.173.173 0 0 1-.014-.345l8.08-.688a2.108 2.108 0 0 0 1.921-2.279l-.253-2.969a2.108 2.108 0 0 0-2.279-1.921.173.173 0 1 1-.029-.344 2.453 2.453 0 0 1 2.652 2.236l.253 2.969a2.453 2.453 0 0 1-2.236 2.652l-8.08.688h-.015" transform="translate(-112.514 -174.027)"/>
                <path id="패스_6788" data-name="패스 6788" class="cls-4" d="M225.406 167.18c1.858.229 3.779-.382 6.78-1.882l-1.546-3a9.471 9.471 0 0 1-4.284 1.378l-.994.059" transform="translate(-205.909 -148.284)"/>
                <path id="패스_6789" data-name="패스 6789" class="cls-3" d="M224.352 165.574a6.479 6.479 0 0 1-.793-.049.173.173 0 1 1 .042-.343c1.7.209 3.476-.276 6.526-1.787l-1.38-2.682a8.76 8.76 0 0 1-3.714 1.231c-.167.024-.324.046-.474.071h-.018l-.993.059a.171.171 0 0 1-.183-.162.173.173 0 0 1 .162-.182l.984-.058c.151-.025.307-.047.473-.071a8.41 8.41 0 0 0 3.737-1.281.173.173 0 0 1 .247.066l.852 1.656.694 1.349a.173.173 0 0 1-.076.233c-2.746 1.372-4.507 1.947-6.085 1.947" transform="translate(-204.082 -146.458)"/>
                <path id="패스_6790" data-name="패스 6790" class="cls-5" d="m34.271 276.363-.556.774-.986-.459-.1-.935" transform="translate(-29.81 -251.941)"/>
                <path id="패스_6791" data-name="패스 6791" class="cls-5" d="M31.678 275.744s-.471.957.748 1.295" transform="translate(-28.862 -251.941)"/>
                <path id="패스_6792" data-name="패스 6792" class="cls-3" d="M30.6 275.384a.174.174 0 0 1-.046-.006 1.26 1.26 0 0 1-.882-.649 1.129 1.129 0 0 1 .025-.888.173.173 0 0 1 .31.152.787.787 0 0 0-.019.6.943.943 0 0 0 .658.455.173.173 0 0 1-.046.339" transform="translate(-27.037 -250.113)"/>
                <path id="패스_6793" data-name="패스 6793" class="cls-4" d="m66.808 189.8-4.467.324a7.392 7.392 0 0 1 1.94-4.781 5.821 5.821 0 0 1 2.462-1.353 21.693 21.693 0 0 1 3.092-.729" transform="translate(-56.96 -167.439)"/>
                <path id="패스_6794" data-name="패스 6794" class="cls-3" d="M60.514 188.466a.173.173 0 0 1-.172-.185 7.642 7.642 0 0 1 1.991-4.891 5.88 5.88 0 0 1 2.533-1.395 21.673 21.673 0 0 1 3.117-.735.173.173 0 1 1 .053.341 21.324 21.324 0 0 0-3.068.723 5.558 5.558 0 0 0-2.392 1.31 7.187 7.187 0 0 0-1.873 4.472l4.266-.309a.173.173 0 0 1 .025.344l-4.467.324h-.012" transform="translate(-55.133 -165.611)"/>
                <path id="패스_6795" data-name="패스 6795" class="cls-6" d="m91.148 192.464-.069.207s-.44 1.637-.7 3.28l-.074.524-.661-.288a.606.606 0 0 1-.361-.622 11.678 11.678 0 0 1 .273-1.565 8.7 8.7 0 0 1 .256-.859" transform="translate(-81.569 -175.85)"/>
                <path id="패스_6796" data-name="패스 6796" class="cls-3" d="M88.473 194.82a.174.174 0 0 1-.069-.014l-.661-.288a.775.775 0 0 1-.464-.8 11.879 11.879 0 0 1 .281-1.589l.032-.135c.065-.273.139-.582.226-.83a.173.173 0 0 1 .326.115c-.082.231-.153.53-.216.795l-.033.136a11.545 11.545 0 0 0-.273 1.546.431.431 0 0 0 .259.445l.453.2.042-.3c.263-1.636.7-3.285.709-3.3v-.01l.069-.207a.173.173 0 0 1 .328.109l-.067.2c-.026.1-.447 1.687-.7 3.258l-.073.521a.173.173 0 0 1-.171.149" transform="translate(-79.74 -174.022)"/>
                <path id="패스_6797" data-name="패스 6797" class="cls-7" d="m12.465 214.808-7.2-3.884 2.365-4.385.936-.345 4.837 8.269z" transform="translate(-4.809 -188.395)"/>
                <path id="패스_6798" data-name="패스 6798" class="cls-3" d="M10.638 213.154a.172.172 0 0 1-.082-.021l-7.2-3.884a.173.173 0 0 1-.07-.234l2.365-4.385a.173.173 0 0 1 .092-.08l.936-.345a.173.173 0 0 1 .209.075l4.837 8.269a.173.173 0 0 1-.089.249l-.936.345a.172.172 0 0 1-.06.011m-6.97-4.127 6.982 3.765.669-.247-4.66-7.966-.739.272z" transform="translate(-2.981 -186.568)"/>
                <path id="사각형_2809" data-name="사각형 2809" class="cls-7" transform="rotate(-61.661 19.28 9.928)" d="M0 0h4.982v8.183H0z"/>
                <path id="패스_6799" data-name="패스 6799" class="cls-3" d="M21.479 212.808a.172.172 0 0 1-.082-.021L14.2 208.9a.172.172 0 0 1-.07-.234l2.365-4.385a.173.173 0 0 1 .234-.07l7.2 3.884a.173.173 0 0 1 .07.234l-2.365 4.385a.173.173 0 0 1-.152.091m-6.968-4.127 6.9 3.72 2.2-4.081-6.9-3.72z" transform="translate(-12.887 -186.568)"/>
                <path id="패스_6800" data-name="패스 6800" d="m48.032 201.932-1.917-1.032.248-.46a.331.331 0 0 1 .448-.134l1.335.72a.331.331 0 0 1 .134.448z" transform="translate(-42.134 -182.977)" style="fill:#66bd82"/>
                <path id="패스_6801" data-name="패스 6801" class="cls-3" d="M46.205 200.276a.172.172 0 0 1-.082-.021l-1.917-1.034a.173.173 0 0 1-.07-.234l.248-.46a.5.5 0 0 1 .682-.2l1.335.72a.5.5 0 0 1 .2.682l-.248.46a.172.172 0 0 1-.152.091M44.522 199l1.614.87.166-.308a.158.158 0 0 0-.064-.214l-1.335-.72a.158.158 0 0 0-.214.064z" transform="translate(-40.307 -181.148)"/>
                <path id="패스_6802" data-name="패스 6802" d="m74.993 216.472-1.917-1.034.248-.46a.331.331 0 0 1 .448-.134l1.335.72a.331.331 0 0 1 .134.448z" transform="translate(-66.768 -196.262)" style="fill:#fd8b62"/>
                <path id="패스_6803" data-name="패스 6803" class="cls-3" d="M73.166 214.819a.173.173 0 0 1-.082-.021l-1.917-1.034a.173.173 0 0 1-.07-.234l.248-.46a.5.5 0 0 1 .682-.2l1.335.72a.5.5 0 0 1 .2.682l-.248.46a.173.173 0 0 1-.152.091m-1.684-1.277 1.614.87.166-.308a.158.158 0 0 0-.064-.214l-1.335-.72a.158.158 0 0 0-.214.064z" transform="translate(-64.941 -194.436)"/>
                <path id="패스_6804" data-name="패스 6804" class="cls-4" d="M101.074 175.64c-.117 1.41-.214 3.959.364 5.1l10.085-.516-.383-5.242a18.807 18.807 0 0 0-.109-4.747" transform="translate(-92.268 -155.539)"/>
                <path id="패스_6805" data-name="패스 6805" class="cls-3" d="M99.622 179.084a.172.172 0 0 1-.154-.095c-.631-1.245-.477-4.045-.382-5.191a.173.173 0 0 1 .344.029c-.091 1.086-.237 3.691.3 4.906l9.794-.5-.37-5.066a.169.169 0 0 1 0-.03 18.744 18.744 0 0 0-.1-4.689.173.173 0 1 1 .335-.082 18.525 18.525 0 0 1 .114 4.79l.382 5.228a.173.173 0 0 1-.163.185l-10.086.516h-.009" transform="translate(-90.452 -153.711)"/>
                <path id="선_194" data-name="선 194" class="cls-4" transform="translate(18.764 18.472)" d="M.109.97 0 0"/>
                <path id="패스_6806" data-name="패스 6806" class="cls-3" d="M215.652 213.308a.173.173 0 0 1-.171-.153l-.109-.97a.173.173 0 0 1 .343-.038l.109.97a.172.172 0 0 1-.152.191h-.019" transform="translate(-196.78 -193.693)"/>
                <path id="패스_6807" data-name="패스 6807" class="cls-10" d="M154.011 224.661s0 3.865 4.87 3.348c0 0-1.51-1.376-1.3-2.252 0 0-2.036-.145-2.811-1.19" transform="translate(-140.716 -205.183)"/>
                <path id="패스_6808" data-name="패스 6808" class="cls-3" d="M156.192 226.4a4.344 4.344 0 0 1-3.007-.987 3.734 3.734 0 0 1-1.173-2.581.173.173 0 0 1 .173-.172.173.173 0 0 1 .173.173 3.443 3.443 0 0 0 1.062 2.327 4.294 4.294 0 0 0 3.248.88 7.062 7.062 0 0 1-.478-.552 2.412 2.412 0 0 1-.63-1.406 4.32 4.32 0 0 1-2.758-1.241.173.173 0 0 1 .277-.206c.719.968 2.665 1.119 2.685 1.12a.172.172 0 0 1 .155.212c-.15.636.853 1.72 1.252 2.084a.173.173 0 0 1-.1.3 8.361 8.361 0 0 1-.881.049m-3.835-3.568z" transform="translate(-138.89 -203.356)"/>
                <path id="패스_6809" data-name="패스 6809" class="cls-10" d="M147.045 196.81s-.084 1.558.6 1.719l.756-.093.581-1.316-.519-1.1s-.893-.346-1.417.794" transform="translate(-134.349 -179.05)"/>
                <path id="패스_6810" data-name="패스 6810" class="cls-3" d="M145.815 196.836a.173.173 0 0 1-.04 0c-.358-.085-.589-.442-.686-1.061a4.46 4.46 0 0 1-.045-.835.172.172 0 0 1 .016-.063 1.313 1.313 0 0 1 1.636-.883.173.173 0 0 1 .094.088l.519 1.1a.173.173 0 0 1 0 .143l-.582 1.316a.173.173 0 0 1-.137.1l-.756.093h-.021m-.427-1.85c-.015.386.036 1.365.441 1.5l.624-.077.51-1.155-.452-.962c-.185-.043-.746-.1-1.123.693" transform="translate(-132.52 -177.185)"/>
                <path id="패스_6811" data-name="패스 6811" class="cls-4" d="m123.313 195.458.919 1.969a.68.68 0 0 0 .132.2c.184.184.415.205.752-.039l1.159-.831 1.2.907a.507.507 0 0 0 .741-.09l1.251-2.033" transform="translate(-112.668 -178.586)"/>
                <path id="패스_6812" data-name="패스 6812" class="cls-3" d="M125.99 196.125a.738.738 0 0 1-.443-.155l-1.1-.831-1.055.757c-.383.277-.711.285-.975.021a.853.853 0 0 1-.167-.245l-.919-1.969a.173.173 0 1 1 .313-.146l.919 1.969a.51.51 0 0 0 .1.146c.091.091.215.17.529-.057l1.159-.832a.172.172 0 0 1 .2 0l1.2.907a.379.379 0 0 0 .28.083.33.33 0 0 0 .215-.132l1.247-2.026a.173.173 0 1 1 .294.181l-1.251 2.033-.009.013a.678.678 0 0 1-.447.273.657.657 0 0 1-.093.007" transform="translate(-110.841 -176.758)"/>
                <path id="선_195" data-name="선 195" class="cls-4" transform="translate(5.237 24.259)" d="M3.355 1.809 0 0"/>
                <path id="패스_6813" data-name="패스 6813" class="cls-3" d="M62.2 281.178a.171.171 0 0 1-.082-.021l-3.355-1.809a.173.173 0 1 1 .164-.3l3.355 1.809a.173.173 0 0 1-.082.324" transform="translate(-53.605 -254.938)"/>
                <path id="패스_6814" data-name="패스 6814" class="cls-5" d="M44.843 271.071c.1-.385-.428-1-.8-1.183l-1.321-.558a.854.854 0 0 0-.087-.036l-.938-.4a.948.948 0 0 0-1.22.455l-.651 1.427a.827.827 0 0 0 .477 1.069l1.027.5 1.36.52.672.257.608-1.052s.6-.538.32-.59z" transform="translate(-36.34 -245.616)"/>
                <path id="패스_6815" data-name="패스 6815" class="cls-3" d="M41.57 277.116a.171.171 0 0 1-.072-.016l-3.016-1.387a1 1 0 0 1-.526-1.309l.634-1.345a.173.173 0 1 1 .312.147l-.631 1.339a.655.655 0 0 0 .35.852l3.021 1.389a.173.173 0 0 1-.072.329" transform="translate(-34.606 -249.397)"/>
                <path id="패스_6816" data-name="패스 6816" class="cls-3" d="M79.846 314.74a1.186 1.186 0 0 1-.453-.09l-.613-.253a.173.173 0 0 1 .131-.319l.613.253a.862.862 0 0 0 1.113-.449.173.173 0 1 1 .316.138 1.21 1.21 0 0 1-1.108.72" transform="translate(-71.882 -286.692)"/>
                <path id="패스_6817" data-name="패스 6817" class="cls-3" d="M69.962 280.259a.173.173 0 0 1-.156-.246l.406-.866v-.007a1.036 1.036 0 0 1 1.374-.468.173.173 0 1 1-.152.31.692.692 0 0 0-.915.316l-.4.862a.173.173 0 0 1-.156.1" transform="translate(-63.765 -254.522)"/>
                <path id="패스_6818" data-name="패스 6818" class="cls-3" d="M49.5 270.609a.173.173 0 0 1-.124-.293l1.124-1.156c.085-.262-.463-.732-.882-.94l-2.34-.989a.777.777 0 0 0-1 .372.173.173 0 1 1-.31-.152 1.122 1.122 0 0 1 1.442-.538l2.345.991h.009a2.937 2.937 0 0 1 .761.551c.384.4.362.694.276.872a.174.174 0 0 1-.032.045l-1.142 1.18a.172.172 0 0 1-.124.053" transform="translate(-41.984 -243.792)"/>
                <path id="패스_6819" data-name="패스 6819" class="cls-3" d="M55.347 274.352a.173.173 0 0 1-.159-.24l.443-1.037.006-.013a1.063 1.063 0 0 1 1.4-.465.173.173 0 1 1-.152.31.716.716 0 0 0-.936.311l-.44 1.03a.173.173 0 0 1-.159.1" transform="translate(-50.412 -248.97)"/>
                <path id="패스_6820" data-name="패스 6820" class="cls-3" d="M82.99 183.685a.173.173 0 0 1-.121-.3 5.881 5.881 0 0 1 2.533-1.395 21.663 21.663 0 0 1 3.117-.735.173.173 0 0 1 .053.341 21.34 21.34 0 0 0-3.068.723 5.558 5.558 0 0 0-2.392 1.311.172.172 0 0 1-.121.05" transform="translate(-75.668 -165.611)"/>
                <path id="패스_6821" data-name="패스 6821" class="cls-11" d="m286.236 254.461.79-1.238a.459.459 0 0 1 .657-.154l3.62 2.474a.592.592 0 0 1-.343 1.081l-1.66.107" transform="translate(-261.528 -231.152)"/>
                <path id="패스_6822" data-name="패스 6822" class="cls-3" d="M287.472 255.079a.173.173 0 0 1-.011-.345l1.66-.107h.014a.419.419 0 0 0 .243-.766l-3.62-2.474a.287.287 0 0 0-.41.1v.008l-.79 1.238a.173.173 0 0 1-.291-.186l.787-1.234a.632.632 0 0 1 .9-.208l3.62 2.475a.76.76 0 0 1 .3.861.77.77 0 0 1-.729.535l-1.654.107h-.011" transform="translate(-259.701 -229.327)"/>
                <path id="패스_6823" data-name="패스 6823" class="cls-11" d="M3.968 343.82H2.554a.545.545 0 0 0-.3 1l3.756 2.461a.423.423 0 0 0 .6-.151l.722-1.32" transform="translate(-1.834 -314.14)"/>
                <path id="패스_6824" data-name="패스 6824" class="cls-3" d="M4.408 345.7a.6.6 0 0 1-.327-.1l-3.755-2.462a.718.718 0 0 1 .393-1.318h1.415a.173.173 0 0 1 0 .345H.719a.373.373 0 0 0-.2.684l3.755 2.461a.25.25 0 0 0 .357-.089l.722-1.32a.173.173 0 0 1 .3.166l-.722 1.32a.595.595 0 0 1-.522.31" transform="translate(0 -312.313)"/>
                <path id="패스_6825" data-name="패스 6825" class="cls-3" d="M24.5 274.618a8.12 8.12 0 0 1 7.014-4.806l10.158-.273s2.82 1.812 5.509-1.437l3.207 2.422a8.621 8.621 0 0 1-6.332 3.759c-2.031.2-5.082-.459-7.115-.636-6.263-.545-7.189 1.332-9.139 3.068z" transform="translate(-22.382 -244.959)"/>
                <path id="패스_6826" data-name="패스 6826" class="cls-3" d="m25.563 274.42-3.531-2.244.052-.133a8.209 8.209 0 0 1 1.584-2.364 8.048 8.048 0 0 1 5.582-2.552l10.215-.274.045.029a3.692 3.692 0 0 0 1.677.473 4.422 4.422 0 0 0 3.606-1.875l.105-.127 3.462 2.614-.078.133a7.807 7.807 0 0 1-1.566 1.761 8.857 8.857 0 0 1-4.9 2.083 23.269 23.269 0 0 1-4.948-.361c-.8-.112-1.55-.218-2.2-.275-5.372-.467-6.721.835-8.283 2.343-.231.223-.471.454-.726.682zm-3.1-2.38 3.066 1.948c.215-.195.42-.393.619-.586 1.555-1.5 3.024-2.92 8.552-2.438.658.057 1.415.164 2.217.277a23.078 23.078 0 0 0 4.865.359 8.543 8.543 0 0 0 6.117-3.547l-2.948-2.226a4.811 4.811 0 0 1-3.8 1.873 4.049 4.049 0 0 1-1.784-.5l-10.107.271a7.706 7.706 0 0 0-5.344 2.443 8.291 8.291 0 0 0-1.458 2.124" transform="translate(-20.13 -242.448)"/>
                <path id="패스_6827" data-name="패스 6827" class="cls-6" d="M212.65 178.622s.362 1.875.516 3.532l.121 1.148.507-.384a1.2 1.2 0 0 0 .492-1.074 26.622 26.622 0 0 0-.6-3.76z" transform="translate(-194.294 -162.712)"/>
                <path id="패스_6828" data-name="패스 6828" class="cls-3" d="M211.46 181.649a.173.173 0 0 1-.172-.155l-.121-1.148c-.152-1.631-.51-3.5-.514-3.517a.173.173 0 0 1 .09-.186l1.031-.537a.173.173 0 0 1 .248.114 26.377 26.377 0 0 1 .609 3.792 1.374 1.374 0 0 1-.56 1.219l-.507.384a.172.172 0 0 1-.1.035m-.443-4.759c.083.45.364 2.022.495 3.422l.088.842.264-.2a1.03 1.03 0 0 0 .423-.929 24.76 24.76 0 0 0-.551-3.511z" transform="translate(-192.467 -160.885)"/>
                <path id="패스_6829" data-name="패스 6829" class="cls-4" d="M102.162 209.257c-.132.584-.284 1.31-.4 2.038l-.024.368" transform="translate(-92.955 -191.194)"/>
                <path id="패스_6830" data-name="패스 6830" class="cls-3" d="M99.911 210.007H99.9a.173.173 0 0 1-.161-.184l.024-.368v-.016c.1-.621.235-1.31.4-2.049a.173.173 0 1 1 .337.076c-.165.728-.3 1.407-.4 2.019l-.024.36a.173.173 0 0 1-.172.161" transform="translate(-91.129 -189.365)"/>
                <path id="패스_6831" data-name="패스 6831" class="cls-3" d="M146.958 202.131a.172.172 0 0 1-.11-.04l-.8-.664a.173.173 0 1 1 .22-.266l.7.576.713-.542a.173.173 0 1 1 .209.275l-.822.625a.173.173 0 0 1-.1.035" transform="translate(-133.383 -183.761)"/>
                <path id="패스_6832" data-name="패스 6832" class="cls-5" d="m57.343 100.138-.508-.075a1.628 1.628 0 0 1 .475-3.222l.508.075" transform="translate(-50.658 -88.465)"/>
                <path id="패스_6833" data-name="패스 6833" class="cls-3" d="M55.515 98.481h-.025l-.508-.075a1.8 1.8 0 1 1 .526-3.563l.508.075a.173.173 0 1 1-.05.341l-.508-.075a1.456 1.456 0 1 0-.425 2.88l.508.075a.173.173 0 0 1-.025.343" transform="translate(-48.83 -86.636)"/>
                <path id="패스_6834" data-name="패스 6834" class="cls-5" d="m241.82 105.986.56.083a1.683 1.683 0 1 0 .491-3.329l-.343-.051.2-1.371" transform="translate(-220.946 -92.572)"/>
                <path id="패스_6835" data-name="패스 6835" class="cls-3" d="M240.8 104.431a1.867 1.867 0 0 1-.272-.02l-.56-.083a.173.173 0 1 1 .05-.341l.56.083a1.51 1.51 0 0 0 .441-2.988l-.343-.051a.173.173 0 0 1-.146-.2l.2-1.371a.173.173 0 1 1 .342.05l-.177 1.2.172.025a1.855 1.855 0 0 1-.27 3.691" transform="translate(-219.119 -90.744)"/>
                <path id="선_196" data-name="선 196" class="cls-4" transform="translate(21.137 11.736)" d="m0 0 .779.115"/>
                <path id="패스_6836" data-name="패스 6836" class="cls-3" d="M243.814 134.419h-.025l-.779-.115a.173.173 0 0 1 .05-.342l.779.115a.173.173 0 0 1-.025.343" transform="translate(-221.897 -122.395)"/>
                <path id="패스_6837" data-name="패스 6837" class="cls-5" d="m91.8 32-.635 4.3a6.65 6.65 0 0 1-7.527 5.591l-1.188-.175a6.65 6.65 0 0 1-5.591-7.527l.709-4.95 7.56-3.218" transform="translate(-70.159 -23.777)"/>
                <path id="패스_6838" data-name="패스 6838" class="cls-3" d="M82.776 40.311a6.83 6.83 0 0 1-1-.073l-1.188-.175a6.811 6.811 0 0 1-5.737-7.723l.709-4.949a.173.173 0 0 1 .1-.134l7.56-3.218a.173.173 0 0 1 .135.318l-7.47 3.18-.685 4.852a6.465 6.465 0 0 0 5.446 7.332l1.188.175a6.465 6.465 0 0 0 7.331-5.446l.635-4.3a.173.173 0 1 1 .342.05l-.642 4.3a6.814 6.814 0 0 1-6.726 5.81" transform="translate(-68.326 -21.95)"/>
                <path id="패스_6839" data-name="패스 6839" class="cls-3" d="M82.8 9.583c-1.366-1.16-2.175-1.377-3.274-3.109 0 0-.1 1.621-5.627 2.1a4.756 4.756 0 0 0-3.106 1.5 3.56 3.56 0 0 1-.648-3.874 3.2 3.2 0 0 1 1.49-1.41c.631-.3 1.646-.795 2.572-1.337 2.155-1.263 4.59-2.521 6.92 0a3.723 3.723 0 0 1 4.885 2.606 17.191 17.191 0 0 1 .732 2.807 4.336 4.336 0 0 1-1.891 3.717.124.124 0 0 1-.208-.062 5 5 0 0 0-1.093-2.249 6.013 6.013 0 0 0-.754-.693" transform="translate(-63.772 -1.827)"/>
                <path id="패스_6840" data-name="패스 6840" class="cls-3" d="M82.963 10.968a.286.286 0 0 1-.1-.017.294.294 0 0 1-.183-.207 4.816 4.816 0 0 0-1.058-2.183 4.437 4.437 0 0 0-.583-.546l-.151-.126a17.676 17.676 0 0 0-1.061-.825 7.427 7.427 0 0 1-2.066-2.047 2.171 2.171 0 0 1-.682.646 11.458 11.458 0 0 1-4.965 1.253 4.634 4.634 0 0 0-2.97 1.412l-.114.206-.162-.172A3.761 3.761 0 0 1 68.2 4.3a3.386 3.386 0 0 1 1.57-1.487c.668-.314 1.655-.8 2.559-1.33A9.772 9.772 0 0 1 75.783.039a4.014 4.014 0 0 1 3.6 1.394 4.171 4.171 0 0 1 2.881.158 4.222 4.222 0 0 1 2.116 2.59 17.108 17.108 0 0 1 .74 2.844 4.534 4.534 0 0 1-1.962 3.875.336.336 0 0 1-.195.066m-1.848-3.341.148.124a4.755 4.755 0 0 1 .627.59A5.09 5.09 0 0 1 83 10.59a4.164 4.164 0 0 0 1.778-3.525 17.108 17.108 0 0 0-.723-2.77A3.893 3.893 0 0 0 82.117 1.9a3.893 3.893 0 0 0-2.725-.11l-.109.04-.079-.085A3.726 3.726 0 0 0 75.829.381a9.5 9.5 0 0 0-3.33 1.4 34.054 34.054 0 0 1-2.586 1.345A3.04 3.04 0 0 0 68.5 4.455a3.258 3.258 0 0 0 .483 3.509 5.3 5.3 0 0 1 3.1-1.393c5.235-.449 5.468-1.924 5.47-1.939l.037-.532.285.454a7.145 7.145 0 0 0 2.16 2.23c.318.234.679.5 1.08.84" transform="translate(-61.976)"/>
                <path id="패스_6841" data-name="패스 6841" class="cls-3" d="M136.407 115.312a.418.418 0 1 1-.353-.475.419.419 0 0 1 .353.475" transform="translate(-123.871 -104.92)"/>
                <path id="패스_6842" data-name="패스 6842" class="cls-3" d="M135.263 115.006a.5.5 0 0 1-.072-.005.486.486 0 1 1 .072.005m0-.837a.35.35 0 1 0 .052 0 .347.347 0 0 0-.052 0" transform="translate(-123.141 -104.188)"/>
                <path id="패스_6843" data-name="패스 6843" class="cls-3" d="M176.6 121.3a.418.418 0 1 1-.353-.475.419.419 0 0 1 .353.475" transform="translate(-160.599 -110.39)"/>
                <path id="패스_6844" data-name="패스 6844" class="cls-3" d="M175.459 121a.49.49 0 0 1-.071-.005.487.487 0 1 1 .071.005m0-.837a.35.35 0 1 0 .051 0 .343.343 0 0 0-.051 0" transform="translate(-159.868 -109.66)"/>
                <path id="패스_6845" data-name="패스 6845" class="cls-3" d="m134.114 138.85-.17 1.3a2.218 2.218 0 1 1-4.389-.648l.17-1.3a.413.413 0 0 1 .468-.348l3.573.527a.412.412 0 0 1 .348.468" transform="translate(-118.35 -125.951)"/>
                <path id="패스_6846" data-name="패스 6846" class="cls-3" d="M129.922 140.4a2.41 2.41 0 0 1-.351-.026 2.4 2.4 0 0 1-2.016-2.714l.169-1.3a.587.587 0 0 1 .665-.5l3.573.527a.585.585 0 0 1 .494.663l-.17 1.3a2.4 2.4 0 0 1-2.364 2.045m-1.618-4.2a.24.24 0 0 0-.237.2l-.169 1.3a2.045 2.045 0 0 0 4.047.6l.17-1.3a.24.24 0 0 0-.2-.272l-3.573-.527h-.035" transform="translate(-116.521 -124.124)"/>
                <path id="패스_6847" data-name="패스 6847" class="cls-4" d="m138.177 139.575-.06.405a.6.6 0 0 1-.676.5l-2.654-.392a.6.6 0 0 1-.5-.676l.06-.405a.287.287 0 0 1 .325-.242l3.264.482a.287.287 0 0 1 .242.325" transform="translate(-122.689 -126.786)"/>
                <path id="패스_6848" data-name="패스 6848" class="cls-3" d="M135.7 138.833a.768.768 0 0 1-.113-.008l-2.654-.392a.77.77 0 0 1-.647-.872l.06-.405a.46.46 0 0 1 .521-.387l3.264.482a.46.46 0 0 1 .387.521l-.06.405a.77.77 0 0 1-.759.656m-2.9-1.724a.114.114 0 0 0-.113.1l-.06.405a.424.424 0 0 0 .356.48l2.654.392a.424.424 0 0 0 .48-.356l.06-.405a.114.114 0 0 0-.1-.129l-3.264-.482h-.012" transform="translate(-120.86 -124.958)"/>
                <path id="선_197" data-name="선 197" class="cls-4" transform="translate(5.951 9.918)" d="m0 0 .681.1"/>
                <path id="패스_6849" data-name="패스 6849" class="cls-3" d="M67.791 113.343h-.025l-.681-.1a.173.173 0 1 1 .05-.341l.681.1a.173.173 0 0 1-.025.343" transform="translate(-61.159 -103.151)"/>
                <g id="그룹_5088" data-name="그룹 5088" transform="translate(9.229 1.288)" style="opacity:.39">
                    <g id="그룹_5087" data-name="그룹 5087">
                        <g id="그룹_5086" data-name="그룹 5086" style="clip-path:url(#clip-path-3)">
                            <path id="패스_6850" data-name="패스 6850" class="cls-4" d="M121.579 16.752a.289.289 0 0 1-.114-.537c.13-.076.257-.153.382-.228a7.848 7.848 0 0 1 2.326-1.056.289.289 0 1 1 .137.562 7.384 7.384 0 0 0-2.165.99c-.127.077-.256.154-.388.231a.288.288 0 0 1-.179.038" transform="translate(-120.078 -14.922)"/>
                            <path id="패스_6851" data-name="패스 6851" class="cls-4" d="M107.569 36.172a.331.331 0 1 1-.291-.366.331.331 0 0 1 .291.366" transform="translate(-106.91 -34.001)"/>
                        </g>
                    </g>
                </g>
                <g id="그룹_5091" data-name="그룹 5091" class="cls-14" transform="translate(7.607 10.539)">
                    <g id="그룹_5090" data-name="그룹 5090">
                        <g id="그룹_5089" data-name="그룹 5089" class="cls-15">
                            <path id="패스_6852" data-name="패스 6852" class="cls-16" d="M91.127 123.013c-.046.407-.756.66-1.585.566s-1.463-.5-1.417-.907.756-.66 1.585-.565 1.463.5 1.417.907" transform="translate(-88.122 -122.087)"/>
                        </g>
                    </g>
                </g>
                <g id="그룹_5094" data-name="그룹 5094" class="cls-14" transform="translate(16.507 11.551)">
                    <g id="그룹_5093" data-name="그룹 5093">
                        <g id="그룹_5092" data-name="그룹 5092" class="cls-15">
                            <path id="패스_6853" data-name="패스 6853" class="cls-16" d="M194.233 134.744c-.046.407-.756.66-1.585.566s-1.463-.5-1.417-.907.756-.66 1.585-.565 1.463.5 1.417.907" transform="translate(-191.229 -133.818)"/>
                        </g>
                    </g>
                </g>
                <path id="패스_6854" data-name="패스 6854" class="cls-3" d="M133.619 97.678a.31.31 0 0 1-.24-.113.785.785 0 0 0-.681-.234.311.311 0 1 1-.059-.619 1.39 1.39 0 0 1 1.22.458.311.311 0 0 1-.24.508" transform="translate(-120.932 -88.356)"/>
                <path id="패스_6855" data-name="패스 6855" class="cls-3" d="M175.122 102.935a.311.311 0 0 1-.2-.551 1.39 1.39 0 0 1 1.286-.212.311.311 0 0 1-.179.6.785.785 0 0 0-.713.1.309.309 0 0 1-.2.07" transform="translate(-159.721 -93.29)"/>
                <path id="패스_6856" data-name="패스 6856" class="cls-3" d="M267.845 111.076a.172.172 0 0 1-.126-.055l-.539-.579a.173.173 0 1 1 .253-.235l.539.579a.173.173 0 0 1-.126.29" transform="translate(-244.074 -100.643)"/>
                <path id="패스_6857" data-name="패스 6857" class="cls-3" d="M284.283 104.695h-.006a.173.173 0 0 1-.166-.179l.028-.791a.173.173 0 1 1 .345.012l-.028.791a.173.173 0 0 1-.172.166" transform="translate(-259.586 -94.62)"/>
                <path id="패스_6858" data-name="패스 6858" class="cls-3" d="M294.8 112.018a.173.173 0 0 1-.118-.3l.579-.539a.173.173 0 1 1 .235.253l-.579.539a.172.172 0 0 1-.117.046" transform="translate(-269.198 -101.541)"/>
                <path id="패스_6859" data-name="패스 6859" class="cls-3" d="M18.064 148.305a.172.172 0 0 1-.159-.106l-.433-1.038-1.038-.433a.173.173 0 0 1 0-.319l1.038-.433.433-1.037a.173.173 0 0 1 .319 0l.433 1.037 1.038.433a.173.173 0 0 1 0 .319l-1.038.433-.433 1.038a.172.172 0 0 1-.159.106m-1.116-1.736.722.3a.172.172 0 0 1 .093.093l.3.722.3-.722a.172.172 0 0 1 .093-.093l.722-.3-.722-.3a.172.172 0 0 1-.093-.093l-.3-.722-.3.722a.172.172 0 0 1-.093.093z" transform="translate(-14.919 -132.331)"/>
            </g>
        </g>
    </g>
</svg>
