<svg id="logo" xmlns="http://www.w3.org/2000/svg" width="197.721" height="197.328" viewBox="0 0 197.721 197.328">
    <defs>
        <clipPath id="clip-path">
            <path id="사각형_3231" data-name="사각형 3231" class="cls-1" d="M0 0h197.721v197.328H0z"/>
        </clipPath>
        <clipPath id="clip-path-3">
            <path id="사각형_3227" data-name="사각형 3227" class="cls-1" d="M0 0h20.862v11.542H0z"/>
        </clipPath>
        <clipPath id="clip-path-4">
            <path id="사각형_3228" data-name="사각형 3228" class="cls-1" d="M0 0h14.085v7.083H0z"/>
        </clipPath>
        <clipPath id="clip-path-5">
            <path id="사각형_3229" data-name="사각형 3229" class="cls-1" d="M0 0h14.084v7.084H0z"/>
        </clipPath>
        <style>
            .cls-1{fill:none}.cls-2{clip-path:url(#clip-path)}.cls-3{fill:#fff}.cls-4{fill:#5b5652}.cls-5{fill:#fff0e4}.cls-6{fill:#d1d1d1}.cls-7{fill:#e8e589}.cls-10{fill:#9fcef5}.cls-11{fill:#b59a84}.cls-14{opacity:.65}.cls-16{fill:#fdc89d}
        </style>
    </defs>
    <g id="그룹_5334" data-name="그룹 5334" class="cls-2">
        <g id="그룹_5333" data-name="그룹 5333">
            <g id="그룹_5332" data-name="그룹 5332" class="cls-2">
                <path id="패스_7343" data-name="패스 7343" class="cls-3" d="M59.031 98.59a.723.723 0 0 1-.667-.444L56.549 93.8 52.2 91.985a.723.723 0 0 1 0-1.334l4.346-1.815 1.815-4.346a.723.723 0 0 1 1.334 0l1.816 4.346 4.346 1.815a.723.723 0 0 1 0 1.334L61.513 93.8 59.7 98.146a.723.723 0 0 1-.667.444" transform="translate(-15.159 -24.615)"/>
                <path id="패스_7344" data-name="패스 7344" class="cls-4" d="M3.593 253.269a2.744 2.744 0 0 1-1.437-.217 3.082 3.082 0 0 1-1.437-1.387l-.1-.167a2.751 2.751 0 0 1-.519-2.322 2.062 2.062 0 0 1 1.621-1.086 27.048 27.048 0 0 0 7.451-2.355 6.846 6.846 0 0 0 3.408-3.458H4.06a2.459 2.459 0 0 1-1.821-.685 2.46 2.46 0 0 1-.684-1.822v-.17a2.461 2.461 0 0 1 .684-1.821 2.462 2.462 0 0 1 1.821-.679h13.566a2.441 2.441 0 0 1 1.754.651 1.988 1.988 0 0 1 .584 1.72A12.638 12.638 0 0 1 18.111 245a15.44 15.44 0 0 1-3.792 4.093 19.6 19.6 0 0 1-5.062 2.723 29.094 29.094 0 0 1-5.663 1.453m23.088.9a2.357 2.357 0 0 1 2.506 2.506v7.117a2.357 2.357 0 0 1-2.506 2.506H6.2a2.461 2.461 0 0 1-1.822-.685 2.461 2.461 0 0 1-.684-1.821v-7.117a2.461 2.461 0 0 1 .684-1.821 2.464 2.464 0 0 1 1.822-.685zm-16.1 6.817H22.3v-1.636H10.576zm14.234-7.652a2.357 2.357 0 0 1-2.516-2.504V238.8a2.357 2.357 0 0 1 2.51-2.5h1.871a2.357 2.357 0 0 1 2.506 2.506v12.024a2.357 2.357 0 0 1-2.506 2.506z" transform="translate(0 -69.206)"/>
                <path id="패스_7345" data-name="패스 7345" class="cls-4" d="M65.111 259.752a2.357 2.357 0 0 1 2.506 2.506v.635a2.357 2.357 0 0 1-2.506 2.506h-15.47a2.356 2.356 0 0 1-2.506-2.506v-.7a2.322 2.322 0 0 1 .735-1.721 2.444 2.444 0 0 1 1.771-.718h1.737V250.9a2.033 2.033 0 0 1 .569-1.5 2.078 2.078 0 0 1 1.537-.568h2.606a1.953 1.953 0 0 1 2.072 2.071v8.855zm1.6-5.513a2.356 2.356 0 0 1-2.506 2.506h-1.734a2.356 2.356 0 0 1-2.506-2.506v-11.46h-9.789a2.356 2.356 0 0 1-2.506-2.506v-.635a2.356 2.356 0 0 1 2.506-2.506h14.033a2.357 2.357 0 0 1 2.506 2.506zm4.214 12.261a2.356 2.356 0 0 1-2.506-2.5v-25.2a2.357 2.357 0 0 1 2.506-2.506h1.838a2.357 2.357 0 0 1 2.506 2.506v8.32h1.537a2.061 2.061 0 0 1 1.737.735 3.029 3.029 0 0 1 .568 1.9v.668a3.026 3.026 0 0 1-.568 1.9 2.058 2.058 0 0 1-1.737.735h-1.538V264a2.356 2.356 0 0 1-2.506 2.506z" transform="translate(-13.805 -69.207)"/>
                <path id="패스_7346" data-name="패스 7346" class="cls-4" d="M114.184 247.522a1.845 1.845 0 0 1 1.186 1.4 3.129 3.129 0 0 1-.618 2.139 3.592 3.592 0 0 1-1.771 1.571 2.33 2.33 0 0 1-1.738-.067 19.288 19.288 0 0 1-3.425-1.971 12.359 12.359 0 0 1-2.523-2.472 14.453 14.453 0 0 1-1.253 1.52 12.232 12.232 0 0 1-1.437 1.286 16.265 16.265 0 0 1-1.737 1.153 22.76 22.76 0 0 1-2.155 1.086 2.642 2.642 0 0 1-1.788.134 3.527 3.527 0 0 1-2.456-3.542 2.246 2.246 0 0 1 1.4-1.637 14.358 14.358 0 0 0 3.91-2.673 5.816 5.816 0 0 0 1.771-3.175h-3.872a2.356 2.356 0 0 1-2.506-2.506v-.168a2.356 2.356 0 0 1 2.506-2.505h14.535a2.355 2.355 0 0 1 2.505 2.505v.167a2.355 2.355 0 0 1-2.505 2.506h-3.475a4.111 4.111 0 0 0 .6 1.471 7.656 7.656 0 0 0 1.186 1.42 11.011 11.011 0 0 0 1.654 1.286 14.262 14.262 0 0 0 2.005 1.069m-10.659 19.012a8.313 8.313 0 0 1-2.973-.485 6.079 6.079 0 0 1-2.122-1.319 5.246 5.246 0 0 1-1.269-1.988 7.621 7.621 0 0 1 0-4.978 5.246 5.246 0 0 1 1.269-1.988 6.081 6.081 0 0 1 2.122-1.319 8.33 8.33 0 0 1 2.973-.484h13.032a8.338 8.338 0 0 1 2.973.484 6.084 6.084 0 0 1 2.121 1.319 5.248 5.248 0 0 1 1.27 1.988 7.621 7.621 0 0 1 0 4.978 5.248 5.248 0 0 1-1.27 1.988 6.082 6.082 0 0 1-2.121 1.319 8.321 8.321 0 0 1-2.973.485zm1.269-7.384a1.561 1.561 0 0 0-1.035.267 1.311 1.311 0 0 0 0 1.67 1.557 1.557 0 0 0 1.035.267h10.459a1.625 1.625 0 0 0 1.069-.267 1.311 1.311 0 0 0 0-1.67 1.629 1.629 0 0 0-1.069-.267zm13.566-5.814a2.357 2.357 0 0 1-2.506-2.506V238.8a2.357 2.357 0 0 1 2.506-2.506h1.971a2.24 2.24 0 0 1 2.372 2.373v2.773h1.537a2.149 2.149 0 0 1 1.7.685 2.61 2.61 0 0 1 .6 1.788v.868a2.612 2.612 0 0 1-.6 1.788 2.149 2.149 0 0 1-1.7.685H122.7v3.575a2.357 2.357 0 0 1-2.506 2.506z" transform="translate(-27.66 -69.206)"/>
                <path id="패스_7347" data-name="패스 7347" class="cls-4" d="M164.713 250h-3.308a2.042 2.042 0 0 1-1.537-.585 2.13 2.13 0 0 1-.568-1.554v-.8a16.66 16.66 0 0 1-5.647 4.939 25.332 25.332 0 0 1-7.685 2.673 3.13 3.13 0 0 1-.685.066 2.321 2.321 0 0 1-.768-.134 2.907 2.907 0 0 1-.786-.434 3.33 3.33 0 0 1-.769-.869l-.233-.367a2.058 2.058 0 0 1-.351-1.871 1.873 1.873 0 0 1 1.554-1.036 35.442 35.442 0 0 0 3.592-.835 19.789 19.789 0 0 0 2.856-1.069h-4.243a2.341 2.341 0 1 1 0-4.678h8.787a9.023 9.023 0 0 0 .4-1.47h-8.587a2.441 2.441 0 1 1 0-4.878H159.7a2.409 2.409 0 0 1 1.754.668 2.035 2.035 0 0 1 .584 1.737 17.22 17.22 0 0 1-.467 2.69 14.953 14.953 0 0 1-.869 2.456 2.216 2.216 0 0 1 .7-.1h3.308V238.8a2.356 2.356 0 0 1 2.506-2.506h1.871a2.357 2.357 0 0 1 2.513 2.506v16.239a2.357 2.357 0 0 1-2.506 2.506h-1.871a2.356 2.356 0 0 1-2.506-2.506zm4.678 10.658a2.356 2.356 0 0 1 2.506 2.506v.434a2.357 2.357 0 0 1-2.506 2.506h-20.616a2.356 2.356 0 0 1-2.506-2.506v-5.245a2.355 2.355 0 0 1 2.506-2.506h1.971a2.292 2.292 0 0 1 2.406 2.406v2.406z" transform="translate(-41.669 -69.207)"/>
                <path id="패스_7348" data-name="패스 7348" class="cls-4" d="M209.921 246.186a1.565 1.565 0 0 1 .668.535 1.868 1.868 0 0 1 .334.852 3.021 3.021 0 0 1-.049 1.036 3.383 3.383 0 0 1-.451 1.085 4.815 4.815 0 0 1-.886 1.053 2.737 2.737 0 0 1-.9.535 2.034 2.034 0 0 1-.885.1 3.062 3.062 0 0 1-.835-.217 16.087 16.087 0 0 1-3.442-1.988 15.539 15.539 0 0 1-2.64-2.556 16.468 16.468 0 0 1-2.79 2.79 17.538 17.538 0 0 1-3.826 2.289 2.58 2.58 0 0 1-.718.234 2.256 2.256 0 0 1-.818-.017 2.29 2.29 0 0 1-.885-.4 3.89 3.89 0 0 1-.886-.919 3.076 3.076 0 0 1-.685-2.289 2.3 2.3 0 0 1 1.353-1.654 12.126 12.126 0 0 0 4.227-3.241 6.076 6.076 0 0 0 1.387-3.742v-.835a2.264 2.264 0 0 1 .685-1.721 2.531 2.531 0 0 1 1.821-.651h2.038a2.535 2.535 0 0 1 1.821.651 2.266 2.266 0 0 1 .685 1.721v1.063a5.247 5.247 0 0 0 1.52 3.558 12.992 12.992 0 0 0 4.16 2.723m7.785 16.072a2.14 2.14 0 1 1 0 4.277h-21.487a2.357 2.357 0 0 1-2.506-2.506v-3.742a2.356 2.356 0 0 1 2.506-2.506h16.105v-.769h-16.439a2.065 2.065 0 0 1-2.172-2.172 2.069 2.069 0 0 1 .6-1.553 2.158 2.158 0 0 1 1.571-.585H216.7a2.357 2.357 0 0 1 2.506 2.506v3.676a2.356 2.356 0 0 1-2.506 2.506h-16.1v.869zm-7.719-17.81a2.128 2.128 0 0 1-2.272-2.272v-.7a2.191 2.191 0 0 1 .618-1.62 2.238 2.238 0 0 1 1.654-.618h2.339v-.433a2.356 2.356 0 0 1 2.506-2.506h1.865a2.356 2.356 0 0 1 2.506 2.506v10.66a2.357 2.357 0 0 1-2.506 2.506h-1.871a2.357 2.357 0 0 1-2.506-2.506v-5.012z" transform="translate(-55.704 -69.207)"/>
                <path id="패스_7349" data-name="패스 7349" class="cls-4" d="M245.828 242.944h9.79a2.073 2.073 0 1 1 0 4.144h-9.79v1.3h11.126a2.407 2.407 0 1 1 0 4.811h-15.47a2.357 2.357 0 0 1-2.506-2.506v-11.224a2.357 2.357 0 0 1 2.506-2.506h14.167a2.374 2.374 0 1 1 0 4.745h-9.823zm1.4 23.589a8.888 8.888 0 0 1-2.973-.45 5.956 5.956 0 0 1-2.121-1.253 5.051 5.051 0 0 1-1.27-1.888 6.849 6.849 0 0 1 0-4.711 5.037 5.037 0 0 1 1.27-1.887 6.133 6.133 0 0 1 2.121-1.27 8.594 8.594 0 0 1 2.973-.467H260.9a8.739 8.739 0 0 1 2.99.467 6.122 6.122 0 0 1 2.138 1.27 5.051 5.051 0 0 1 1.269 1.887 6.848 6.848 0 0 1 0 4.711 5.065 5.065 0 0 1-1.269 1.888 5.948 5.948 0 0 1-2.138 1.253 9.039 9.039 0 0 1-2.99.45zm1.3-6.849a1.914 1.914 0 0 0-1.069.217.788.788 0 0 0-.3.685.744.744 0 0 0 .3.669 2.048 2.048 0 0 0 1.069.2h11.093a1.951 1.951 0 0 0 1.052-.2.761.761 0 0 0 .284-.669.807.807 0 0 0-.284-.685 1.825 1.825 0 0 0-1.052-.217zM262.7 254a2.357 2.357 0 0 1-2.5-2.5v-12.7a2.357 2.357 0 0 1 2.5-2.5h1.871a2.357 2.357 0 0 1 2.506 2.506v12.7a2.357 2.357 0 0 1-2.505 2.494z" transform="translate(-69.992 -69.206)"/>
                <path id="패스_7350" data-name="패스 7350" class="cls-5" d="m225.165 91.173-3.342-8.668a3.774 3.774 0 0 0-.191-.5l-.426-1.1q-.473-1.226-1.052-2.407l-.622-1.269a4.237 4.237 0 0 0-5.588-1.979c-3.859 1.791-9.559 4.485-11.5 5.653a5.667 5.667 0 0 0-2.416 6.823l.171.409c-5.016 4.086-9.556 5.134-12.92 6.332l-3.54.855 2.391 12.392c5.795-.322 11.363-2.846 18.911-8.077 1.189 2.167 3.723 3.676 6.044 2.886 4.5-1.534 6.044-2.485 11.271-4.881l1.25-.615c2.282-1.089 2.651-3.575 1.558-5.856" transform="translate(-53.814 -21.924)"/>
                <path id="패스_7351" data-name="패스 7351" class="cls-4" d="M185.795 108.192a.808.808 0 0 1-.793-.655l-2.392-12.392a.809.809 0 0 1 .6-.939l3.5-.845a80.459 80.459 0 0 1 1.65-.558 31.955 31.955 0 0 0 10.526-5.255 6.485 6.485 0 0 1 2.8-7.669c1.923-1.156 7.357-3.734 11.577-5.692a5.073 5.073 0 0 1 6.655 2.355l.622 1.269c.394.8.757 1.636 1.08 2.472l.415 1.077a4.457 4.457 0 0 1 .211.547l3.321 8.615a5.747 5.747 0 0 1 .388 4.368 4.42 4.42 0 0 1-2.341 2.538l-1.242.611c-1.423.653-2.558 1.191-3.56 1.665a63.348 63.348 0 0 1-7.807 3.256c-2.542.866-5.106-.563-6.534-2.513-7.6 5.18-13.039 7.433-18.637 7.746h-.045m-1.45-12.6 2.109 10.93c5.205-.457 10.43-2.782 17.793-7.884a.808.808 0 0 1 1.169.276c.95 1.731 3.053 3.2 5.074 2.51a61.142 61.142 0 0 0 7.636-3.186 282.954 282.954 0 0 1 3.559-1.665l1.23-.605a2.812 2.812 0 0 0 1.522-1.621 4.173 4.173 0 0 0-.336-3.16 1.044 1.044 0 0 1-.025-.059l-3.342-8.668-.018-.049a2.892 2.892 0 0 0-.148-.389q-.014-.028-.025-.057l-.426-1.1a29.15 29.15 0 0 0-1.023-2.342l-.622-1.269a3.447 3.447 0 0 0-4.521-1.6c-5.914 2.746-9.972 4.738-11.424 5.612a4.866 4.866 0 0 0-2.08 5.835l.164.393a.807.807 0 0 1-.235.938 32.951 32.951 0 0 1-11.5 5.907c-.578.192-1.131.374-1.655.561a.672.672 0 0 1-.081.024z" transform="translate(-53.479 -21.592)"/>
                <path id="패스_7352" data-name="패스 7352" class="cls-5" d="m232.731 90.281 2.073-.926c1.585-.651 1.917-2.837 1.177-4.383" transform="translate(-68.162 -24.887)"/>
                <path id="패스_7353" data-name="패스 7353" class="cls-4" d="M232.4 90.755a.809.809 0 0 1-.33-1.547l2.073-.926a1.648 1.648 0 0 0 .9-.967 3.088 3.088 0 0 0-.124-2.328.809.809 0 1 1 1.459-.7 4.709 4.709 0 0 1 .175 3.606 3.188 3.188 0 0 1-1.773 1.874l-2.051.916a.8.8 0 0 1-.329.071" transform="translate(-67.827 -24.552)"/>
                <path id="패스_7354" data-name="패스 7354" class="cls-5" d="M220.215 92.585a3.408 3.408 0 0 0 4.5 1.839l4.354-1.945" transform="translate(-64.497 -27.086)"/>
                <path id="패스_7355" data-name="패스 7355" class="cls-4" d="M223.011 95.131a4.034 4.034 0 0 1-3.889-2.6.809.809 0 0 1 1.517-.561 2.622 2.622 0 0 0 3.443 1.365l4.318-1.929a.809.809 0 1 1 .66 1.476l-4.354 1.945a.6.6 0 0 1-.07.028 5.048 5.048 0 0 1-1.624.274" transform="translate(-64.162 -26.751)"/>
                <path id="패스_7356" data-name="패스 7356" class="cls-5" d="m205.093 90.017-4.219-9.528a4.525 4.525 0 0 1 2.373-5.881l.109-.048a4.466 4.466 0 0 1 5.733 2l2.467 5.636" transform="translate(-58.731 -21.727)"/>
                <path id="패스_7357" data-name="패스 7357" class="cls-4" d="M204.761 90.494a.81.81 0 0 1-.74-.482l-4.22-9.528a5.365 5.365 0 0 1 2.79-6.95l.108-.047a5.3 5.3 0 0 1 6.771 2.361c.011.018.018.037.028.055l2.467 5.637a.809.809 0 0 1-1.481.648l-2.455-5.607a3.673 3.673 0 0 0-4.68-1.613l-.1.042a3.739 3.739 0 0 0-1.964 4.837l4.212 9.511a.808.808 0 0 1-.739 1.136" transform="translate(-58.399 -21.395)"/>
                <path id="패스_7358" data-name="패스 7358" class="cls-4" d="M227.475 102.758a4.305 4.305 0 0 1-4.062-2.775L219.05 90l-.018-.042a4.33 4.33 0 0 1 2.517-5.538l4.341-1.82a.809.809 0 0 1 .624 1.492l-4.366 1.826a2.716 2.716 0 0 0-1.607 3.454l4.363 9.982.018.043a2.751 2.751 0 0 0 3.513 1.583.809.809 0 1 1 .519 1.532 4.618 4.618 0 0 1-1.479.246" transform="translate(-64.072 -24.174)"/>
                <path id="패스_7359" data-name="패스 7359" class="cls-4" d="M226.62 101.077a4.432 4.432 0 0 1-4.161-2.847.809.809 0 0 1 1.517-.562 2.824 2.824 0 0 0 3.5 1.658l6.013-2.956a2.147 2.147 0 0 0 1.043-2.881.809.809 0 0 1 1.459-.7 3.766 3.766 0 0 1-1.8 5.038l-6.048 2.974a.963.963 0 0 1-.1.04 4.426 4.426 0 0 1-1.426.235" transform="translate(-65.139 -27.042)"/>
                <path id="패스_7360" data-name="패스 7360" class="cls-4" d="M216.554 101.666a.809.809 0 0 1-.311-1.556 4.421 4.421 0 0 0 2.714-2.56 6.212 6.212 0 0 0-.627-4.436.809.809 0 0 1 1.4-.807c.069.121 1.695 3 .757 5.763a5.956 5.956 0 0 1-3.624 3.534.806.806 0 0 1-.31.062" transform="translate(-63.187 -26.916)"/>
                <path id="패스_7361" data-name="패스 7361" class="cls-6" d="M147.622 110.109a10.682 10.682 0 0 1 11.55 9.737l1.185 13.907a10.682 10.682 0 0 1-9.737 11.55l-37.85 3.224" transform="translate(-33.028 -32.237)"/>
                <path id="패스_7362" data-name="패스 7362" class="cls-4" d="M112.434 149a.809.809 0 0 1-.068-1.614l37.85-3.224a9.873 9.873 0 0 0 9-10.676l-1.184-13.906a9.874 9.874 0 0 0-10.676-9 .809.809 0 0 1-.137-1.612 11.491 11.491 0 0 1 12.425 10.475l1.184 13.907a11.49 11.49 0 0 1-10.474 12.424L112.5 149h-.069" transform="translate(-32.693 -31.902)"/>
                <path id="패스_7363" data-name="패스 7363" class="cls-3" d="M170.286 115.7c8.7 1.071 17.7-1.79 31.763-8.814l-7.242-14.076c-8.317 5.362-15.078 5.631-20.069 6.457l-4.654.274" transform="translate(-49.814 -27.183)"/>
                <path id="패스_7364" data-name="패스 7364" class="cls-4" d="M173.57 116.4a30.258 30.258 0 0 1-3.717-.229.809.809 0 0 1 .2-1.605c7.949.979 16.284-1.294 30.569-8.37l-6.462-12.562c-6.945 4.278-12.725 5.1-17.4 5.767-.781.112-1.52.216-2.221.332-.028 0-.057.008-.084.01l-4.654.274a.8.8 0 0 1-.855-.759.809.809 0 0 1 .759-.855l4.612-.272c.707-.116 1.44-.221 2.215-.331 4.688-.668 10.522-1.5 17.505-6a.808.808 0 0 1 1.157.31l7.242 14.075a.809.809 0 0 1-.357 1.093c-12.865 6.428-21.113 9.123-28.506 9.123" transform="translate(-49.48 -26.848)"/>
                <path id="패스_7365" data-name="패스 7365" class="cls-5" d="m67.566 160.591-2.6 3.628-4.617-2.149-.483-4.378" transform="translate(-17.533 -46.185)"/>
                <path id="패스_7366" data-name="패스 7366" class="cls-5" d="M59.688 157.692s-2.208 4.483 3.5 6.066" transform="translate(-17.359 -46.185)"/>
                <path id="패스_7367" data-name="패스 7367" class="cls-4" d="M62.858 164.232a.818.818 0 0 1-.216-.03 5.9 5.9 0 0 1-4.131-3.041 5.29 5.29 0 0 1 .117-4.161.809.809 0 0 1 1.452.711 3.684 3.684 0 0 0-.089 2.8 4.417 4.417 0 0 0 3.082 2.132.809.809 0 0 1-.216 1.588" transform="translate(-17.024 -45.85)"/>
                <path id="패스_7368" data-name="패스 7368" class="cls-3" d="m97.781 135.434-20.926 1.518c.6-8.157 3.149-16.52 9.089-22.4 3.232-3.2 7.249-5.012 11.534-6.337a101.651 101.651 0 0 1 14.487-3.416" transform="translate(-22.509 -30.694)"/>
                <path id="패스_7369" data-name="패스 7369" class="cls-4" d="M76.52 137.426a.808.808 0 0 1-.806-.868c.494-6.731 2.512-16.171 9.326-22.914 2.913-2.883 6.573-4.9 11.864-6.534a101.482 101.482 0 0 1 14.6-3.443.809.809 0 1 1 .247 1.6 99.866 99.866 0 0 0-14.371 3.389c-5.03 1.556-8.485 3.449-11.2 6.139-6.152 6.088-8.186 14.578-8.774 20.949l19.983-1.45a.809.809 0 1 1 .117 1.613l-20.926 1.518h-.059" transform="translate(-22.175 -30.359)"/>
                <path id="패스_7370" data-name="패스 7370" class="cls-6" d="m101.035 110.066-.323.97s-2.064 7.669-3.3 15.366l-.344 2.454-3.1-1.347a2.84 2.84 0 0 1-1.693-2.912 54.639 54.639 0 0 1 1.3-7.342 40.643 40.643 0 0 1 1.2-4.022" transform="translate(-27.021 -32.236)"/>
                <path id="패스_7371" data-name="패스 7371" class="cls-4" d="M96.731 129.33a.8.8 0 0 1-.322-.067l-3.1-1.346a3.632 3.632 0 0 1-2.174-3.743 55.7 55.7 0 0 1 1.316-7.443l.151-.632c.3-1.277.649-2.725 1.06-3.887a.809.809 0 0 1 1.525.539c-.383 1.082-.717 2.486-1.012 3.723l-.153.637a54.174 54.174 0 0 0-1.28 7.24 2.02 2.02 0 0 0 1.211 2.082l2.123.923.2-1.4c1.231-7.666 3.3-15.387 3.32-15.464 0-.016.009-.031.013-.046l.323-.97a.809.809 0 0 1 1.534.511l-.315.947c-.124.465-2.094 7.9-3.276 15.262l-.343 2.439a.808.808 0 0 1-.8.7" transform="translate(-26.685 -31.901)"/>
                <path id="패스_7372" data-name="패스 7372" class="cls-7" d="m77.952 158.271-33.739-18.2 11.078-20.541 4.384-1.616 22.661 38.737z" transform="translate(-12.949 -34.536)"/>
                <path id="패스_7373" data-name="패스 7373" class="cls-4" d="M77.618 158.744a.806.806 0 0 1-.384-.1L43.5 140.451a.808.808 0 0 1-.327-1.1l11.078-20.54a.808.808 0 0 1 .431-.375l4.385-1.616a.808.808 0 0 1 .977.35L82.7 155.911a.808.808 0 0 1-.418 1.167l-4.382 1.616a.812.812 0 0 1-.279.05m-32.647-19.332 32.706 17.639 3.136-1.156-21.831-37.319-3.462 1.276z" transform="translate(-12.615 -34.201)"/>
                <path id="사각형_3226" data-name="사각형 3226" class="cls-7" transform="rotate(-61.662 104.883 22.098)" d="M0 0h23.338v38.333H0z"/>
                <path id="패스_7374" data-name="패스 7374" class="cls-4" d="M83.817 157.129a.814.814 0 0 1-.384-.1l-33.739-18.2a.807.807 0 0 1-.327-1.1L60.445 117.2a.807.807 0 0 1 1.1-.328l33.739 18.2a.808.808 0 0 1 .328 1.1L84.528 156.7a.808.808 0 0 1-.711.425M51.173 137.8l32.315 17.428L93.8 136.107l-32.316-17.428z" transform="translate(-14.43 -34.201)"/>
                <path id="패스_7375" data-name="패스 7375" d="m76.559 122.34-8.983-4.84 1.162-2.155a1.549 1.549 0 0 1 2.1-.628l6.254 3.373a1.549 1.549 0 0 1 .628 2.1z" transform="translate(-19.792 -33.543)" style="fill:#66bd82"/>
                <path id="패스_7376" data-name="패스 7376" class="cls-4" d="M76.223 122.813a.8.8 0 0 1-.383-.1l-8.983-4.844a.808.808 0 0 1-.327-1.1l1.162-2.155a2.358 2.358 0 0 1 3.195-.956l6.254 3.373a2.36 2.36 0 0 1 .956 3.195l-1.162 2.155a.808.808 0 0 1-.712.425m-7.886-5.981 7.559 4.077.779-1.443a.742.742 0 0 0-.3-1l-6.254-3.373a.742.742 0 0 0-1 .3z" transform="translate(-19.457 -33.207)"/>
                <path id="패스_7377" data-name="패스 7377" d="m91.977 130.655-8.983-4.844 1.163-2.155a1.549 1.549 0 0 1 2.1-.628l6.253 3.372a1.549 1.549 0 0 1 .628 2.1z" transform="translate(-24.307 -35.978)" style="fill:#fd8b62"/>
                <path id="패스_7378" data-name="패스 7378" class="cls-4" d="M91.642 131.129a.805.805 0 0 1-.383-.1l-8.983-4.844a.808.808 0 0 1-.327-1.1l1.162-2.155a2.361 2.361 0 0 1 3.195-.957l6.254 3.374a2.358 2.358 0 0 1 .956 3.195l-1.162 2.158a.809.809 0 0 1-.712.425m-7.887-5.981 7.559 4.077.778-1.443a.74.74 0 0 0-.3-1l-6.254-3.378a.742.742 0 0 0-1 .3z" transform="translate(-23.973 -35.643)"/>
                <path id="패스_7379" data-name="패스 7379" class="cls-3" d="M99.373 122.679c-.55 6.6-1 18.546 1.7 23.886l47.248-2.415-1.8-24.559s1.418-14.342-.508-22.239" transform="translate(-28.982 -28.513)"/>
                <path id="패스_7380" data-name="패스 7380" class="cls-4" d="M100.744 147.04a.808.808 0 0 1-.721-.443c-2.958-5.833-2.237-18.951-1.789-24.32a.809.809 0 0 1 1.612.134c-.424 5.087-1.112 17.29 1.4 22.984l45.881-2.345-1.735-23.734a.824.824 0 0 1 0-.139c.014-.142 1.382-14.3-.489-21.968a.809.809 0 1 1 1.571-.383c1.889 7.74.652 21.22.535 22.441l1.79 24.49a.808.808 0 0 1-.765.866l-47.247 2.416h-.042" transform="translate(-28.649 -28.178)"/>
                <path id="선_753" data-name="선 753" class="cls-3" transform="translate(117.038 86.535)" d="M.508 4.544 0 0"/>
                <path id="패스_7381" data-name="패스 7381" class="cls-4" d="M165.686 127.4a.808.808 0 0 1-.8-.718l-.508-4.545a.809.809 0 0 1 1.607-.18l.508 4.544a.808.808 0 0 1-.8.9" transform="translate(-48.141 -35.507)"/>
                <path id="패스_7382" data-name="패스 7382" class="cls-10" d="M129.279 128.864s-.008 18.106 22.814 15.683c0 0-7.075-6.446-6.106-10.548 0 0-9.536-.682-13.169-5.573" transform="translate(-37.863 -37.614)"/>
                <path id="패스_7383" data-name="패스 7383" class="cls-4" d="M147.718 145.243c-5.942 0-10.669-1.549-14.087-4.624a17.5 17.5 0 0 1-5.5-12.092.808.808 0 0 1 .808-.808.808.808 0 0 1 .808.809 16.132 16.132 0 0 0 4.975 10.9c3.517 3.155 8.628 4.54 15.215 4.123a33.3 33.3 0 0 1-2.24-2.584c-1.995-2.573-2.983-4.782-2.949-6.585-2.483-.3-9.721-1.507-12.919-5.813a.808.808 0 1 1 1.3-.964c3.367 4.533 12.486 5.241 12.578 5.248a.809.809 0 0 1 .728.992c-.7 2.981 3.995 8.06 5.863 9.765a.809.809 0 0 1-.46 1.4 39.189 39.189 0 0 1-4.126.228m-17.964-16.715z" transform="translate(-37.529 -37.278)"/>
                <path id="패스_7384" data-name="패스 7384" class="cls-10" d="M125.31 116.02s-.395 7.3 2.8 8.053l3.54-.438 2.724-6.166-2.43-5.169s-4.185-1.619-6.637 3.72" transform="translate(-36.696 -32.823)"/>
                <path id="패스_7385" data-name="패스 7385" class="cls-4" d="M127.777 124.539a.819.819 0 0 1-.186-.022c-1.677-.4-2.758-2.068-3.213-4.971a20.915 20.915 0 0 1-.211-3.912.808.808 0 0 1 .073-.293c2.191-4.771 5.972-4.792 7.664-4.137a.806.806 0 0 1 .44.41l2.43 5.168a.814.814 0 0 1 .008.671l-2.725 6.166a.808.808 0 0 1-.641.476l-3.54.438a.771.771 0 0 1-.1.006m-2-8.664c-.07 1.807.169 6.4 2.064 7.033l2.924-.361 2.39-5.409-2.119-4.507c-.867-.2-3.5-.447-5.259 3.245" transform="translate(-36.361 -32.481)"/>
                <path id="패스_7386" data-name="패스 7386" class="cls-3" d="m111.724 111.778 4.3 9.226a3.191 3.191 0 0 0 .62.916c.862.861 1.942.96 3.524-.185l5.427-3.894 5.637 4.249a2.376 2.376 0 0 0 3.472-.42l5.862-9.526" transform="translate(-32.722 -32.738)"/>
                <path id="패스_7387" data-name="패스 7387" class="cls-4" d="M132.491 123.128a3.452 3.452 0 0 1-2.077-.727l-5.162-3.891-4.944 3.547c-1.794 1.3-3.331 1.333-4.566.1a4.007 4.007 0 0 1-.782-1.146l-4.3-9.226a.809.809 0 0 1 1.466-.685l4.3 9.226a2.382 2.382 0 0 0 .459.686c.429.429 1.009.8 2.478-.267l5.429-3.9a.811.811 0 0 1 .958.011l5.637 4.25a1.773 1.773 0 0 0 1.31.386 1.544 1.544 0 0 0 1.008-.618l5.842-9.492a.808.808 0 1 1 1.377.848l-5.861 9.526a.7.7 0 0 1-.042.06 3.177 3.177 0 0 1-2.094 1.278 3.1 3.1 0 0 1-.435.03" transform="translate(-32.387 -32.403)"/>
                <path id="선_754" data-name="선 754" class="cls-3" transform="translate(53.67 113.642)" d="M15.717 8.476 0 0"/>
                <path id="패스_7388" data-name="패스 7388" class="cls-4" d="M91.281 169.661a.805.805 0 0 1-.383-.1l-15.716-8.476a.809.809 0 0 1 .767-1.423l15.717 8.476a.809.809 0 0 1-.385 1.52" transform="translate(-21.895 -46.734)"/>
                <path id="패스_7389" data-name="패스 7389" class="cls-5" d="M87.7 164.27c.479-1.805-2-4.686-3.741-5.541l-6.189-2.616a3.945 3.945 0 0 0-.405-.17l-4.393-1.857a4.442 4.442 0 0 0-5.716 2.131l-3.048 6.683a3.874 3.874 0 0 0 2.232 5.008l4.812 2.365 6.37 2.437 3.146 1.2 2.848-4.927s2.817-2.519 1.5-2.762z" transform="translate(-18.729 -45.026)"/>
                <path id="패스_7390" data-name="패스 7390" class="cls-4" d="M80.171 175.568a.81.81 0 0 1-.337-.074L65.7 169a4.682 4.682 0 0 1-2.465-6.133l2.968-6.3a.809.809 0 0 1 1.463.689l-2.956 6.271a3.067 3.067 0 0 0 1.641 3.992l14.153 6.508a.809.809 0 0 1-.338 1.544" transform="translate(-18.412 -45.719)"/>
                <path id="패스_7391" data-name="패스 7391" class="cls-4" d="M91.69 183.946a5.567 5.567 0 0 1-2.121-.419l-2.869-1.184a.809.809 0 0 1 .616-1.5l2.873 1.184a4.04 4.04 0 0 0 5.212-2.1.809.809 0 1 1 1.482.648 5.671 5.671 0 0 1-5.19 3.372" transform="translate(-25.245 -52.555)"/>
                <path id="패스_7392" data-name="패스 7392" class="cls-4" d="M81.923 167.23a.809.809 0 0 1-.731-1.153l1.9-4.057.016-.033a4.853 4.853 0 0 1 6.438-2.191.808.808 0 1 1-.713 1.451 3.244 3.244 0 0 0-4.286 1.478l-1.9 4.039a.808.808 0 0 1-.733.465" transform="translate(-23.757 -46.658)"/>
                <path id="패스_7393" data-name="패스 7393" class="cls-4" d="M84.129 170.318a.808.808 0 0 1-.581-1.371l5.243-5.416c.4-1.228-2.167-3.428-4.133-4.4l-10.964-4.635a3.639 3.639 0 0 0-4.677 1.743.809.809 0 0 1-1.451-.714 5.255 5.255 0 0 1 6.757-2.518l10.986 4.644.042.019a13.788 13.788 0 0 1 3.564 2.58c1.8 1.862 1.7 3.25 1.292 4.086a.806.806 0 0 1-.147.211l-5.351 5.527a.807.807 0 0 1-.581.246" transform="translate(-19.764 -44.691)"/>
                <path id="패스_7394" data-name="패스 7394" class="cls-4" d="M73.565 164.546a.809.809 0 0 1-.743-1.126l2.075-4.859a.636.636 0 0 1 .028-.059 4.98 4.98 0 0 1 6.543-2.181.808.808 0 1 1-.713 1.451 3.352 3.352 0 0 0-4.384 1.456l-2.062 4.826a.808.808 0 0 1-.744.491" transform="translate(-21.309 -45.64)"/>
                <path id="패스_7395" data-name="패스 7395" class="cls-4" d="M89.374 115.028a.808.808 0 0 1-.569-1.383c2.913-2.884 6.572-4.9 11.863-6.535a101.589 101.589 0 0 1 14.6-3.442.809.809 0 1 1 .247 1.6 99.965 99.965 0 0 0-14.371 3.389c-5.03 1.556-8.485 3.449-11.2 6.139a.8.8 0 0 1-.569.234" transform="translate(-25.939 -30.359)"/>
                <path id="패스_7396" data-name="패스 7396" class="cls-11" d="m204.9 151.571 3.7-5.8a2.152 2.152 0 0 1 3.079-.722l16.956 11.591a2.773 2.773 0 0 1-1.609 5.063l-7.778.5" transform="translate(-60.01 -42.374)"/>
                <path id="패스_7397" data-name="패스 7397" class="cls-4" d="M218.908 162.679a.809.809 0 0 1-.051-1.616l7.778-.5h.065a1.965 1.965 0 0 0 1.139-3.587l-16.956-11.592a1.344 1.344 0 0 0-1.919.453.4.4 0 0 1-.022.037l-3.7 5.8a.809.809 0 0 1-1.363-.87l3.689-5.783a2.961 2.961 0 0 1 4.224-.974l16.96 11.594a3.561 3.561 0 0 1 1.4 4.033 3.606 3.606 0 0 1-3.417 2.506h-.021l-7.749.5h-.053" transform="translate(-59.675 -42.039)"/>
                <path id="패스_7398" data-name="패스 7398" class="cls-11" d="m51.537 196.629-6.623-.006a2.554 2.554 0 0 0-1.4 4.69L61.1 212.844a1.981 1.981 0 0 0 2.824-.706l3.384-6.185" transform="translate(-12.404 -57.587)"/>
                <path id="패스_7399" data-name="패스 7399" class="cls-4" d="M61.856 213.641a2.8 2.8 0 0 1-1.532-.456l-17.593-11.531a3.363 3.363 0 0 1 1.843-6.175l6.623.006a.809.809 0 0 1 0 1.617l-6.624-.006a1.746 1.746 0 0 0-.956 3.206l17.592 11.53a1.172 1.172 0 0 0 1.671-.418l3.384-6.185a.809.809 0 0 1 1.419.776l-3.383 6.186a2.785 2.785 0 0 1-2.445 1.45" transform="translate(-12.068 -57.252)"/>
                <path id="패스_7400" data-name="패스 7400" class="cls-4" d="M55.213 183.846s8.4-21.334 32.858-22.514l47.585-1.276s13.21 8.488 25.806-6.733l15.023 11.344a40.387 40.387 0 0 1-29.665 17.612c-9.514.944-23.806-2.149-33.33-2.978-29.339-2.553-33.679 6.241-42.812 14.372z" transform="translate(-16.171 -44.905)"/>
                <path id="패스_7401" data-name="패스 7401" class="cls-4" d="M70.347 194.222 53.8 183.71l.245-.621a38.458 38.458 0 0 1 7.422-11.072 37.7 37.7 0 0 1 26.15-11.953l47.851-1.284.21.135a17.3 17.3 0 0 0 7.855 2.217c6.177.251 11.859-2.7 16.89-8.785l.494-.6L177.136 164l-.368.622a36.568 36.568 0 0 1-7.334 8.249 41.491 41.491 0 0 1-22.947 9.757c-6.552.651-15.385-.593-23.178-1.691-3.734-.525-7.261-1.022-10.3-1.286-25.163-2.189-31.484 3.911-38.8 10.975a125.456 125.456 0 0 1-3.4 3.2zm-14.529-11.148 14.363 9.126a126.171 126.171 0 0 0 2.9-2.743c7.285-7.033 14.166-13.679 40.065-11.423 3.082.268 6.631.767 10.387 1.3 7.7 1.085 16.435 2.313 22.793 1.682a40.017 40.017 0 0 0 28.657-16.616l-13.811-10.429c-3.753 4.34-9.762 9.136-17.786 8.776a18.967 18.967 0 0 1-8.357-2.334l-47.349 1.27a36.1 36.1 0 0 0-25.033 11.445 38.837 38.837 0 0 0-6.829 9.949" transform="translate(-15.758 -44.445)"/>
                <path id="패스_7402" data-name="패스 7402" class="cls-6" d="M162.814 104.36s1.695 8.785 2.418 16.547l.565 5.38 2.377-1.8a5.626 5.626 0 0 0 2.3-5.03c-.288-6.738-2.833-17.616-2.833-17.616z" transform="translate(-47.685 -29.828)"/>
                <path id="패스_7403" data-name="패스 7403" class="cls-4" d="M165.462 126.761a.807.807 0 0 1-.8-.724l-.566-5.38c-.711-7.641-2.39-16.39-2.407-16.478a.808.808 0 0 1 .42-.87l4.83-2.518a.809.809 0 0 1 1.161.533c.1.447 2.565 11.03 2.854 17.766a6.435 6.435 0 0 1-2.623 5.709l-2.377 1.8a.812.812 0 0 1-.488.163m-2.077-22.295c.391 2.11 1.707 9.473 2.317 16.032l.414 3.946 1.235-.934a4.824 4.824 0 0 0 1.983-4.35c-.231-5.393-1.954-13.6-2.584-16.448z" transform="translate(-47.35 -29.493)"/>
                <path id="패스_7404" data-name="패스 7404" class="cls-3" d="M101.377 119.669c-.621 2.734-1.331 6.137-1.878 9.546l-.113 1.723" transform="translate(-29.108 -35.049)"/>
                <path id="패스_7405" data-name="패스 7405" class="cls-4" d="M99.052 131.412H99a.808.808 0 0 1-.754-.861l.113-1.723a.66.66 0 0 1 .008-.075c.467-2.909 1.1-6.138 1.888-9.6a.808.808 0 0 1 1.577.358c-.774 3.411-1.4 6.592-1.862 9.458l-.112 1.686a.808.808 0 0 1-.805.755" transform="translate(-28.773 -34.714)"/>
                <path id="패스_7406" data-name="패스 7406" class="cls-4" d="M129.252 119.743a.806.806 0 0 1-.515-.186l-3.753-3.108a.809.809 0 1 1 1.032-1.245l3.258 2.7 3.338-2.541a.809.809 0 0 1 .98 1.287l-3.85 2.93a.81.81 0 0 1-.49.165" transform="translate(-36.519 -33.686)"/>
                <path id="패스_7407" data-name="패스 7407" class="cls-5" d="m81.807 70.9-2.379-.351a7.628 7.628 0 0 1 2.227-15.093l2.379.351" transform="translate(-21.355 -16.217)"/>
                <path id="패스_7408" data-name="패스 7408" class="cls-4" d="M81.472 71.371a.846.846 0 0 1-.119-.008l-2.379-.351a8.437 8.437 0 0 1 2.464-16.694l2.379.351a.808.808 0 0 1-.236 1.6l-2.381-.351a6.82 6.82 0 1 0-1.99 13.493l2.379.351a.809.809 0 0 1-.117 1.609" transform="translate(-21.019 -15.882)"/>
                <path id="패스_7409" data-name="패스 7409" class="cls-5" d="m179.5 79.809 2.621.387a7.883 7.883 0 1 0 2.3-15.6l-1.6-.237.948-6.422" transform="translate(-52.571 -16.97)"/>
                <path id="패스_7410" data-name="패스 7410" class="cls-4" d="M182.938 80.755a8.656 8.656 0 0 1-1.274-.094l-2.622-.387a.808.808 0 1 1 .236-1.6l2.622.387a7.074 7.074 0 0 0 2.065-14l-1.605-.237a.809.809 0 0 1-.682-.918l.948-6.422a.809.809 0 0 1 1.6.236l-.83 5.622.805.119a8.692 8.692 0 0 1-1.264 17.29" transform="translate(-52.236 -16.635)"/>
                <path id="선_755" data-name="선 755" class="cls-3" transform="translate(128.155 54.98)" d="m0 0 3.652.539"/>
                <path id="패스_7411" data-name="패스 7411" class="cls-4" d="M184.552 78.765a.754.754 0 0 1-.119-.009l-3.652-.539a.808.808 0 0 1 .236-1.6l3.652.539a.809.809 0 0 1-.117 1.609" transform="translate(-52.745 -22.437)"/>
                <path id="패스_7412" data-name="패스 7412" class="cls-5" d="m155.443 42.88-2.974 20.155a31.151 31.151 0 0 1-35.262 26.192l-5.564-.821A31.152 31.152 0 0 1 85.45 53.145l3.319-23.187 35.415-15.076" transform="translate(-24.929 -4.359)"/>
                <path id="패스_7413" data-name="패스 7413" class="cls-4" d="M121.425 90.037a31.973 31.973 0 0 1-4.673-.344l-5.564-.821a31.9 31.9 0 0 1-26.875-36.18l3.319-23.184a.808.808 0 0 1 .484-.629L123.531 13.8a.809.809 0 0 1 .634 1.488l-35 14.9-3.251 22.736a30.287 30.287 0 0 0 25.511 34.348l5.564.821a30.287 30.287 0 0 0 34.344-25.511l2.974-20.155a.809.809 0 1 1 1.6.236l-2.974 20.155a31.92 31.92 0 0 1-31.507 27.218" transform="translate(-24.593 -4.024)"/>
                <path id="패스_7414" data-name="패스 7414" class="cls-4" d="M142.027 36.672c-6.4-5.434-10.19-6.45-15.337-14.565 0 0-.469 7.593-26.361 9.816-6.437.552-13.185 4.565-14.55 7.029 0 0-8.008-8.489-3.03-18.118a14.987 14.987 0 0 1 6.981-6.607c2.956-1.39 7.711-3.722 12.051-6.265 10.094-5.916 21.5-11.812 32.419.016 0 0 16.452-6.13 22.882 12.208 0 0 2.811 7.989 3.429 13.15.689 5.751-2.824 13.1-8.859 17.411a.579.579 0 0 1-.973-.292c-1.054-3.988-1.962-6.753-5.118-10.535a28.216 28.216 0 0 0-3.533-3.249" transform="translate(-23.758 -.335)"/>
                <path id="패스_7415" data-name="패스 7415" class="cls-4" d="M150.881 51.379a1.351 1.351 0 0 1-.458-.079 1.377 1.377 0 0 1-.856-.972c-1.031-3.9-1.879-6.536-4.957-10.224a20.751 20.751 0 0 0-2.729-2.558c-.236-.2-.472-.394-.706-.593-1.839-1.561-3.432-2.734-4.972-3.867-3.5-2.578-6.328-4.656-9.677-9.591a10.156 10.156 0 0 1-3.195 3.029c-4.563 2.961-12.389 4.936-23.261 5.869-6.139.527-12.672 4.376-13.913 6.616l-.537.967-.759-.8c-.084-.089-8.342-9.022-3.16-19.044a15.87 15.87 0 0 1 7.355-6.967c3.131-1.473 7.752-3.749 11.986-6.231 5.123-3 10.595-6 16.2-6.749 6.339-.851 11.858 1.287 16.861 6.532a19.538 19.538 0 0 1 13.5.74c4.492 2.107 7.828 6.188 9.912 12.131.116.329 2.847 8.132 3.469 13.322.741 6.188-3.124 13.827-9.192 18.164a1.573 1.573 0 0 1-.912.308m-8.659-15.658q.346.293.7.582a22.273 22.273 0 0 1 2.935 2.764 23.842 23.842 0 0 1 5.2 10.542c5.51-4.05 8.995-10.947 8.328-16.511-.6-5.016-3.361-12.9-3.389-12.978-1.935-5.519-4.987-9.288-9.072-11.2-6.194-2.9-12.7-.54-12.765-.516l-.508.19-.368-.4c-4.713-5.107-9.887-7.2-15.815-6.408-5.31.713-10.618 3.623-15.6 6.542-4.287 2.512-8.954 4.813-12.115 6.3a14.234 14.234 0 0 0-6.607 6.246c-3.879 7.5.518 14.224 2.261 16.437 2.4-2.773 8.75-6.03 14.532-6.525 24.523-2.106 25.615-9.013 25.624-9.082l.154-2.49 1.334 2.128c3.568 5.629 6.458 7.754 10.117 10.446 1.49 1.1 3.179 2.339 5.06 3.937" transform="translate(-23.429)"/>
                <path id="패스_7416" data-name="패스 7416" class="cls-4" d="M122.636 67.917a1.96 1.96 0 1 1-1.653-2.225 1.96 1.96 0 0 1 1.653 2.225" transform="translate(-34.776 -19.233)"/>
                <path id="패스_7417" data-name="패스 7417" class="cls-4" d="M120.568 69.78a2.283 2.283 0 1 1 1.356-.45 2.282 2.282 0 0 1-1.356.45m-.008-3.921a1.64 1.64 0 1 0 .242.018 1.645 1.645 0 0 0-.242-.018" transform="translate(-34.642 -19.099)"/>
                <path id="패스_7418" data-name="패스 7418" class="cls-4" d="M145.624 71.341a1.96 1.96 0 1 1-1.653-2.225 1.96 1.96 0 0 1 1.653 2.225" transform="translate(-41.508 -20.236)"/>
                <path id="패스_7419" data-name="패스 7419" class="cls-4" d="M143.552 73.2a2.288 2.288 0 0 1-1.835-.922 2.283 2.283 0 1 1 1.835.922m0-3.92a1.638 1.638 0 1 0 .24.018 1.621 1.621 0 0 0-.24-.018" transform="translate(-41.374 -20.102)"/>
                <path id="패스_7420" data-name="패스 7420" class="cls-4" d="m136.747 83.518-.8 6.111a10.391 10.391 0 0 1-20.559-3.034l.8-6.111a1.933 1.933 0 0 1 2.194-1.629l16.735 2.469a1.933 1.933 0 0 1 1.63 2.194" transform="translate(-33.763 -23.089)"/>
                <path id="패스_7421" data-name="패스 7421" class="cls-4" d="M125.345 98.977a11.318 11.318 0 0 1-1.644-.121 11.231 11.231 0 0 1-9.445-12.715l.794-6.1a2.748 2.748 0 0 1 3.113-2.325L134.9 80.19a2.74 2.74 0 0 1 2.312 3.1l-.794 6.1a11.243 11.243 0 0 1-11.073 9.579m-7.582-19.67a1.125 1.125 0 0 0-1.111.96l-.794 6.1a9.582 9.582 0 0 0 18.957 2.812l.8-6.111a1.124 1.124 0 0 0-.948-1.276l-16.736-2.47a1.181 1.181 0 0 0-.165-.012" transform="translate(-33.428 -22.754)"/>
                <path id="패스_7422" data-name="패스 7422" class="cls-3" d="m136.253 83.151-.28 1.9a2.8 2.8 0 0 1-3.165 2.35l-12.431-1.834a2.8 2.8 0 0 1-2.351-3.165l.28-1.9a1.344 1.344 0 0 1 1.525-1.132l15.291 2.256a1.343 1.343 0 0 1 1.132 1.525" transform="translate(-34.559 -23.242)"/>
                <path id="패스_7423" data-name="패스 7423" class="cls-4" d="M132.883 87.9a3.612 3.612 0 0 1-.529-.039l-12.43-1.834a3.6 3.6 0 0 1-3.033-4.083l.279-1.9a2.154 2.154 0 0 1 2.443-1.814l15.29 2.256a2.155 2.155 0 0 1 1.815 2.442l-.281 1.9a3.606 3.606 0 0 1-3.554 3.072M119.3 79.83a.536.536 0 0 0-.529.456l-.279 1.9a1.988 1.988 0 0 0 1.669 2.247l12.43 1.835a1.989 1.989 0 0 0 2.248-1.67l.28-1.9a.536.536 0 0 0-.451-.607l-15.29-2.256a.593.593 0 0 0-.078-.006" transform="translate(-34.224 -22.907)"/>
                <path id="선_756" data-name="선 756" class="cls-3" transform="translate(57.013 46.463)" d="m0 0 3.191.471"/>
                <path id="패스_7424" data-name="패스 7424" class="cls-4" d="M83.484 66.651a.754.754 0 0 1-.119-.009l-3.191-.47a.809.809 0 1 1 .236-1.6l3.191.471a.808.808 0 0 1-.117 1.608" transform="translate(-23.279 -18.909)"/>
                <g id="그룹_5325" data-name="그룹 5325" transform="translate(72.369 6.034)" style="opacity:.39">
                    <g id="그룹_5324" data-name="그룹 5324">
                        <g id="그룹_5323" data-name="그룹 5323" style="clip-path:url(#clip-path-3)">
                            <path id="패스_7425" data-name="패스 7425" class="cls-3" d="M111.789 17.1a1.356 1.356 0 0 1-.533-2.517c.609-.357 1.2-.715 1.79-1.068a36.768 36.768 0 0 1 10.9-4.948 1.356 1.356 0 0 1 .641 2.635 34.576 34.576 0 0 0-10.141 4.637c-.6.359-1.2.722-1.818 1.084a1.348 1.348 0 0 1-.837.177" transform="translate(-104.758 -8.533)"/>
                            <path id="패스_7426" data-name="패스 7426" class="cls-3" d="M105.431 22.2a1.549 1.549 0 1 1-1.364-1.714 1.549 1.549 0 0 1 1.364 1.714" transform="translate(-102.344 -12.03)"/>
                        </g>
                    </g>
                </g>
                <g id="그룹_5328" data-name="그룹 5328" class="cls-14" transform="translate(64.771 49.37)">
                    <g id="그룹_5327" data-name="그룹 5327">
                        <g id="그룹_5326" data-name="그룹 5326" style="clip-path:url(#clip-path-4)">
                            <path id="패스_7427" data-name="패스 7427" class="cls-16" d="M105.673 74.161c-.216 1.9-3.541 3.092-7.424 2.65s-6.856-2.345-6.638-4.25 3.541-3.091 7.423-2.649 6.856 2.344 6.639 4.249" transform="translate(-91.599 -69.819)"/>
                        </g>
                    </g>
                </g>
                <g id="그룹_5331" data-name="그룹 5331" class="cls-14" transform="translate(106.467 54.114)">
                    <g id="그룹_5330" data-name="그룹 5330">
                        <g id="그룹_5329" data-name="그룹 5329" style="clip-path:url(#clip-path-5)">
                            <path id="패스_7428" data-name="패스 7428" class="cls-16" d="M164.638 80.869c-.217 1.9-3.541 3.092-7.424 2.65s-6.856-2.345-6.638-4.25 3.541-3.091 7.423-2.649 6.856 2.344 6.639 4.249" transform="translate(-150.564 -76.527)"/>
                        </g>
                    </g>
                </g>
                <path id="패스_7429" data-name="패스 7429" class="cls-4" d="M122.8 59.865a1.454 1.454 0 0 1-1.125-.53 3.675 3.675 0 0 0-3.189-1.1 1.456 1.456 0 0 1-.278-2.9 6.512 6.512 0 0 1 5.715 2.145 1.455 1.455 0 0 1-1.123 2.38" transform="translate(-34.237 -16.197)"/>
                <path id="패스_7430" data-name="패스 7430" class="cls-4" d="M142.631 62.286a1.456 1.456 0 0 1-.923-2.582 6.511 6.511 0 0 1 6.024-.991 1.455 1.455 0 0 1-.837 2.787 3.677 3.677 0 0 0-3.342.455 1.447 1.447 0 0 1-.921.33" transform="translate(-41.347 -17.101)"/>
                <path id="패스_7431" data-name="패스 7431" class="cls-4" d="M197.305 67.324a.807.807 0 0 1-.593-.257l-2.524-2.713a.809.809 0 0 1 1.184-1.1l2.525 2.713a.808.808 0 0 1-.592 1.359" transform="translate(-56.811 -18.45)"/>
                <path id="패스_7432" data-name="패스 7432" class="cls-4" d="M204.49 64.544h-.03a.808.808 0 0 1-.779-.837l.133-3.7a.808.808 0 0 1 1.616.059l-.133 3.7a.809.809 0 0 1-.808.779" transform="translate(-59.654 -17.345)"/>
                <path id="패스_7433" data-name="패스 7433" class="cls-4" d="M210.506 67.7a.808.808 0 0 1-.551-1.4l2.712-2.524a.809.809 0 0 1 1.1 1.184l-2.713 2.525a.807.807 0 0 1-.551.216" transform="translate(-61.416 -18.614)"/>
                <path id="패스_7434" data-name="패스 7434" class="cls-4" d="M58.675 99.094a.807.807 0 0 1-.746-.5l-2.03-4.86-4.861-2.03a.809.809 0 0 1 0-1.492l4.861-2.03 2.03-4.86a.808.808 0 0 1 1.491 0l2.03 4.86 4.861 2.03a.808.808 0 0 1 0 1.492l-4.861 2.03-2.03 4.86a.807.807 0 0 1-.745.5m-5.227-8.134 3.381 1.412a.811.811 0 0 1 .434.434l1.412 3.381 1.411-3.381a.812.812 0 0 1 .435-.434L63.9 90.96l-3.381-1.412a.812.812 0 0 1-.435-.434l-1.411-3.381-1.412 3.381a.811.811 0 0 1-.434.434z" transform="translate(-14.803 -24.258)"/>
            </g>
        </g>
    </g>
</svg>
