<svg xmlns="http://www.w3.org/2000/svg" width="135" height="135" viewBox="0 0 135 135">
    <defs>
        <clipPath id="clip-path">
            <path id="사각형_3207" data-name="사각형 3207" class="cls-1" d="M0 0h47.972v48.228H0z"/>
        </clipPath>
        <filter id="타원_200" x="0" y="0" width="135" height="135" filterUnits="userSpaceOnUse">
            <feOffset dy="3"/>
            <feGaussianBlur stdDeviation="7.5" result="blur"/>
            <feFlood flood-opacity=".161"/>
            <feComposite operator="in" in2="blur"/>
            <feComposite in="SourceGraphic"/>
        </filter>
        <style>
            .cls-1{fill:#2db400}
        </style>
    </defs>
    <g id="naver" transform="translate(-1180.5 -584.5)">
        <g transform="translate(1180.5 584.5)" style="filter:url(#타원_200)">
            <circle id="타원_200-2" data-name="타원 200" cx="45" cy="45" r="45" transform="translate(22.5 19.5)" style="fill:#fff"/>
        </g>
        <g id="그룹_5297" data-name="그룹 5297" transform="translate(1224.014 627.793)">
            <g id="그룹_5296" data-name="그룹 5296" style="clip-path:url(#clip-path)">
                <path id="패스_7313" data-name="패스 7313" class="cls-1" d="m46.385 6.234.007-.012-4.772-4.4A5.648 5.648 0 0 0 37.471 0H5.68A5.687 5.687 0 0 0 0 5.68v35.061a3.791 3.791 0 0 0 .543 2.217 1.944 1.944 0 0 0 .448.458l4.563 4.2a2.133 2.133 0 0 0 .227.209l.039.037.006-.006a2.257 2.257 0 0 0 .229.156 1.962 1.962 0 0 0 .9.211 3.275 3.275 0 0 0 1.727-.591l5.334-5.457c1.131-1.368 4.174-1.672 5.254-1.675h23.024a5.685 5.685 0 0 0 5.679-5.679v-24.69a5.582 5.582 0 0 0-1.587-3.9m-5.13.11v24.031a3.788 3.788 0 0 1-3.783 3.787H14.447c-.491 0-4.816.067-6.664 2.3l-1.066 1.1L4.823 39.5 2.71 41.675a1.4 1.4 0 0 1-.58.207h-.023s-.214-.206-.214-1.145V5.68A3.79 3.79 0 0 1 5.68 1.893h31.791a3.776 3.776 0 0 1 3.563 2.557 3.719 3.719 0 0 1 .221 1.23z"/>
                <path id="패스_7314" data-name="패스 7314" class="cls-1" d="M16.776 17.122a2.828 2.828 0 0 0-2.829 2.83v5.943a2.829 2.829 0 0 0 5.658 0v-5.943a2.831 2.831 0 0 0-2.83-2.83" transform="translate(-4.279 -5.253)"/>
                <path id="패스_7315" data-name="패스 7315" class="cls-1" d="M42.2 17.122a2.832 2.832 0 0 0-2.832 2.83v5.943a2.83 2.83 0 0 0 5.659 0v-5.943a2.829 2.829 0 0 0-2.827-2.83" transform="translate(-12.079 -5.253)"/>
            </g>
        </g>
    </g>
</svg>
