<svg id="image" xmlns="http://www.w3.org/2000/svg" width="120.45" height="116.879" viewBox="0 0 120.45 116.879">
    <defs>
        <clipPath id="clip-path">
            <path id="사각형_2868" data-name="사각형 2868" class="cls-1" d="M0 0h120.45v116.879H0z"/>
        </clipPath>
        <clipPath id="clip-path-3">
            <path id="사각형_2864" data-name="사각형 2864" class="cls-1" d="M0 0h28.349v15.684H0z"/>
        </clipPath>
        <clipPath id="clip-path-4">
            <path id="사각형_2865" data-name="사각형 2865" class="cls-1" d="M0 0h19.139v9.625H0z"/>
        </clipPath>
        <style>
            .cls-1{fill:none}.cls-2{clip-path:url(#clip-path)}.cls-3{fill:#fff0e4}.cls-4{fill:#5b5652}.cls-5{fill:#fff}.cls-8{opacity:.65}.cls-9{clip-path:url(#clip-path-4)}.cls-10{fill:#fdc89d}
        </style>
    </defs>
    <g id="그룹_5123" data-name="그룹 5123" class="cls-2">
        <g id="그룹_5122" data-name="그룹 5122">
            <g id="그룹_5121" data-name="그룹 5121" class="cls-2">
                <path id="패스_6946" data-name="패스 6946" class="cls-3" d="m18.795 345.595-3.233-.477a10.366 10.366 0 0 1 3.027-20.51l3.233.477" transform="translate(-5.608 -271.291)"/>
                <path id="패스_6947" data-name="패스 6947" class="cls-4" d="M13.189 341.084a1.091 1.091 0 0 1-.162-.012l-3.233-.472a11.465 11.465 0 0 1 3.348-22.684l3.233.477a1.1 1.1 0 1 1-.321 2.174l-3.233-.477a9.267 9.267 0 1 0-2.706 18.336l3.233.477a1.1 1.1 0 0 1-.159 2.186" transform="translate(0 -265.682)"/>
                <path id="패스_6948" data-name="패스 6948" class="cls-3" d="m631.33 369.274 3.562.526a10.711 10.711 0 0 0 12.16-9.033 10.712 10.712 0 0 0-9.033-12.16l-2.181-.322 1.288-8.726" transform="translate(-527.817 -283.885)"/>
                <path id="패스_6949" data-name="패스 6949" class="cls-4" d="M630.859 365.409a11.876 11.876 0 0 1-1.732-.127l-3.562-.526a1.1 1.1 0 1 1 .321-2.174l3.562.526a9.613 9.613 0 0 0 2.807-19.02l-2.181-.322a1.1 1.1 0 0 1-.927-1.247l1.288-8.726a1.1 1.1 0 0 1 2.174.321l-1.128 7.639 1.094.161a11.811 11.811 0 0 1-1.717 23.5" transform="translate(-522.212 -278.279)"/>
                <path id="선_202" data-name="선 202" class="cls-5" transform="translate(105.184 74.71)" d="m0 0 4.962.732"/>
                <path id="패스_6950" data-name="패스 6950" class="cls-4" d="M640.881 451.882a1.086 1.086 0 0 1-.162-.012l-4.962-.732a1.1 1.1 0 1 1 .321-2.174l4.962.732a1.1 1.1 0 0 1-.159 2.186" transform="translate(-530.734 -375.341)"/>
                <path id="패스_6951" data-name="패스 6951" class="cls-3" d="m173.8 125.26-4.042 27.388a42.33 42.33 0 0 1-47.915 35.592l-7.56-1.116a42.33 42.33 0 0 1-35.592-47.915L83.2 107.7l48.123-20.485" transform="translate(-65.408 -72.915)"/>
                <path id="패스_6952" data-name="패스 6952" class="cls-4" d="M122.41 184.192a43.465 43.465 0 0 1-6.35-.468l-7.56-1.116a43.354 43.354 0 0 1-36.519-49.163l4.51-31.5a1.1 1.1 0 0 1 .657-.855l48.123-20.49a1.1 1.1 0 0 1 .861 2.022l-47.554 20.245-4.423 30.9a41.155 41.155 0 0 0 34.665 46.673l7.56 1.116a41.154 41.154 0 0 0 46.668-34.665l4.042-27.391a1.1 1.1 0 0 1 2.174.321l-4.042 27.388a43.373 43.373 0 0 1-42.813 36.986" transform="translate(-59.788 -67.313)"/>
                <path id="패스_6953" data-name="패스 6953" class="cls-4" d="M137.574 54.981c-8.693-7.384-13.847-8.764-20.84-19.792 0 0-.637 10.318-35.82 13.339-8.747.751-17.917 6.2-19.772 9.552 0 0-10.882-11.536-4.117-24.619a20.359 20.359 0 0 1 9.486-8.977c4.016-1.889 10.478-5.057 16.375-8.513C96.6 7.931 112.1-.081 126.937 15.99c0 0 22.355-8.329 31.094 16.59 0 0 3.819 10.856 4.66 17.869.936 7.814-3.838 17.8-12.038 23.659a.787.787 0 0 1-1.323-.4c-1.432-5.419-2.665-9.176-6.955-14.316a38.307 38.307 0 0 0-4.8-4.414" transform="translate(-45.823 -5.604)"/>
                <path id="패스_6954" data-name="패스 6954" class="cls-4" d="M144.544 69.817a1.828 1.828 0 0 1-.621-.108 1.871 1.871 0 0 1-1.163-1.321c-1.4-5.3-2.553-8.881-6.736-13.893a28.193 28.193 0 0 0-3.708-3.475l-.96-.8c-2.5-2.121-4.663-3.714-6.757-5.254-4.761-3.5-8.6-6.326-13.15-13.033a13.81 13.81 0 0 1-4.341 4.115c-6.2 4.024-16.835 6.707-31.608 7.975-8.341.716-17.219 5.947-18.905 8.989l-.729 1.315-1.031-1.094c-.114-.121-11.335-12.26-4.294-25.878a21.557 21.557 0 0 1 9.994-9.467c4.254-2 10.533-5.1 16.287-8.467 6.962-4.08 14.4-8.149 22.016-9.172 8.614-1.155 16.113 1.749 22.911 8.876 2.4-.737 10.429-2.7 18.341 1.005 6.1 2.862 10.636 8.409 13.469 16.485.157.447 3.868 11.05 4.714 18.1 1.007 8.409-4.245 18.789-12.49 24.683a2.138 2.138 0 0 1-1.24.419M132.777 48.54c.313.265.629.528.944.791a30.242 30.242 0 0 1 3.989 3.756c4.35 5.212 5.671 9.1 7.064 14.325 7.488-5.5 12.223-14.876 11.317-22.436-.816-6.815-4.567-17.528-4.6-17.636-2.63-7.5-6.778-12.621-12.328-15.224-8.417-3.947-17.257-.734-17.345-.7l-.691.257-.5-.542c-6.405-6.94-13.435-9.789-21.491-8.707-7.216.968-14.429 4.923-21.2 8.89-5.824 3.414-12.167 6.539-16.463 8.56a19.347 19.347 0 0 0-8.977 8.487c-5.271 10.2.7 19.329 3.073 22.335 3.265-3.769 11.89-8.193 19.746-8.867 33.323-2.861 34.808-12.247 34.819-12.341l.209-3.384L112.154 29c4.846 7.644 8.775 10.533 13.746 14.19 2.025 1.49 4.32 3.178 6.876 5.35" transform="translate(-40.314 .001)"/>
                <path id="패스_6955" data-name="패스 6955" class="cls-4" d="M280.554 387.9a2.663 2.663 0 1 1-2.246-3.024 2.663 2.663 0 0 1 2.246 3.024" transform="translate(-230.125 -321.751)"/>
                <path id="패스_6956" data-name="패스 6956" class="cls-4" d="M275.686 388.373a3.107 3.107 0 0 1-3.077-3.557 3.1 3.1 0 1 1 3.077 3.557m-.011-5.328a2.231 2.231 0 1 0 .329.024 2.21 2.21 0 0 0-.329-.024" transform="translate(-227.884 -319.505)"/>
                <path id="패스_6957" data-name="패스 6957" class="cls-4" d="M415.273 407.971a2.663 2.663 0 1 1-2.246-3.024 2.663 2.663 0 0 1 2.246 3.024" transform="translate(-342.755 -338.528)"/>
                <path id="패스_6958" data-name="패스 6958" class="cls-4" d="M410.4 408.445a3.14 3.14 0 0 1-.456-.033 3.1 3.1 0 1 1 .456.033m0-5.327a2.226 2.226 0 1 0 .326.024 2.228 2.228 0 0 0-.326-.024" transform="translate(-340.512 -336.287)"/>
                <path id="패스_6959" data-name="패스 6959" class="cls-4" d="m284.172 468.36-1.081 8.3a14.12 14.12 0 0 1-27.937-4.123l1.081-8.3a2.626 2.626 0 0 1 2.981-2.214l22.741 3.356a2.626 2.626 0 0 1 2.214 2.981" transform="translate(-213.192 -386.246)"/>
                <path id="패스_6960" data-name="패스 6960" class="cls-4" d="M263.525 484.22a15.3 15.3 0 0 1-2.234-.165 15.261 15.261 0 0 1-12.834-17.277l1.079-8.284a3.735 3.735 0 0 1 4.231-3.159l22.742 3.356a3.725 3.725 0 0 1 3.142 4.219l-1.08 8.294a15.276 15.276 0 0 1-15.046 13.017m-10.3-26.728a1.529 1.529 0 0 0-1.51 1.3l-1.079 8.284a13.021 13.021 0 0 0 25.76 3.821l1.081-8.3a1.527 1.527 0 0 0-1.288-1.733l-22.742-3.356a1.524 1.524 0 0 0-.224-.017" transform="translate(-207.583 -380.644)"/>
                <path id="패스_6961" data-name="패스 6961" class="cls-5" d="m295.726 470.214-.381 2.58a3.8 3.8 0 0 1-4.3 3.194l-16.892-2.493a3.8 3.8 0 0 1-3.195-4.3l.381-2.58a1.824 1.824 0 0 1 2.071-1.539l20.778 3.066a1.824 1.824 0 0 1 1.538 2.071" transform="translate(-226.498 -388.806)"/>
                <path id="패스_6962" data-name="패스 6962" class="cls-4" d="M286 471.523a4.926 4.926 0 0 1-.719-.053l-16.892-2.493a4.9 4.9 0 0 1-4.121-5.548l.381-2.58a2.927 2.927 0 0 1 3.319-2.465l20.778 3.066a2.927 2.927 0 0 1 2.465 3.319l-.381 2.579a4.9 4.9 0 0 1-4.83 4.175m-18.46-10.972a.727.727 0 0 0-.718.62l-.381 2.58a2.7 2.7 0 0 0 2.268 3.053L285.6 469.3a2.7 2.7 0 0 0 3.053-2.268l.381-2.58a.726.726 0 0 0-.612-.824l-20.778-3.066a.753.753 0 0 0-.106-.008" transform="translate(-220.892 -383.201)"/>
                <path id="선_203" data-name="선 203" class="cls-5" transform="translate(8.514 63.136)" d="m0 0 4.335.64"/>
                <path id="패스_6963" data-name="패스 6963" class="cls-4" d="M50.658 381.2a1.113 1.113 0 0 1-.162-.012l-4.335-.64a1.1 1.1 0 1 1 .321-2.174l4.335.64a1.1 1.1 0 0 1-.159 2.186" transform="translate(-37.808 -316.329)"/>
                <g id="그룹_5114" data-name="그룹 5114" transform="translate(29.38 8.2)" style="opacity:.39">
                    <g id="그룹_5113" data-name="그룹 5113">
                        <g id="그룹_5112" data-name="그룹 5112" style="clip-path:url(#clip-path-3)">
                            <path id="패스_6964" data-name="패스 6964" class="cls-5" d="M229.127 61.658a1.842 1.842 0 0 1-.725-3.42c.828-.485 1.635-.971 2.433-1.451 4.477-2.694 8.705-5.239 14.808-6.724a1.842 1.842 0 0 1 .871 3.58c-5.556 1.352-9.55 3.756-13.779 6.3-.81.488-1.629.981-2.47 1.473a1.832 1.832 0 0 1-1.138.241" transform="translate(-219.572 -50.01)"/>
                            <path id="패스_6965" data-name="패스 6965" class="cls-5" d="M183.386 122.336a2.1 2.1 0 1 1-1.853-2.329 2.1 2.1 0 0 1 1.853 2.329" transform="translate(-179.19 -108.519)"/>
                        </g>
                    </g>
                </g>
                <g id="그룹_5117" data-name="그룹 5117" class="cls-8" transform="translate(19.056 67.086)">
                    <g id="그룹_5116" data-name="그룹 5116">
                        <g id="그룹_5115" data-name="그룹 5115" class="cls-9">
                            <path id="패스_6966" data-name="패스 6966" class="cls-10" d="M135.347 415.063c-.294 2.589-4.811 4.2-10.088 3.6s-9.316-3.186-9.021-5.774 4.811-4.2 10.088-3.6 9.316 3.186 9.021 5.774" transform="translate(-116.223 -409.164)"/>
                        </g>
                    </g>
                </g>
                <g id="그룹_5120" data-name="그룹 5120" class="cls-8" transform="translate(75.713 73.533)">
                    <g id="그룹_5119" data-name="그룹 5119">
                        <g id="그룹_5118" data-name="그룹 5118" class="cls-9">
                            <path id="패스_6967" data-name="패스 6967" class="cls-10" d="M480.9 454.378c-.294 2.589-4.811 4.2-10.088 3.6s-9.316-3.186-9.021-5.774 4.811-4.2 10.088-3.6 9.316 3.186 9.021 5.774" transform="translate(-461.777 -448.479)"/>
                        </g>
                    </g>
                </g>
                <path id="패스_6968" data-name="패스 6968" class="cls-4" d="M272.5 330.294a1.974 1.974 0 0 1-1.528-.721 5 5 0 0 0-4.334-1.491 1.978 1.978 0 0 1-.378-3.938 8.85 8.85 0 0 1 7.765 2.915 1.978 1.978 0 0 1-1.526 3.235" transform="translate(-221.113 -270.957)"/>
                <path id="패스_6969" data-name="패스 6969" class="cls-4" d="M408.734 347.487a1.978 1.978 0 0 1-1.255-3.508 8.849 8.849 0 0 1 8.185-1.347 1.978 1.978 0 0 1-1.138 3.789 5 5 0 0 0-4.541.618 1.97 1.97 0 0 1-1.252.448" transform="translate(-340.063 -286.088)"/>
            </g>
        </g>
    </g>
</svg>
