<svg xmlns="http://www.w3.org/2000/svg" width="77.692" height="78.872" viewBox="0 0 77.692 78.872">
    <defs>
        <clipPath id="5znhkvhgda">
            <path data-name="사각형 3192" style="fill:none" d="M0 0h77.692v78.872H0z"/>
        </clipPath>
    </defs>
    <path data-name="사각형 3190" transform="translate(1.042 6.526)" style="fill:#fff" d="M0 0h58.509v71.304H0z"/>
    <g data-name="그룹 5278">
        <g data-name="그룹 5277" style="clip-path:url(#5znhkvhgda)">
            <path data-name="사각형 3191" transform="translate(1.042 6.526)" style="stroke:#5b5652;stroke-linecap:round;stroke-linejoin:round;stroke-width:2.5px;fill:none" d="M0 0h58.509v71.304H0z"/>
        </g>
    </g>
    <path data-name="선 249" transform="translate(8.849 18.894)" style="stroke:#5b5652;stroke-linecap:round;stroke-linejoin:round;stroke-width:2.5px;fill:none" d="M0 0h42.462"/>
    <path data-name="선 250" transform="translate(8.849 25.759)" style="stroke:#5b5652;stroke-linecap:round;stroke-linejoin:round;stroke-width:2.5px;fill:none" d="M0 0h42.462"/>
    <path data-name="선 251" transform="translate(8.849 32.624)" style="stroke:#5b5652;stroke-linecap:round;stroke-linejoin:round;stroke-width:2.5px;fill:none" d="M0 0h42.462"/>
    <path data-name="선 252" transform="translate(8.849 39.357)" style="stroke:#5b5652;stroke-linecap:round;stroke-linejoin:round;stroke-width:2.5px;fill:none" d="M0 0h42.462"/>
    <path data-name="선 253" transform="translate(8.849 46.222)" style="stroke:#5b5652;stroke-linecap:round;stroke-linejoin:round;stroke-width:2.5px;fill:none" d="M0 0h42.462"/>
    <path data-name="패스 7259" d="M10.618 82.162H15.8l4.955-6.762 4.055 6.759h6.083l1.171-2.7h4.686" transform="translate(-1.769 -12.56)" style="fill:#fff"/>
    <path data-name="패스 7260" d="M10.618 82.162H15.8l4.955-6.762 4.055 6.759h6.083l1.171-2.7h4.686" transform="translate(-1.769 -12.56)" style="stroke:#5b5652;stroke-linecap:round;stroke-linejoin:round;stroke-width:2.5px;fill:none"/>
    <g data-name="그룹 5280">
        <g data-name="그룹 5279" style="clip-path:url(#5znhkvhgda)">
            <path data-name="패스 7261" d="M12.267 12.218A2.847 2.847 0 0 1 9.428 9.38V4.089a2.839 2.839 0 0 1 5.677 0V9.38a2.847 2.847 0 0 1-2.839 2.838" transform="translate(-1.57 -.208)" style="fill:#e8e589"/>
            <path data-name="패스 7262" d="M12.267 12.218h0A2.847 2.847 0 0 1 9.428 9.38V4.089a2.839 2.839 0 0 1 5.677 0V9.38a2.847 2.847 0 0 1-2.838 2.838z" transform="translate(-1.57 -.208)" style="stroke:#5b5652;stroke-linecap:round;stroke-linejoin:round;stroke-width:2.5px;fill:none"/>
            <path data-name="패스 7263" d="M27.945 12.218a2.847 2.847 0 0 1-2.839-2.838V4.089a2.839 2.839 0 0 1 5.677 0V9.38a2.847 2.847 0 0 1-2.839 2.838" transform="translate(-4.182 -.208)" style="fill:#e8e589"/>
            <path data-name="패스 7264" d="M27.945 12.218h0a2.847 2.847 0 0 1-2.839-2.838V4.089a2.839 2.839 0 0 1 5.677 0V9.38a2.847 2.847 0 0 1-2.838 2.838z" transform="translate(-4.182 -.208)" style="stroke:#5b5652;stroke-linecap:round;stroke-linejoin:round;stroke-width:2.5px;fill:none"/>
            <path data-name="패스 7265" d="M43.624 12.218a2.847 2.847 0 0 1-2.839-2.838V4.089a2.839 2.839 0 0 1 5.677 0V9.38a2.847 2.847 0 0 1-2.839 2.838" transform="translate(-6.794 -.208)" style="fill:#e8e589"/>
            <path data-name="패스 7266" d="M43.624 12.218h0a2.847 2.847 0 0 1-2.839-2.838V4.089a2.839 2.839 0 0 1 5.677 0V9.38a2.847 2.847 0 0 1-2.838 2.838z" transform="translate(-6.794 -.208)" style="stroke:#5b5652;stroke-linecap:round;stroke-linejoin:round;stroke-width:2.5px;fill:none"/>
            <path data-name="패스 7267" d="M59.3 12.218a2.847 2.847 0 0 1-2.837-2.838V4.089a2.839 2.839 0 0 1 5.677 0V9.38a2.847 2.847 0 0 1-2.84 2.838" transform="translate(-9.405 -.208)" style="fill:#e8e589"/>
            <path data-name="패스 7268" d="M59.3 12.218h0a2.847 2.847 0 0 1-2.837-2.838V4.089a2.839 2.839 0 0 1 5.677 0V9.38a2.847 2.847 0 0 1-2.84 2.838z" transform="translate(-9.405 -.208)" style="stroke:#5b5652;stroke-linecap:round;stroke-linejoin:round;stroke-width:2.5px;fill:none"/>
            <path data-name="사각형 3193" transform="rotate(-44.6 99.018 -36.235)" style="fill:#fff" d="M0 0h6.5v11.352H0z"/>
            <path data-name="사각형 3194" transform="rotate(-44.6 99.018 -36.235)" style="stroke:#5b5652;stroke-linecap:round;stroke-linejoin:round;stroke-width:2.5px;fill:none" d="M0 0h6.5v11.352H0z"/>
            <path data-name="패스 7269" d="M64.8 40.247a17.645 17.645 0 1 1-24.952-.192 17.644 17.644 0 0 1 24.952.192" transform="translate(-5.76 -5.827)" style="fill:#fff"/>
            <path data-name="패스 7270" d="M64.8 40.247a17.645 17.645 0 1 1-24.952-.192 17.644 17.644 0 0 1 24.952.192z" transform="translate(-5.76 -5.827)" style="stroke:#5b5652;stroke-linecap:round;stroke-linejoin:round;stroke-width:2.5px;fill:none"/>
            <path data-name="패스 7271" d="M62.352 44.546a12.876 12.876 0 1 1-18.209-.14 12.875 12.875 0 0 1 18.209.14" transform="translate(-6.713 -6.78)" style="fill:#caddff"/>
            <path data-name="패스 7272" d="M62.352 44.546a12.876 12.876 0 1 1-18.209-.14 12.875 12.875 0 0 1 18.209.14z" transform="translate(-6.713 -6.78)" style="stroke:#5b5652;stroke-linecap:round;stroke-linejoin:round;stroke-width:2.5px;fill:none"/>
            <path data-name="패스 7273" d="M86.768 87.848a5.828 5.828 0 0 1-8.242-.063l-6.766-6.871 8.535-8.4 6.54 6.641a6.15 6.15 0 0 1-.067 8.7" transform="translate(-11.953 -12.078)" style="fill:#5b5652"/>
            <path data-name="패스 7274" d="M86.768 87.848h0a5.828 5.828 0 0 1-8.242-.063l-6.766-6.871 8.535-8.4 6.54 6.641a6.15 6.15 0 0 1-.067 8.693z" transform="translate(-11.953 -12.078)" style="stroke:#5b5652;stroke-linecap:round;stroke-linejoin:round;stroke-width:2.5px;fill:none"/>
        </g>
    </g>
</svg>
