<svg xmlns="http://www.w3.org/2000/svg" width="54" height="54" viewBox="0 0 54 54">
    <defs>
        <clipPath id="3n3bn56mka">
            <path data-name="사각형 3203" style="stroke:#707070;fill:none" d="M0 0h42.602v44.27H0z"/>
        </clipPath>
    </defs>
    <g data-name="그룹 5291">
        <g data-name="그룹 5290" transform="translate(5.401 4.839)" style="clip-path:url(#3n3bn56mka)">
            <path data-name="패스 7285" d="M41.67 1.25a4.551 4.551 0 0 0-4.551 4.55v28.165H9.542V5.8a4.551 4.551 0 0 1 4.551-4.55z" transform="translate(-4.305 -.564)" style="fill:#fff;stroke:#707070"/>
            <path data-name="패스 7286" d="M41.67 1.25a4.551 4.551 0 0 0-4.551 4.55v28.165H9.542V5.8a4.551 4.551 0 0 1 4.551-4.55H41.67" transform="translate(-4.305 -.564)" style="stroke:#5b5652;stroke-linecap:round;stroke-linejoin:round;fill:none"/>
            <path data-name="패스 7287" d="M59.785 5.8a4.551 4.551 0 1 1 9.1 0z" transform="translate(-26.971 -.564)" style="fill:#eaeaea;stroke:#707070"/>
            <path data-name="패스 7288" d="M59.785 5.8a4.551 4.551 0 1 1 9.1 0z" transform="translate(-26.971 -.564)" style="stroke:#5b5652;stroke-linecap:round;stroke-linejoin:round;fill:none"/>
            <path data-name="패스 7289" d="M1.25 60.855a4.551 4.551 0 0 0 4.55 4.551h27.578v-4.551z" transform="translate(-.564 -27.454)" style="fill:#eaeaea;stroke:#707070"/>
            <path data-name="패스 7290" d="M1.25 60.855a4.551 4.551 0 0 0 4.55 4.551h27.578v-4.551z" transform="translate(-.564 -27.454)" style="stroke:#5b5652;stroke-linecap:round;stroke-linejoin:round;fill:none"/>
            <path data-name="패스 7291" d="m61.167 66.155-4.967-3-4.967 3V50.034h9.933z" transform="translate(-23.113 -22.572)" style="fill:#5b5652;stroke:#707070"/>
            <path data-name="패스 7292" d="m61.167 66.155-4.967-3-4.967 3V50.034h9.933z" transform="translate(-23.113 -22.572)" style="stroke:#5b5652;stroke-linecap:round;stroke-linejoin:round;fill:none"/>
            <path data-name="패스 7293" d="M61.819 39.589a8.631 8.631 0 1 1-8.631-8.631 8.631 8.631 0 0 1 8.631 8.631" transform="translate(-20.101 -13.966)" style="fill:#e8e589;stroke:#707070"/>
            <circle data-name="타원 311" cx="8.631" cy="8.631" r="8.631" transform="translate(24.456 16.992)" style="stroke:#5b5652;stroke-linecap:round;stroke-linejoin:round;fill:none"/>
            <path data-name="패스 7294" d="M61.37 41.667a6.1 6.1 0 1 1-6.1-6.1 6.1 6.1 0 0 1 6.1 6.1" transform="translate(-22.179 -16.044)" style="fill:#e8e589;stroke:#707070"/>
            <circle data-name="타원 312" cx="6.103" cy="6.103" r="6.103" transform="translate(26.985 19.52)" style="stroke:#5b5652;stroke-linecap:round;stroke-linejoin:round;fill:none"/>
            <path data-name="선 262" transform="translate(10.351 8.017)" style="stroke:#5b5652;stroke-linecap:round;stroke-linejoin:round;fill:none" d="M0 0h17.255"/>
            <path data-name="선 263" transform="translate(10.351 13.071)" style="stroke:#5b5652;stroke-linecap:round;stroke-linejoin:round;fill:none" d="M0 0h17.255"/>
            <path data-name="선 264" transform="translate(10.351 18.125)" style="stroke:#5b5652;stroke-linecap:round;stroke-linejoin:round;fill:none" d="M0 0h10.831"/>
            <path data-name="선 265" transform="translate(10.351 23.179)" style="stroke:#5b5652;stroke-linecap:round;stroke-linejoin:round;fill:none" d="M0 0h10.831"/>
        </g>
    </g>
    <path data-name="사각형 3259" style="fill:none" d="M0 0h54v54H0z"/>
</svg>
