<svg xmlns="http://www.w3.org/2000/svg" width="26" height="26" viewBox="0 0 26 26">
    <defs>
        <clipPath id="k7abeb118a">
            <path data-name="사각형 3806" style="fill:#47d99b" d="M0 0h26v26H0z"/>
        </clipPath>
    </defs>
    <g data-name="그룹 5794">
        <g data-name="그룹 5598" style="clip-path:url(#k7abeb118a)">
            <path data-name="패스 7635" d="M7.338 14.456c-2.763 0-4.468 2.433-4.468 5.064a2.587 2.587 0 0 1-1.67 2.471.214.214 0 0 0-.1.284.2.2 0 0 0 .013.025c.887 1.31 3.365 1.772 5.068 1.772a6.455 6.455 0 0 0 1.161-.091c1.893-.34 4.265-1.326 4.829-4.1.651-3.222-2.07-5.426-4.833-5.426" style="fill:#47d99b"/>
            <path data-name="패스 7636" d="M24.274 2.588a2.007 2.007 0 0 0-1.39-.66 1.6 1.6 0 0 0-1 .372l-8.79 7.737a1.573 1.573 0 0 1-1.049.394h-.011a1.263 1.263 0 0 0-.82.309l-2.855 2.332a.311.311 0 0 0 .164.548 4.837 4.837 0 0 1 4.648 4.611.314.314 0 0 0 .106.239.3.3 0 0 0 .427-.031l2.4-2.779a1.253 1.253 0 0 0 .319-.773v-.067a1.648 1.648 0 0 1 .427-1.086l7.711-8.75a1.709 1.709 0 0 0-.288-2.4" style="fill:#47d99b"/>
        </g>
    </g>
</svg>
