<svg xmlns="http://www.w3.org/2000/svg" width="26" height="26" viewBox="0 0 26 26">
    <defs>
        <clipPath id="yp6zya6kia">
            <path data-name="사각형 3818" style="fill:#47d99b" d="M0 0h26v26H0z"/>
        </clipPath>
    </defs>
    <g data-name="그룹 5800">
        <g data-name="그룹 5610" style="clip-path:url(#yp6zya6kia)">
            <path data-name="패스 7641" d="M10.173 18.83a14.565 14.565 0 0 1-1.6.089 10.627 10.627 0 0 1-5.893-1.511 1.8 1.8 0 0 0-.664 1.284c0 1.623 3 3 6.557 3a13.546 13.546 0 0 0 1.584-.1 2.61 2.61 0 0 1 .8-1.435 2.67 2.67 0 0 1-.782-1.326" style="fill:#47d99b"/>
            <path data-name="패스 7642" d="M2.677 13.891a1.8 1.8 0 0 0-.665 1.284 1.8 1.8 0 0 0 .665 1.283 8.682 8.682 0 0 1 3.36-1.284 8.682 8.682 0 0 1-3.36-1.283" style="fill:#47d99b"/>
            <path data-name="패스 7643" d="M10.154 18.073a2.61 2.61 0 0 1 .8-1.435 2.954 2.954 0 0 1-.6-.822A13.515 13.515 0 0 0 8.57 15.7a10.488 10.488 0 0 0-5.259 1.237 10.5 10.5 0 0 0 5.259 1.232 13.546 13.546 0 0 0 1.584-.1" style="fill:#47d99b"/>
            <path data-name="패스 7644" d="M6.037 15.174a8.688 8.688 0 0 0-3.36 1.284 3.441 3.441 0 0 0 .3.248 9.77 9.77 0 0 1 4.566-1.344 13.435 13.435 0 0 1-1.506-.188" style="fill:#47d99b"/>
            <path data-name="패스 7645" d="M9.6 15.362q.307.022.606.057c-.009-.036-.023-.071-.031-.107a13.08 13.08 0 0 1-.575.05" style="fill:#47d99b"/>
            <path data-name="패스 7646" d="M10.353 15.816a2.306 2.306 0 0 1-.15-.4c-.2-.024-.4-.042-.606-.057-.336.023-.677.039-1.027.039s-.692-.016-1.028-.039a9.75 9.75 0 0 0-4.566 1.344c.1.078.216.153.334.226A10.492 10.492 0 0 1 8.57 15.7a13.331 13.331 0 0 1 1.783.12" style="fill:#47d99b"/>
            <path data-name="패스 7647" d="M2.677 10.373a1.794 1.794 0 0 0-.665 1.284 1.794 1.794 0 0 0 .665 1.283 8.682 8.682 0 0 1 3.36-1.283 8.7 8.7 0 0 1-3.36-1.284" style="fill:#47d99b"/>
            <path data-name="패스 7648" d="M10.154 14.556a2.61 2.61 0 0 1 .8-1.435 2.954 2.954 0 0 1-.6-.822 13.515 13.515 0 0 0-1.784-.12 10.488 10.488 0 0 0-5.259 1.237 10.5 10.5 0 0 0 5.259 1.236 13.546 13.546 0 0 0 1.584-.1" style="fill:#47d99b"/>
            <path data-name="패스 7649" d="M6.037 11.656a8.688 8.688 0 0 0-3.36 1.285 3.778 3.778 0 0 0 .3.247 9.8 9.8 0 0 1 4.566-1.344 13 13 0 0 1-1.5-.188" style="fill:#47d99b"/>
            <path data-name="패스 7650" d="M9.6 11.845q.308.022.606.057c-.01-.036-.023-.071-.031-.107a13.08 13.08 0 0 1-.575.05" style="fill:#47d99b"/>
            <path data-name="패스 7651" d="M10.353 12.3a2.306 2.306 0 0 1-.15-.4c-.2-.024-.4-.042-.606-.057-.336.023-.677.039-1.027.039s-.692-.016-1.028-.039a9.75 9.75 0 0 0-4.566 1.344c.1.078.216.153.334.226a10.492 10.492 0 0 1 5.26-1.236 13.331 13.331 0 0 1 1.783.12" style="fill:#47d99b"/>
            <path data-name="패스 7652" d="M12.623 8.524a10.334 10.334 0 0 1 2.461-.714 2.018 2.018 0 0 0-.621-.955A8.676 8.676 0 0 1 11.1 8.139a10.988 10.988 0 0 1 1.52.385" style="fill:#47d99b"/>
            <path data-name="패스 7653" d="M2.677 6.855a1.8 1.8 0 0 0-.665 1.283 1.8 1.8 0 0 0 .665 1.284 8.682 8.682 0 0 1 3.36-1.283 8.7 8.7 0 0 1-3.36-1.284" style="fill:#47d99b"/>
            <path data-name="패스 7654" d="M10.154 11.038a3.107 3.107 0 0 1 1.523-2.006 12.766 12.766 0 0 0-3.107-.371A10.5 10.5 0 0 0 3.311 9.9a10.488 10.488 0 0 0 5.259 1.234 13.546 13.546 0 0 0 1.584-.1" style="fill:#47d99b"/>
            <path data-name="패스 7655" d="M11.1 8.139a13.446 13.446 0 0 1-1.5.188 12.218 12.218 0 0 1 2.527.44q.237-.128.5-.243a11.025 11.025 0 0 0-1.52-.385" style="fill:#47d99b"/>
            <path data-name="패스 7656" d="M6.037 8.139a8.688 8.688 0 0 0-3.36 1.284 3.578 3.578 0 0 0 .3.248 9.773 9.773 0 0 1 4.565-1.344 13.446 13.446 0 0 1-1.5-.188" style="fill:#47d99b"/>
            <path data-name="패스 7657" d="M11.677 9.032c.141-.092.291-.18.448-.265a12.206 12.206 0 0 0-2.525-.44c-.336.024-.677.04-1.028.04s-.692-.016-1.028-.04a9.773 9.773 0 0 0-4.568 1.344c.105.078.216.154.335.227A10.485 10.485 0 0 1 8.57 8.661a12.821 12.821 0 0 1 3.107.371" style="fill:#47d99b"/>
            <path data-name="패스 7658" d="M14.463 5.905a1.8 1.8 0 0 0 .665-1.284c0-1.623-3-2.995-6.558-2.995S2.012 3 2.012 4.621a1.8 1.8 0 0 0 .665 1.284A10.624 10.624 0 0 1 8.57 4.394a10.624 10.624 0 0 1 5.893 1.511" style="fill:#47d99b"/>
            <path data-name="패스 7659" d="M13.829 6.38A10.488 10.488 0 0 0 8.57 5.143 10.492 10.492 0 0 0 3.31 6.38a10.492 10.492 0 0 0 5.26 1.237 10.488 10.488 0 0 0 5.259-1.237" style="fill:#47d99b"/>
            <path data-name="패스 7660" d="M14.164 6.154a3.618 3.618 0 0 0 .3-.249A10.624 10.624 0 0 0 8.57 4.394a10.629 10.629 0 0 0-5.893 1.511 3.812 3.812 0 0 0 .3.249A10.5 10.5 0 0 1 8.57 4.769a10.5 10.5 0 0 1 5.594 1.385" style="fill:#47d99b"/>
            <path data-name="패스 7661" d="M13.829 6.38c.119-.073.23-.149.334-.226A10.488 10.488 0 0 0 8.57 4.768a10.492 10.492 0 0 0-5.594 1.386c.1.077.216.153.334.226a10.492 10.492 0 0 1 5.26-1.237 10.488 10.488 0 0 1 5.259 1.237" style="fill:#47d99b"/>
            <path data-name="패스 7662" d="M13.377 21.53a10.334 10.334 0 0 1-2.461.714c.372 1.476 3.2 2.667 6.514 2.667 3.554 0 6.557-1.372 6.557-3a1.79 1.79 0 0 0-.665-1.283 10.618 10.618 0 0 1-5.892 1.511 12.856 12.856 0 0 1-4.053-.613" style="fill:#47d99b"/>
            <path data-name="패스 7663" d="M11.537 20.631a2.117 2.117 0 0 0-.581.839 10.631 10.631 0 0 0 1.4-.356 6.227 6.227 0 0 1-.824-.483" style="fill:#47d99b"/>
            <path data-name="패스 7664" d="M12.858 21.337a10.567 10.567 0 0 1-1.98.53c0 .016-.006.032-.006.048a1.357 1.357 0 0 0 .044.329 10.334 10.334 0 0 0 2.461-.714 8.75 8.75 0 0 1-.519-.193" style="fill:#47d99b"/>
            <path data-name="패스 7665" d="M12.361 21.114a10.654 10.654 0 0 1-1.4.357 1.393 1.393 0 0 0-.079.4 10.545 10.545 0 0 0 1.98-.531 9.1 9.1 0 0 1-.5-.222" style="fill:#47d99b"/>
            <path data-name="패스 7666" d="M23.323 19.681a1.8 1.8 0 0 0 .664-1.283 1.8 1.8 0 0 0-.664-1.284 8.688 8.688 0 0 1-3.358 1.286 8.672 8.672 0 0 1 3.358 1.283" style="fill:#47d99b"/>
            <path data-name="패스 7667" d="M13.377 18.012a10.334 10.334 0 0 1-2.461.714 2.026 2.026 0 0 0 .621.955A8.661 8.661 0 0 1 14.9 18.4a10.972 10.972 0 0 1-1.519-.386" style="fill:#47d99b"/>
            <path data-name="패스 7668" d="M11.537 17.114a2.117 2.117 0 0 0-.581.839 10.631 10.631 0 0 0 1.4-.356 6.227 6.227 0 0 1-.824-.483" style="fill:#47d99b"/>
            <path data-name="패스 7669" d="M12.858 17.819a10.546 10.546 0 0 1-1.98.53c0 .016-.005.032-.005.048a1.31 1.31 0 0 0 .044.329 10.339 10.339 0 0 0 2.46-.714 8.75 8.75 0 0 1-.519-.193" style="fill:#47d99b"/>
            <path data-name="패스 7670" d="M12.361 17.6a10.654 10.654 0 0 1-1.4.357 1.393 1.393 0 0 0-.079.4 10.471 10.471 0 0 0 1.98-.53 9.1 9.1 0 0 1-.5-.222" style="fill:#47d99b"/>
            <path data-name="패스 7671" d="M15.847 19.016a3.113 3.113 0 0 1-1.523 2.007 12.815 12.815 0 0 0 3.107.371 10.483 10.483 0 0 0 5.258-1.238 10.484 10.484 0 0 0-5.258-1.237 13.543 13.543 0 0 0-1.584.1" style="fill:#47d99b"/>
            <path data-name="패스 7672" d="M13.342 20.718a3.139 3.139 0 0 0 1.7-1.583 8.55 8.55 0 0 0-2.873 1.021 6.61 6.61 0 0 0 1.171.562" style="fill:#47d99b"/>
            <path data-name="패스 7673" d="M13.83 20.884c.16.049.324.1.494.139a3.111 3.111 0 0 0 1.523-2.007c-.131.015-.261.03-.389.049a3.067 3.067 0 0 1-1.628 1.819" style="fill:#47d99b"/>
            <path data-name="패스 7674" d="M13.342 20.718c.157.058.32.114.488.166a3.067 3.067 0 0 0 1.628-1.819c-.14.021-.278.045-.414.07a3.139 3.139 0 0 1-1.7 1.583" style="fill:#47d99b"/>
            <path data-name="패스 7675" d="M15.872 18.633c.174-.019.35-.034.529-.047-.181-.013-.362-.026-.538-.045 0 .03.008.061.009.092" style="fill:#47d99b"/>
            <path data-name="패스 7676" d="M18.459 18.586a9.768 9.768 0 0 1 4.564 1.344 3.618 3.618 0 0 0 .3-.249 8.672 8.672 0 0 0-3.359-1.281 13.447 13.447 0 0 1-1.505.188" style="fill:#47d99b"/>
            <path data-name="패스 7677" d="M11.537 19.681a3.618 3.618 0 0 0 .3.249 8.686 8.686 0 0 1 3.286-1.19c0-.016.005-.032.005-.048a1.306 1.306 0 0 0-.029-.257l-.2-.038a8.693 8.693 0 0 0-3.359 1.284" style="fill:#47d99b"/>
            <path data-name="패스 7678" d="M15.482 18.492a1.5 1.5 0 0 1 .019.188c.123-.017.247-.032.371-.046 0-.032-.006-.062-.008-.093-.13-.014-.256-.032-.382-.049" style="fill:#47d99b"/>
            <path data-name="패스 7679" d="M15.128 18.692c0 .016-.005.032-.006.048.126-.021.251-.042.379-.06a1.46 1.46 0 0 0-.019-.188c-.129-.018-.258-.036-.384-.057a1.307 1.307 0 0 1 .03.257" style="fill:#47d99b"/>
            <path data-name="패스 7680" d="M17.431 18.626c-.351 0-.694-.016-1.029-.04-.18.013-.357.028-.529.048 0 .019.005.039.005.058a2.181 2.181 0 0 1-.031.324 13.532 13.532 0 0 1 1.584-.1 10.481 10.481 0 0 1 5.258 1.237 4.89 4.89 0 0 0 .335-.227 9.773 9.773 0 0 0-4.565-1.344c-.337.024-.678.04-1.028.04" style="fill:#47d99b"/>
            <path data-name="패스 7681" d="M12.171 20.156a8.529 8.529 0 0 1 2.873-1.021 1.358 1.358 0 0 0 .078-.4 8.681 8.681 0 0 0-3.285 1.19c.1.077.215.153.334.226" style="fill:#47d99b"/>
            <path data-name="패스 7682" d="M15.5 18.692a1.676 1.676 0 0 1-.045.373c.128-.019.259-.034.389-.049a2.055 2.055 0 0 0 .031-.324c0-.02-.005-.039-.005-.059-.125.014-.249.03-.371.047v.012" style="fill:#47d99b"/>
            <path data-name="패스 7683" d="M15.044 19.135c.136-.025.273-.05.414-.071a1.655 1.655 0 0 0 .045-.373v-.011c-.128.017-.254.039-.379.06a1.4 1.4 0 0 1-.078.4" style="fill:#47d99b"/>
            <path data-name="패스 7684" d="M23.323 16.163a1.8 1.8 0 0 0 .664-1.283 1.8 1.8 0 0 0-.664-1.284 8.688 8.688 0 0 1-3.358 1.284 8.672 8.672 0 0 1 3.358 1.283" style="fill:#47d99b"/>
            <path data-name="패스 7685" d="M12.623 15.559a10.214 10.214 0 0 1 2.277-.679 11.1 11.1 0 0 1-1.518-.385 10.223 10.223 0 0 1-2.274.679 11.01 11.01 0 0 1 1.519.385" style="fill:#47d99b"/>
            <path data-name="패스 7686" d="M11.368 16c.052.057.11.111.169.166l.14-.1c-.1-.026-.206-.047-.309-.07" style="fill:#47d99b"/>
            <path data-name="패스 7687" d="M12.623 15.559a11.01 11.01 0 0 0-1.519-.385c-.063.011-.124.024-.187.034a1.562 1.562 0 0 0 .134.339c.375.07.734.156 1.074.255q.237-.128.5-.243" style="fill:#47d99b"/>
            <path data-name="패스 7688" d="M12.125 15.8c-.341-.1-.7-.185-1.074-.255a2.1 2.1 0 0 0 .317.45c.1.023.209.045.309.07.141-.092.291-.18.448-.265" style="fill:#47d99b"/>
            <path data-name="패스 7689" d="M11.537 13.6a2.117 2.117 0 0 0-.581.839 10.632 10.632 0 0 0 1.4-.356 6.227 6.227 0 0 1-.824-.483" style="fill:#47d99b"/>
            <path data-name="패스 7690" d="M13.377 14.495a8.75 8.75 0 0 1-.519-.193 10.644 10.644 0 0 1-1.98.53c0 .016-.006.032-.006.048a1.307 1.307 0 0 0 .03.257l.2.037a10.223 10.223 0 0 0 2.274-.679" style="fill:#47d99b"/>
            <path data-name="패스 7691" d="M10.9 15.137c0 .024.009.048.014.071.063-.01.125-.023.187-.034-.067-.012-.133-.026-.2-.037" style="fill:#47d99b"/>
            <path data-name="패스 7692" d="M12.361 14.079a10.654 10.654 0 0 1-1.4.357 1.386 1.386 0 0 0-.079.4 10.47 10.47 0 0 0 1.98-.53 9.1 9.1 0 0 1-.5-.222" style="fill:#47d99b"/>
            <path data-name="패스 7693" d="M15.847 15.5a2.607 2.607 0 0 1-.8 1.435 2.984 2.984 0 0 1 .6.822 13.344 13.344 0 0 0 1.784.121 10.484 10.484 0 0 0 5.258-1.237 10.484 10.484 0 0 0-5.258-1.241 13.546 13.546 0 0 0-1.584.1" style="fill:#47d99b"/>
            <path data-name="패스 7694" d="M14.632 17.575c-.052-.058-.11-.111-.169-.167a28.29 28.29 0 0 1-.14.1c.1.026.206.047.309.07" style="fill:#47d99b"/>
            <path data-name="패스 7695" d="M14.762 17.183a2.815 2.815 0 0 1 .424.5c.153.026.3.05.462.071a3.013 3.013 0 0 0-.6-.822 4.067 4.067 0 0 1-.283.25" style="fill:#47d99b"/>
            <path data-name="패스 7696" d="M14.632 17.575c.181.04.365.076.554.109a2.944 2.944 0 0 0-.424-.5 4.195 4.195 0 0 1-.3.226c.059.056.117.109.169.167" style="fill:#47d99b"/>
            <path data-name="패스 7697" d="M14.463 16.458a2.093 2.093 0 0 0 .581-.84 10.685 10.685 0 0 0-1.406.357 6.176 6.176 0 0 1 .825.483" style="fill:#47d99b"/>
            <path data-name="패스 7698" d="M12.171 16.639a6.644 6.644 0 0 0 1.171.562c.174-.085.336-.174.488-.268a6.726 6.726 0 0 0-1.172-.562 6.012 6.012 0 0 0-.487.268" style="fill:#47d99b"/>
            <path data-name="패스 7699" d="M13.134 16.159a6.367 6.367 0 0 1 1.029.547 3.276 3.276 0 0 0 .3-.249 6.129 6.129 0 0 0-.825-.482 7.26 7.26 0 0 0-.5.184" style="fill:#47d99b"/>
            <path data-name="패스 7700" d="M12.658 16.371a6.61 6.61 0 0 1 1.171.562c.119-.073.23-.149.334-.226a6.368 6.368 0 0 0-1.029-.548q-.249.1-.476.212" style="fill:#47d99b"/>
            <path data-name="패스 7701" d="M14.762 16.683c.1.082.2.164.283.25a2.61 2.61 0 0 0 .8-1.435c-.13.015-.261.03-.389.049a2.335 2.335 0 0 1-.695 1.136" style="fill:#47d99b"/>
            <path data-name="패스 7702" d="M14.323 17.5c.048-.031.094-.064.14-.1a3.276 3.276 0 0 0-.3-.249 5.29 5.29 0 0 1-.334.206c.161.05.325.1.494.139" style="fill:#47d99b"/>
            <path data-name="패스 7703" d="M14.762 16.683a3.547 3.547 0 0 1-.287.25 3.546 3.546 0 0 1 .287.25c.1-.082.2-.164.283-.25a4.097 4.097 0 0 0-.283-.25" style="fill:#47d99b"/>
            <path data-name="패스 7704" d="M14.463 17.408c.1-.073.2-.148.3-.225a3.546 3.546 0 0 0-.287-.25c-.1.077-.2.153-.311.226a3.618 3.618 0 0 1 .3.249" style="fill:#47d99b"/>
            <path data-name="패스 7705" d="M14.463 16.458c.1.073.2.148.3.225a2.323 2.323 0 0 0 .7-1.135 12.3 12.3 0 0 0-.414.07 2.093 2.093 0 0 1-.581.84" style="fill:#47d99b"/>
            <path data-name="패스 7706" d="M13.83 17.366c.117-.067.227-.136.334-.207a3.81 3.81 0 0 0-.334-.226 5.869 5.869 0 0 1-.488.267q.235.089.488.166" style="fill:#47d99b"/>
            <path data-name="패스 7707" d="M14.164 16.707c.11.073.214.149.312.226.1-.081.2-.164.287-.249a4.699 4.699 0 0 0-.3-.226 3.619 3.619 0 0 1-.3.249" style="fill:#47d99b"/>
            <path data-name="패스 7708" d="M13.829 16.933c.119.073.23.149.334.226.111-.073.214-.148.312-.226-.1-.078-.2-.153-.312-.226-.1.078-.215.153-.334.226" style="fill:#47d99b"/>
            <path data-name="패스 7709" d="M15.872 15.116c.174-.019.35-.034.529-.047-.181-.013-.362-.026-.538-.045 0 .031.008.061.009.092" style="fill:#47d99b"/>
            <path data-name="패스 7710" d="M18.46 15.068a9.768 9.768 0 0 1 4.564 1.344 3.792 3.792 0 0 0 .3-.249 8.678 8.678 0 0 0-3.358-1.283 13.446 13.446 0 0 1-1.505.188" style="fill:#47d99b"/>
            <path data-name="패스 7711" d="M12.623 15.559c.179.06.352.125.519.193a10.567 10.567 0 0 1 1.98-.53c0-.016.006-.032.006-.048a1.316 1.316 0 0 0-.03-.257l-.2-.037a10.214 10.214 0 0 0-2.273.679" style="fill:#47d99b"/>
            <path data-name="패스 7712" d="M11.677 16.067a1.887 1.887 0 0 0-.14.1 3.4 3.4 0 0 0 .3.249c.107-.071.217-.14.334-.206q-.24-.075-.493-.139" style="fill:#47d99b"/>
            <path data-name="패스 7713" d="M12.637 15.966c.161-.075.33-.146.505-.214a8.497 8.497 0 0 0-.519-.193q-.26.115-.5.243.264.076.512.164" style="fill:#47d99b"/>
            <path data-name="패스 7714" d="M12.125 15.8a6.374 6.374 0 0 0-.448.265q.253.065.493.138c.148-.083.3-.163.467-.239a9.916 9.916 0 0 0-.512-.164" style="fill:#47d99b"/>
            <path data-name="패스 7715" d="M15.482 14.974a1.478 1.478 0 0 1 .019.188c.123-.017.247-.033.371-.047 0-.031-.006-.061-.008-.092-.13-.014-.256-.032-.382-.049" style="fill:#47d99b"/>
            <path data-name="패스 7716" d="M15.128 15.174c0 .016-.005.032-.005.048.125-.022.25-.042.378-.06a1.46 1.46 0 0 0-.019-.188c-.129-.018-.258-.036-.384-.057a1.307 1.307 0 0 1 .03.257" style="fill:#47d99b"/>
            <path data-name="패스 7717" d="M17.431 15.108c-.351 0-.694-.016-1.031-.04-.178.013-.355.028-.527.048 0 .019.005.039.005.058a2.181 2.181 0 0 1-.031.324 13.533 13.533 0 0 1 1.584-.1 10.481 10.481 0 0 1 5.258 1.237c.12-.073.231-.149.335-.227a9.765 9.765 0 0 0-4.565-1.344c-.335.024-.678.04-1.028.04" style="fill:#47d99b"/>
            <path data-name="패스 7718" d="M13.639 15.975a10.654 10.654 0 0 1 1.4-.357 1.329 1.329 0 0 0 .08-.4 10.461 10.461 0 0 0-1.981.53 9.1 9.1 0 0 1 .5.222" style="fill:#47d99b"/>
            <path data-name="패스 7719" d="M12.17 16.2a5.409 5.409 0 0 0-.334.207c.1.078.216.153.335.226a5.314 5.314 0 0 1 .487-.266q-.235-.089-.488-.167" style="fill:#47d99b"/>
            <path data-name="패스 7720" d="M13.134 16.159c.162-.065.33-.127.5-.184a7.021 7.021 0 0 0-.5-.223q-.263.1-.505.214.258.092.5.193" style="fill:#47d99b"/>
            <path data-name="패스 7721" d="M12.17 16.2q.252.078.488.167c.151-.076.31-.146.476-.212q-.24-.1-.5-.194a6.758 6.758 0 0 0-.466.239" style="fill:#47d99b"/>
            <path data-name="패스 7722" d="M15.5 15.174a1.676 1.676 0 0 1-.045.373c.128-.019.259-.034.389-.049a2.055 2.055 0 0 0 .031-.324c0-.02-.005-.039-.005-.059-.125.014-.249.03-.371.047v.012" style="fill:#47d99b"/>
            <path data-name="패스 7723" d="M15.044 15.618c.136-.025.273-.05.414-.071a1.669 1.669 0 0 0 .045-.373v-.012a14.3 14.3 0 0 0-.379.06 1.4 1.4 0 0 1-.078.4" style="fill:#47d99b"/>
            <path data-name="패스 7724" d="M15.828 11.224a14.565 14.565 0 0 1 1.6-.089 10.621 10.621 0 0 1 5.892 1.511 1.8 1.8 0 0 0 .664-1.283c0-1.624-3-3-6.556-3a13.771 13.771 0 0 0-1.584.1 2.613 2.613 0 0 1-.8 1.436 2.67 2.67 0 0 1 .782 1.326" style="fill:#47d99b"/>
            <path data-name="패스 7725" d="M12.623 12.042a10.334 10.334 0 0 1 2.461-.714 2.026 2.026 0 0 0-.621-.955 8.666 8.666 0 0 1-3.36 1.283 10.987 10.987 0 0 1 1.52.386" style="fill:#47d99b"/>
            <path data-name="패스 7726" d="M11.368 12.48c.052.057.11.111.169.166l.14-.1c-.1-.026-.206-.047-.309-.07" style="fill:#47d99b"/>
            <path data-name="패스 7727" d="M12.623 12.042a10.987 10.987 0 0 0-1.52-.386c-.062.012-.123.025-.186.035a1.583 1.583 0 0 0 .134.339 10.9 10.9 0 0 1 1.074.255c.159-.085.324-.167.5-.243" style="fill:#47d99b"/>
            <path data-name="패스 7728" d="M12.125 12.285a10.968 10.968 0 0 0-1.074-.255 2.094 2.094 0 0 0 .317.449c.1.024.209.045.309.071.141-.092.291-.18.448-.265" style="fill:#47d99b"/>
            <path data-name="패스 7729" d="M14.762 10.147a2.339 2.339 0 0 1 .692 1.124c.123-.017.247-.034.373-.048a2.67 2.67 0 0 0-.782-1.323 4.067 4.067 0 0 1-.283.25" style="fill:#47d99b"/>
            <path data-name="패스 7730" d="M15.083 11.328c.122-.021.247-.039.372-.056a2.329 2.329 0 0 0-.693-1.124q-.141.116-.3.225a2.018 2.018 0 0 1 .621.955" style="fill:#47d99b"/>
            <path data-name="패스 7731" d="M14.463 9.423a2.1 2.1 0 0 0 .581-.84 10.476 10.476 0 0 0-1.4.357 6.227 6.227 0 0 1 .824.483" style="fill:#47d99b"/>
            <path data-name="패스 7732" d="M12.658 9.336a3.142 3.142 0 0 0-1.7 1.582A8.545 8.545 0 0 0 13.829 9.9a6.61 6.61 0 0 0-1.171-.562" style="fill:#47d99b"/>
            <path data-name="패스 7733" d="M14.164 9.671a3.618 3.618 0 0 0 .3-.249 6.226 6.226 0 0 0-.824-.483q-.263.087-.5.185a6.367 6.367 0 0 1 1.029.547" style="fill:#47d99b"/>
            <path data-name="패스 7734" d="M13.829 9.9c.119-.073.23-.149.334-.226a6.368 6.368 0 0 0-1.029-.548q-.249.1-.476.212a6.714 6.714 0 0 1 1.171.562" style="fill:#47d99b"/>
            <path data-name="패스 7735" d="M15.045 9.9a2.6 2.6 0 0 0 .8-1.435c-.13.016-.261.03-.389.049a2.335 2.335 0 0 1-.695 1.136c.1.082.2.164.283.25" style="fill:#47d99b"/>
            <path data-name="패스 7736" d="M14.463 10.373a3.618 3.618 0 0 0-.3-.249 8.686 8.686 0 0 1-3.286 1.19c0 .016-.005.032-.005.048a1.4 1.4 0 0 0 .029.258c.068.011.134.024.2.037a8.7 8.7 0 0 0 3.36-1.284" style="fill:#47d99b"/>
            <path data-name="패스 7737" d="M10.9 11.62c0 .024.009.048.014.071.063-.01.125-.023.187-.035-.067-.012-.133-.026-.2-.036" style="fill:#47d99b"/>
            <path data-name="패스 7738" d="M14.476 9.9c.1.081.2.164.287.25.1-.082.2-.164.283-.25a4.345 4.345 0 0 0-.283-.25 3.925 3.925 0 0 1-.287.25" style="fill:#47d99b"/>
            <path data-name="패스 7739" d="M14.463 10.373c.1-.073.2-.148.3-.225a3.708 3.708 0 0 0-.286-.25c-.1.077-.2.153-.312.226a3.618 3.618 0 0 1 .3.249" style="fill:#47d99b"/>
            <path data-name="패스 7740" d="M14.463 9.423c.1.073.2.148.3.225a2.323 2.323 0 0 0 .7-1.135 12.3 12.3 0 0 0-.414.07 2.1 2.1 0 0 1-.581.84" style="fill:#47d99b"/>
            <path data-name="패스 7741" d="M13.829 9.9a8.529 8.529 0 0 1-2.873 1.02 1.4 1.4 0 0 0-.078.4 8.675 8.675 0 0 0 3.285-1.19 3.883 3.883 0 0 0-.334-.226" style="fill:#47d99b"/>
            <path data-name="패스 7742" d="M14.476 9.9c.1-.081.2-.164.287-.25a4.784 4.784 0 0 0-.3-.225 3.618 3.618 0 0 1-.3.249c.11.073.214.148.312.226" style="fill:#47d99b"/>
            <path data-name="패스 7743" d="M14.164 10.124c.11-.073.214-.149.312-.226-.1-.078-.2-.153-.312-.227-.1.078-.215.153-.334.227.119.073.23.148.334.226" style="fill:#47d99b"/>
            <path data-name="패스 7744" d="M15.847 11.98a2.607 2.607 0 0 1-.8 1.435 2.984 2.984 0 0 1 .6.822 13.344 13.344 0 0 0 1.784.121 10.484 10.484 0 0 0 5.258-1.237 10.484 10.484 0 0 0-5.258-1.237 13.546 13.546 0 0 0-1.584.1" style="fill:#47d99b"/>
            <path data-name="패스 7745" d="M14.632 14.057c-.052-.057-.11-.111-.169-.166a7.715 7.715 0 0 0-.14.1c.1.026.206.047.309.07" style="fill:#47d99b"/>
            <path data-name="패스 7746" d="M14.762 13.665a2.815 2.815 0 0 1 .424.5c.153.026.3.051.462.072a3 3 0 0 0-.6-.823 4.067 4.067 0 0 1-.283.25" style="fill:#47d99b"/>
            <path data-name="패스 7747" d="M14.632 14.057c.181.04.365.077.554.109a2.9 2.9 0 0 0-.424-.5 4.516 4.516 0 0 1-.3.226c.059.055.117.109.169.166" style="fill:#47d99b"/>
            <path data-name="패스 7748" d="M14.463 12.94a2.093 2.093 0 0 0 .581-.84 10.685 10.685 0 0 0-1.406.357 6.176 6.176 0 0 1 .825.483" style="fill:#47d99b"/>
            <path data-name="패스 7749" d="M13.829 13.415a6.715 6.715 0 0 0-1.171-.562 5.593 5.593 0 0 0-.488.268 6.726 6.726 0 0 0 1.172.562c.173-.085.335-.175.487-.268" style="fill:#47d99b"/>
            <path data-name="패스 7750" d="M13.134 12.642a6.367 6.367 0 0 1 1.029.547 3.276 3.276 0 0 0 .3-.249 6.129 6.129 0 0 0-.825-.482 7.26 7.26 0 0 0-.5.184" style="fill:#47d99b"/>
            <path data-name="패스 7751" d="M12.658 12.854a6.541 6.541 0 0 1 1.171.562c.119-.073.23-.149.334-.227a6.446 6.446 0 0 0-1.029-.547 6.75 6.75 0 0 0-.476.212" style="fill:#47d99b"/>
            <path data-name="패스 7752" d="M14.762 13.165c.1.082.2.164.283.25a2.607 2.607 0 0 0 .8-1.435c-.13.015-.261.03-.389.05a2.337 2.337 0 0 1-.695 1.135" style="fill:#47d99b"/>
            <path data-name="패스 7753" d="M14.323 13.987c.048-.031.094-.064.14-.1a3.276 3.276 0 0 0-.3-.249 5.29 5.29 0 0 1-.334.206c.161.05.325.1.494.139" style="fill:#47d99b"/>
            <path data-name="패스 7754" d="M14.762 13.165a3.361 3.361 0 0 1-.287.25 3.754 3.754 0 0 1 .287.25c.1-.082.2-.163.283-.25a4.097 4.097 0 0 0-.283-.25" style="fill:#47d99b"/>
            <path data-name="패스 7755" d="M14.476 13.415c-.1.078-.2.153-.313.226a3.831 3.831 0 0 1 .3.249c.1-.073.2-.148.3-.225a3.529 3.529 0 0 0-.286-.25" style="fill:#47d99b"/>
            <path data-name="패스 7756" d="M14.463 12.94c.1.073.2.148.3.225a2.323 2.323 0 0 0 .7-1.135 12.3 12.3 0 0 0-.414.07 2.093 2.093 0 0 1-.581.84" style="fill:#47d99b"/>
            <path data-name="패스 7757" d="M13.342 13.683c.157.058.32.114.488.166.117-.067.227-.136.334-.207a3.908 3.908 0 0 0-.335-.227 5.571 5.571 0 0 1-.487.268" style="fill:#47d99b"/>
            <path data-name="패스 7758" d="M14.164 13.189c.11.073.214.149.312.226.1-.081.2-.164.287-.249a4.699 4.699 0 0 0-.3-.226 3.618 3.618 0 0 1-.3.249" style="fill:#47d99b"/>
            <path data-name="패스 7759" d="M13.829 13.415c.119.073.23.149.334.226.11-.073.214-.148.312-.226-.1-.078-.2-.153-.312-.226-.1.077-.215.153-.334.226" style="fill:#47d99b"/>
            <path data-name="패스 7760" d="M15.828 11.224a2.042 2.042 0 0 1 .044.373 14.294 14.294 0 0 1 1.558-.087 10.5 10.5 0 0 1 5.594 1.39 3.618 3.618 0 0 0 .3-.249 10.621 10.621 0 0 0-5.892-1.511 14.565 14.565 0 0 0-1.6.089" style="fill:#47d99b"/>
            <path data-name="패스 7761" d="M13.142 12.235a10.557 10.557 0 0 1 1.981-.53c0-.016.005-.032.005-.048a1.357 1.357 0 0 0-.044-.329 10.334 10.334 0 0 0-2.461.714c.179.06.352.125.519.193" style="fill:#47d99b"/>
            <path data-name="패스 7762" d="M11.677 12.549a1.887 1.887 0 0 0-.14.1 3.586 3.586 0 0 0 .3.249c.107-.071.217-.14.334-.207q-.24-.074-.493-.138" style="fill:#47d99b"/>
            <path data-name="패스 7763" d="M13.142 12.235a8.75 8.75 0 0 0-.519-.193q-.26.116-.5.243c.176.051.347.105.512.164.161-.075.33-.147.505-.214" style="fill:#47d99b"/>
            <path data-name="패스 7764" d="M12.125 12.285a6.374 6.374 0 0 0-.448.265c.169.042.333.089.493.138q.222-.126.466-.24a9.579 9.579 0 0 0-.511-.163" style="fill:#47d99b"/>
            <path data-name="패스 7765" d="M15.5 11.644c.122-.017.246-.032.371-.046a2.044 2.044 0 0 0-.045-.375c-.126.014-.25.031-.373.048a1.679 1.679 0 0 1 .047.373" style="fill:#47d99b"/>
            <path data-name="패스 7766" d="M15.128 11.657c0 .016-.005.032-.005.048.125-.022.25-.042.378-.06a1.664 1.664 0 0 0-.047-.373c-.125.017-.248.036-.37.056a1.357 1.357 0 0 1 .044.329" style="fill:#47d99b"/>
            <path data-name="패스 7767" d="M15.872 11.6c0 .02.006.039.006.059a2.043 2.043 0 0 1-.031.323 13.542 13.542 0 0 1 1.583-.1 10.488 10.488 0 0 1 5.259 1.237c.119-.073.23-.148.334-.226a10.488 10.488 0 0 0-5.593-1.386 14.013 14.013 0 0 0-1.558.089" style="fill:#47d99b"/>
            <path data-name="패스 7768" d="M13.639 12.457a10.654 10.654 0 0 1 1.4-.357 1.329 1.329 0 0 0 .08-.4 10.535 10.535 0 0 0-1.981.531 9.1 9.1 0 0 1 .5.222" style="fill:#47d99b"/>
            <path data-name="패스 7769" d="M12.17 12.688a5.409 5.409 0 0 0-.334.207c.1.077.216.153.335.226.151-.093.314-.182.487-.267q-.235-.089-.488-.166" style="fill:#47d99b"/>
            <path data-name="패스 7770" d="M13.134 12.642c.162-.065.33-.127.5-.184a7.021 7.021 0 0 0-.5-.223 8.422 8.422 0 0 0-.505.214q.258.091.5.193" style="fill:#47d99b"/>
            <path data-name="패스 7771" d="M12.637 12.448a6.345 6.345 0 0 0-.466.24c.168.052.33.107.488.165.151-.073.309-.145.476-.212q-.24-.1-.5-.193" style="fill:#47d99b"/>
            <path data-name="패스 7772" d="M15.5 11.656a1.685 1.685 0 0 1-.045.374c.128-.02.259-.035.389-.049a2.079 2.079 0 0 0 .031-.325c0-.02-.005-.038-.005-.059-.125.014-.249.03-.371.047v.012" style="fill:#47d99b"/>
            <path data-name="패스 7773" d="M15.044 12.1c.136-.025.273-.05.414-.071a1.669 1.669 0 0 0 .045-.373v-.012a14.3 14.3 0 0 0-.379.06 1.4 1.4 0 0 1-.078.4" style="fill:#47d99b"/>
        </g>
    </g>
</svg>
