<svg xmlns="http://www.w3.org/2000/svg" width="26" height="26" viewBox="0 0 26 26">
    <defs>
        <clipPath id="5wcw5g47qa">
            <path data-name="사각형 3804" style="fill:#47d99b" d="M0 0h26v26H0z"/>
        </clipPath>
    </defs>
    <g data-name="그룹 5792">
        <g data-name="그룹 5593" style="clip-path:url(#5wcw5g47qa)">
            <path data-name="패스 7631" d="M2.217 12.252c0-2.809.008-5.618-.009-8.427 0-.444.106-.6.581-.6q7.557.025 15.114 0c.5 0 .623.172.607.634-.03.847.013 1.7-.017 2.543-.016.447.111.595.581.606a8.253 8.253 0 0 1 2.066.24 4.977 4.977 0 0 1-1.406 9.767c-1.233.01-1.232.01-1.233 1.221 0 .8.01 1.6 0 2.393a2.515 2.515 0 0 1-2.673 2.651q-5.463.015-10.924 0a2.53 2.53 0 0 1-2.682-2.7c-.006-2.776 0-5.552 0-8.328m17.224-2.744h-.3c-.644 0-.645 0-.645.655v2.939c0 1.54 0 1.54 1.564 1.371a2.483 2.483 0 0 0 2.135-2.057 2.514 2.514 0 0 0-2.753-2.908" style="fill:#47d99b"/>
        </g>
    </g>
</svg>
