<svg xmlns="http://www.w3.org/2000/svg" width="46.999" height="46.999" viewBox="0 0 46.999 46.999">
    <defs>
        <clipPath id="gmovp2nvwa">
            <path data-name="사각형 3759" style="fill:none" d="M0 0h46.999v46.999H0z"/>
        </clipPath>
    </defs>
    <g data-name="그룹 5568" style="clip-path:url(#gmovp2nvwa)">
        <path data-name="패스 7604" d="M15.746 13.244h-1.838a5.954 5.954 0 0 1-7.14 0h-1.8a3.011 3.011 0 0 0-3 3v9.116a3.011 3.011 0 0 0 3 3h.3v11.203a2.692 2.692 0 0 0 5.088 1.237 2.693 2.693 0 0 0 5.09-1.235V28.364h.3a3.011 3.011 0 0 0 3-3v-9.118a3.011 3.011 0 0 0-3-3" style="fill:#bad0ec"/>
        <path data-name="패스 7605" d="M15.746 13.244h-1.838a5.954 5.954 0 0 1-7.14 0h-1.8a3.011 3.011 0 0 0-3 3v9.116a3.011 3.011 0 0 0 3 3h.3v11.203a2.692 2.692 0 0 0 5.088 1.237 2.693 2.693 0 0 0 5.09-1.235V28.364h.3a3.011 3.011 0 0 0 3-3v-9.118a3.011 3.011 0 0 0-3-3.002z" style="stroke:#474440;fill:none"/>
        <path data-name="패스 7606" d="M10.338 4.218a4.157 4.157 0 1 0 4.157 4.158 4.162 4.162 0 0 0-4.157-4.158" style="fill:#bad0ec"/>
        <path data-name="패스 7607" d="M10.338 4.218a4.157 4.157 0 1 0 4.157 4.158 4.162 4.162 0 0 0-4.157-4.158z" style="stroke:#474440;fill:none"/>
        <path data-name="선 794" transform="translate(5.266 21.027)" style="stroke:#474440;fill:none" d="M0 7.927V0"/>
        <path data-name="선 795" transform="translate(15.451 21.027)" style="stroke:#474440;fill:none" d="M0 7.927V0"/>
        <path data-name="선 796" transform="translate(10.356 28.953)" style="stroke:#474440;fill:none" d="M0 12.767V0"/>
        <path data-name="패스 7608" d="M42.721 13.244h-1.838a5.954 5.954 0 0 1-7.14 0h-1.8a3.011 3.011 0 0 0-3 3v9.116a3.011 3.011 0 0 0 3 3h.3v11.203a2.692 2.692 0 0 0 5.088 1.237 2.693 2.693 0 0 0 5.09-1.235V28.364h.3a3.011 3.011 0 0 0 3-3v-9.118a3.011 3.011 0 0 0-3-3" style="fill:#bad0ec"/>
        <path data-name="패스 7609" d="M42.721 13.244h-1.838a5.954 5.954 0 0 1-7.14 0h-1.8a3.011 3.011 0 0 0-3 3v9.116a3.011 3.011 0 0 0 3 3h.3v11.203a2.692 2.692 0 0 0 5.088 1.237 2.693 2.693 0 0 0 5.09-1.235V28.364h.3a3.011 3.011 0 0 0 3-3v-9.118a3.011 3.011 0 0 0-3-3.002z" style="stroke:#474440;fill:none"/>
        <path data-name="패스 7610" d="M37.313 4.218a4.157 4.157 0 1 0 4.157 4.158 4.162 4.162 0 0 0-4.157-4.158" style="fill:#bad0ec"/>
        <path data-name="패스 7611" d="M37.313 4.218a4.157 4.157 0 1 0 4.157 4.158 4.162 4.162 0 0 0-4.157-4.158z" style="stroke:#474440;fill:none"/>
        <path data-name="선 797" transform="translate(32.241 21.027)" style="stroke:#474440;fill:none" d="M0 7.927V0"/>
        <path data-name="선 798" transform="translate(42.426 21.027)" style="stroke:#474440;fill:none" d="M0 7.927V0"/>
        <path data-name="선 799" transform="translate(37.331 28.953)" style="stroke:#474440;fill:none" d="M0 12.767V0"/>
        <path data-name="패스 7612" d="M29.233 15.018H27.4a5.954 5.954 0 0 1-7.14 0h-1.8a3.011 3.011 0 0 0-3 3v9.116a3.011 3.011 0 0 0 3 3h.3v11.203a2.692 2.692 0 0 0 5.089 1.235 2.693 2.693 0 0 0 5.09-1.235V30.138h.3a3.011 3.011 0 0 0 3-3V18.02a3.011 3.011 0 0 0-3-3" style="fill:#e5e5e4"/>
        <path data-name="패스 7613" d="M29.233 15.018H27.4a5.954 5.954 0 0 1-7.14 0h-1.8a3.011 3.011 0 0 0-3 3v9.116a3.011 3.011 0 0 0 3 3h.3v11.203a2.692 2.692 0 0 0 5.089 1.235 2.693 2.693 0 0 0 5.09-1.235V30.138h.3a3.011 3.011 0 0 0 3-3V18.02a3.011 3.011 0 0 0-3.006-3.002z" style="stroke:#474440;fill:none"/>
        <path data-name="패스 7614" d="M23.826 5.992a4.157 4.157 0 1 0 4.157 4.158 4.162 4.162 0 0 0-4.157-4.158" style="fill:#e5e5e4"/>
        <path data-name="패스 7615" d="M23.826 5.992a4.157 4.157 0 1 0 4.157 4.158 4.162 4.162 0 0 0-4.157-4.158z" style="stroke:#474440;fill:none"/>
        <path data-name="선 800" transform="translate(18.754 22.801)" style="fill:#e5e5e4" d="M0 7.927V0"/>
        <path data-name="선 801" transform="translate(18.754 22.801)" style="stroke:#474440;fill:none" d="M0 7.927V0"/>
        <path data-name="선 802" transform="translate(28.939 22.801)" style="fill:#e5e5e4" d="M0 7.927V0"/>
        <path data-name="선 803" transform="translate(28.939 22.801)" style="stroke:#474440;fill:none" d="M0 7.927V0"/>
        <path data-name="선 804" transform="translate(23.843 30.727)" style="fill:#e5e5e4" d="M0 12.767V0"/>
        <path data-name="선 805" transform="translate(23.843 30.727)" style="stroke:#474440;fill:none" d="M0 12.767V0"/>
    </g>
</svg>
