<svg xmlns="http://www.w3.org/2000/svg" width="23.026" height="24.353" viewBox="0 0 23.026 24.353">
    <path data-name="패스 7802" d="M62.3 48.959c-6.359 0-11.513 4.767-11.513 10.649 0 4.344 1.819 6.417 4.311 8.308l.012.005v5.1a.293.293 0 0 0 .468.235l4.366-3.243.094.041a12.488 12.488 0 0 0 2.263.206c6.359 0 11.513-4.768 11.513-10.649S68.663 48.959 62.3 48.959m-3.855 13.347a2.4 2.4 0 0 0 2.385-1.719h1.67a3.994 3.994 0 0 1-4.053 3.325 4.316 4.316 0 1 1 0-8.633 4 4 0 0 1 4.065 3.387h-1.666a2.374 2.374 0 0 0-2.4-1.8 2.606 2.606 0 0 0-2.711 2.734 2.673 2.673 0 0 0 2.709 2.711m11 1.441h-1.53V60.3a1.1 1.1 0 0 0-1.174-1.221c-.795 0-1.3.486-1.3 1.47v3.2h-1.53v-8.443h1.53v3.175a1.961 1.961 0 0 1 1.766-.83 2.1 2.1 0 0 1 1.6.652 2.461 2.461 0 0 1 .641 1.8z" transform="translate(-50.791 -48.959)" style="fill:#000002"/>
</svg>
