<svg id="icon" xmlns="http://www.w3.org/2000/svg" width="74.78" height="76.845" viewBox="0 0 74.78 76.845">
    <defs>
        <clipPath id="clip-path">
            <path id="사각형_3189" data-name="사각형 3189" style="fill:none" d="M0 0h74.78v76.845H0z"/>
        </clipPath>
        <style>
            .cls-4{fill:none;stroke:#5b5652;stroke-linecap:round;stroke-linejoin:round;stroke-width:2.5px}.cls-5{fill:#caddff}
        </style>
    </defs>
    <g id="그룹_5275" data-name="그룹 5275" style="clip-path:url(#clip-path)">
        <path id="패스_7252" data-name="패스 7252" d="M72.977 77.533a4.2 4.2 0 0 0-5.405 0l-11.724 9.376a8.079 8.079 0 0 1-5.076 1.777h-15.01a2.035 2.035 0 0 1 0-4.06H45.7a4.224 4.224 0 0 0 4.225-3.375 4.069 4.069 0 0 0-3.333-4.691 4.123 4.123 0 0 0-.676-.057h-20.3a14.933 14.933 0 0 0-9.4 3.339l-5.9 4.783H3.285a2.035 2.035 0 0 0-2.035 2.034V98.84a2.035 2.035 0 0 0 2.035 2.035h45.266a8.132 8.132 0 0 0 5.075-1.775l19.185-15.355a4.058 4.058 0 0 0 .165-6.212" transform="translate(-.406 -24.873)" style="fill:#fff0e4"/>
        <path id="패스_7253" data-name="패스 7253" class="cls-4" d="M72.977 77.533a4.2 4.2 0 0 0-5.405 0l-11.724 9.376a8.079 8.079 0 0 1-5.076 1.777h-15.01a2.035 2.035 0 0 1 0-4.06H45.7a4.224 4.224 0 0 0 4.225-3.375 4.069 4.069 0 0 0-3.333-4.691 4.123 4.123 0 0 0-.676-.057h-20.3a14.933 14.933 0 0 0-9.4 3.339l-5.9 4.783H3.285a2.035 2.035 0 0 0-2.035 2.034V98.84a2.035 2.035 0 0 0 2.035 2.035h45.266a8.132 8.132 0 0 0 5.075-1.775l19.185-15.355a4.058 4.058 0 0 0 .165-6.212z" transform="translate(-.406 -24.873)"/>
        <path id="패스_7254" data-name="패스 7254" class="cls-5" d="M57.264 19.706c5.931.03 10.748-16.918 10.748-16.918a8.907 8.907 0 0 1-4.2 1.025c-2.484 0-3.572-2.563-6.549-2.563s-4.473 2.563-6.549 2.563a10.24 10.24 0 0 1-4.794-1.025s5.28 16.887 11.344 16.918" transform="translate(-14.93 -.406)"/>
        <path id="패스_7255" data-name="패스 7255" class="cls-4" d="M57.264 19.706c5.931.03 10.748-16.918 10.748-16.918a8.907 8.907 0 0 1-4.2 1.025c-2.484 0-3.572-2.563-6.549-2.563s-4.473 2.563-6.549 2.563a10.24 10.24 0 0 1-4.794-1.025s5.28 16.887 11.344 16.918z" transform="translate(-14.93 -.406)"/>
        <path id="패스_7256" data-name="패스 7256" class="cls-5" d="M73.133 37.83c0 10.193-8.607 13.564-19.225 13.564S34.683 48.023 34.683 37.83s8.607-23.348 19.225-23.348S73.133 27.637 73.133 37.83" transform="translate(-11.276 -4.708)"/>
        <path id="패스_7257" data-name="패스 7257" class="cls-4" d="M73.133 37.83c0 10.193-8.607 13.564-19.225 13.564S34.683 48.023 34.683 37.83s8.607-23.348 19.225-23.348S73.133 27.637 73.133 37.83z" transform="translate(-11.276 -4.708)"/>
        <path id="패스_7258" data-name="패스 7258" d="M50.855 42.128v-2.081h1.57l-1.3-6.26h2.482l1.2 6.26H56.6l1.168-5.691H60.4l1.186 5.691h1.734l1.2-6.26h2.5l-1.32 6.26h1.2c.493 0 .566.346.566 1.041 0 .711-.073 1.04-.566 1.04h-1.638l-.84 3.978c-.219.967-.822 1.3-1.9 1.3a1.712 1.712 0 0 1-1.9-1.259l-.822-4.016h-1.48l-.8 4.016c-.219 1.059-1 1.259-1.88 1.259-1.095 0-1.716-.329-1.935-1.3l-.84-3.978zm4.4.182c.126.548.329 1.935.4 2.537h.036c.109-.566.365-2.023.456-2.5l.036-.219h-.967zm3.486-2.263h.675c-.109-.767-.237-1.952-.328-2.519-.074.605-.203 1.661-.348 2.519zm3.778 4.8c.091-.584.274-2.023.383-2.537l.036-.182h-.912l.036.165c.146.711.329 2.044.42 2.555z" transform="translate(-16.534 -10.985)" style="fill:#5b5652"/>
    </g>
</svg>
