<svg xmlns="http://www.w3.org/2000/svg" width="23" height="23" viewBox="0 0 23 23">
    <path data-name="Icon ionic-ios-call" d="M21 17.814a14.28 14.28 0 0 0-2.983-2c-.894-.429-1.222-.42-1.854.035-.527.381-.867.735-1.474.6a8.792 8.792 0 0 1-2.961-2.191A8.729 8.729 0 0 1 9.537 11.3c-.128-.611.226-.947.6-1.474.456-.633.469-.96.035-1.854a14 14 0 0 0-2-2.983c-.651-.651-.8-.509-1.155-.381a6.573 6.573 0 0 0-1.058.562A3.191 3.191 0 0 0 4.7 6.515c-.252.544-.544 1.558.943 4.2a23.461 23.461 0 0 0 4.125 5.5 23.552 23.552 0 0 0 5.5 4.125c2.647 1.487 3.66 1.195 4.2.943a3.137 3.137 0 0 0 1.341-1.27 6.573 6.573 0 0 0 .562-1.058c.138-.345.284-.491-.371-1.141z" transform="translate(-1.49 -1.502)" style="fill:#fff"/>
    <path data-name="사각형 3250" style="fill:none" d="M0 0h23v23H0z"/>
</svg>
