<svg xmlns="http://www.w3.org/2000/svg" width="23" height="23" viewBox="0 0 23 23">
    <path data-name="패스 7445" d="M60.973 48.959c-5.624 0-10.182 4.216-10.182 9.418 0 3.841 1.609 5.675 3.813 7.347h.01v4.508a.259.259 0 0 0 .414.208l3.861-2.868.083.036a11.045 11.045 0 0 0 2 .182c5.624 0 10.182-4.217 10.182-9.418s-4.554-9.413-10.181-9.413m-3.413 11.8a2.127 2.127 0 0 0 2.109-1.52h1.476a3.532 3.532 0 0 1-3.585 2.94 3.817 3.817 0 1 1 0-7.635 3.536 3.536 0 0 1 3.6 3h-1.476a2.1 2.1 0 0 0-2.124-1.595 2.3 2.3 0 0 0-2.4 2.417 2.364 2.364 0 0 0 2.4 2.4m9.727 1.274h-1.353v-3.055A.972.972 0 0 0 64.9 57.9c-.7 0-1.153.43-1.153 1.3v2.832h-1.358v-7.46h1.353v2.808a1.734 1.734 0 0 1 1.562-.734 1.856 1.856 0 0 1 1.415.577 2.176 2.176 0 0 1 .567 1.594z" transform="translate(-49.791 -47.959)" style="fill:#fff"/>
    <path data-name="사각형 3252" style="fill:none" d="M0 0h23v23H0z"/>
</svg>
