<svg id="icon" xmlns="http://www.w3.org/2000/svg" width="73.874" height="74.995" viewBox="0 0 73.874 74.995">
    <defs>
        <clipPath id="clip-path">
            <path id="사각형_3192" data-name="사각형 3192" style="fill:none" d="M0 0h73.874v74.995H0z"/>
        </clipPath>
        <style>
            .cls-4{fill:none}.cls-2{fill:#fff}.cls-3{clip-path:url(#clip-path)}.cls-4{stroke:#5b5652;stroke-linecap:round;stroke-linejoin:round;stroke-width:2.5px}.cls-5{fill:#e8e589}
        </style>
    </defs>
    <path id="사각형_3190" data-name="사각형 3190" class="cls-2" transform="translate(.991 6.205)" d="M0 0h55.634v67.8H0z"/>
    <g id="그룹_5278" data-name="그룹 5278">
        <g id="그룹_5277" data-name="그룹 5277" class="cls-3">
            <path id="사각형_3191" data-name="사각형 3191" class="cls-4" transform="translate(.991 6.205)" d="M0 0h55.634v67.8H0z"/>
        </g>
    </g>
    <path id="선_249" data-name="선 249" class="cls-4" transform="translate(8.414 17.965)" d="M0 0h40.375"/>
    <path id="선_250" data-name="선 250" class="cls-4" transform="translate(8.414 24.493)" d="M0 0h40.375"/>
    <path id="선_251" data-name="선 251" class="cls-4" transform="translate(8.414 31.02)" d="M0 0h40.375"/>
    <path id="선_252" data-name="선 252" class="cls-4" transform="translate(8.414 37.422)" d="M0 0h40.375"/>
    <path id="선_253" data-name="선 253" class="cls-4" transform="translate(8.414 43.95)" d="M0 0h40.375"/>
    <path id="패스_7259" data-name="패스 7259" class="cls-2" d="M10.618 81.83h4.927l4.712-6.43 3.856 6.427H29.9l1.113-2.571h4.456" transform="translate(-2.203 -15.649)"/>
    <path id="패스_7260" data-name="패스 7260" class="cls-4" d="M10.618 81.83h4.927l4.712-6.43 3.856 6.427H29.9l1.113-2.571h4.456" transform="translate(-2.203 -15.649)"/>
    <g id="그룹_5280" data-name="그룹 5280">
        <g id="그룹_5279" data-name="그룹 5279" class="cls-3">
            <path id="패스_7261" data-name="패스 7261" class="cls-5" d="M12.127 11.679a2.707 2.707 0 0 1-2.7-2.7v-5.03a2.7 2.7 0 0 1 5.4 0v5.032a2.707 2.707 0 0 1-2.7 2.7" transform="translate(-1.957 -.26)"/>
            <path id="패스_7262" data-name="패스 7262" class="cls-4" d="M12.127 11.679h0a2.707 2.707 0 0 1-2.7-2.7v-5.03a2.7 2.7 0 0 1 5.4 0v5.032a2.707 2.707 0 0 1-2.7 2.698z" transform="translate(-1.957 -.26)"/>
            <path id="패스_7263" data-name="패스 7263" class="cls-5" d="M27.805 11.679a2.707 2.707 0 0 1-2.7-2.7v-5.03a2.7 2.7 0 0 1 5.4 0v5.032a2.707 2.707 0 0 1-2.7 2.7" transform="translate(-5.21 -.26)"/>
            <path id="패스_7264" data-name="패스 7264" class="cls-4" d="M27.805 11.679h0a2.707 2.707 0 0 1-2.7-2.7v-5.03a2.7 2.7 0 0 1 5.4 0v5.032a2.707 2.707 0 0 1-2.7 2.698z" transform="translate(-5.21 -.26)"/>
            <path id="패스_7265" data-name="패스 7265" class="cls-5" d="M43.484 11.679a2.707 2.707 0 0 1-2.7-2.7v-5.03a2.7 2.7 0 0 1 5.4 0v5.032a2.707 2.707 0 0 1-2.7 2.7" transform="translate(-8.464 -.26)"/>
            <path id="패스_7266" data-name="패스 7266" class="cls-4" d="M43.484 11.679h0a2.707 2.707 0 0 1-2.7-2.7v-5.03a2.7 2.7 0 0 1 5.4 0v5.032a2.707 2.707 0 0 1-2.7 2.698z" transform="translate(-8.464 -.26)"/>
            <path id="패스_7267" data-name="패스 7267" class="cls-5" d="M59.162 11.679a2.707 2.707 0 0 1-2.7-2.7v-5.03a2.7 2.7 0 0 1 5.4 0v5.032a2.707 2.707 0 0 1-2.7 2.7" transform="translate(-11.718 -.26)"/>
            <path id="패스_7268" data-name="패스 7268" class="cls-4" d="M59.162 11.679h0a2.707 2.707 0 0 1-2.7-2.7v-5.03a2.7 2.7 0 0 1 5.4 0v5.032a2.707 2.707 0 0 1-2.7 2.698z" transform="translate(-11.718 -.26)"/>
            <path id="사각형_3193" data-name="사각형 3193" class="cls-2" transform="rotate(-44.6 94.152 -34.453)" d="M0 0h6.181v10.794H0z"/>
            <path id="사각형_3194" data-name="사각형 3194" class="cls-4" transform="rotate(-44.6 94.152 -34.453)" d="M0 0h6.181v10.794H0z"/>
            <path id="패스_7269" data-name="패스 7269" class="cls-2" d="M63.311 39.988a16.777 16.777 0 1 1-23.726-.182 16.777 16.777 0 0 1 23.726.182" transform="translate(-7.176 -7.26)"/>
            <path id="패스_7270" data-name="패스 7270" class="cls-4" d="M63.311 39.988a16.777 16.777 0 1 1-23.726-.182 16.777 16.777 0 0 1 23.726.182z" transform="translate(-7.176 -7.26)"/>
            <path id="패스_7271" data-name="패스 7271" d="M61.268 44.357a12.243 12.243 0 1 1-17.314-.133 12.243 12.243 0 0 1 17.314.133" transform="translate(-8.364 -8.448)" style="fill:#caddff"/>
            <path id="패스_7272" data-name="패스 7272" class="cls-4" d="M61.268 44.357a12.243 12.243 0 1 1-17.314-.133 12.243 12.243 0 0 1 17.314.133z" transform="translate(-8.364 -8.448)"/>
            <path id="패스_7273" data-name="패스 7273" d="M86.031 87.095a5.541 5.541 0 0 1-7.837-.06L71.76 80.5l8.116-7.991 6.219 6.314a5.848 5.848 0 0 1-.063 8.27" transform="translate(-14.892 -15.048)" style="fill:#5b5652"/>
            <path id="패스_7274" data-name="패스 7274" class="cls-4" d="M86.031 87.095h0a5.541 5.541 0 0 1-7.837-.06L71.76 80.5l8.116-7.991 6.219 6.314a5.848 5.848 0 0 1-.064 8.272z" transform="translate(-14.892 -15.048)"/>
        </g>
    </g>
</svg>
