<svg xmlns="http://www.w3.org/2000/svg" width="373.226" height="338.585" viewBox="0 0 373.226 338.585">
    <defs>
        <clipPath id="clip-path">
            <path id="사각형_2990" data-name="사각형 2990" class="cls-1" d="M0 0h312.639v288.682H0z"/>
        </clipPath>
        <clipPath id="clip-path-2">
            <path id="사각형_2989" data-name="사각형 2989" class="cls-1" d="M0 0h312.64v288.682H0z"/>
        </clipPath>
        <clipPath id="clip-path-3">
            <path id="사각형_2986" data-name="사각형 2986" class="cls-1" d="M0 0h45.838v25.36H0z"/>
        </clipPath>
        <clipPath id="clip-path-4">
            <path id="사각형_2987" data-name="사각형 2987" class="cls-1" d="M0 0h30.946v15.563H0z"/>
        </clipPath>
        <style>
            .cls-1{fill:none}.cls-5{fill:#fff0e4}.cls-6{fill:#5b5652}.cls-7{fill:#d1d1d1}.cls-8{fill:#fff}.cls-9{fill:#e8e589}.cls-12{fill:#9fcef5}.cls-15{opacity:.65}.cls-16{clip-path:url(#clip-path-4)}.cls-17{fill:#fdc89d}
        </style>
    </defs>
    <g id="image" transform="translate(-186 -674.964)">
        <circle id="타원_294" data-name="타원 294" cx="144" cy="144" r="144" transform="translate(186 707)" style="fill:#47d99b"/>
        <g id="그룹_5204" data-name="그룹 5204" transform="rotate(10 -3731.769 1773.874)">
            <g id="그룹_5169" data-name="그룹 5169" style="clip-path:url(#clip-path)">
                <g id="그룹_5168" data-name="그룹 5168">
                    <g id="그룹_5167" data-name="그룹 5167" style="clip-path:url(#clip-path-2)">
                        <path id="패스_7077" data-name="패스 7077" class="cls-5" d="M91.017 35.848 83.674 16.8a8.164 8.164 0 0 0-.42-1.089l-.935-2.425Q81.281 10.6 80.008 8l-1.367-2.786A9.307 9.307 0 0 0 66.365.867c-8.478 3.936-21 9.854-25.269 12.419a12.454 12.454 0 0 0-5.307 14.992l.375.9C25.145 38.152 15.17 40.457 7.777 43.089L0 44.967l5.253 27.227c12.731-.71 24.966-6.254 41.55-17.747 2.613 4.761 8.18 8.079 13.278 6.342 9.894-3.37 13.278-5.46 24.765-10.724l2.747-1.352c5.014-2.393 5.824-7.855 3.424-12.866" transform="translate(218.546 116.3)"/>
                        <path id="패스_7078" data-name="패스 7078" class="cls-6" d="M7.029 75.733a1.777 1.777 0 0 1-1.743-1.44L.032 47.065A1.777 1.777 0 0 1 1.36 45l7.687-1.856c1.149-.408 2.359-.808 3.625-1.227 6.48-2.144 14.485-4.792 23.127-11.544a14.249 14.249 0 0 1 6.159-16.849c4.225-2.54 16.164-8.2 25.436-12.507a11.146 11.146 0 0 1 14.62 5.176l1.367 2.788a68.196 68.196 0 0 1 2.373 5.431l.912 2.365a9.922 9.922 0 0 1 .463 1.2l7.3 18.928a12.636 12.636 0 0 1 .853 9.6 9.72 9.72 0 0 1-5.144 5.577l-2.728 1.342c-3.126 1.433-5.621 2.616-7.823 3.659a139.007 139.007 0 0 1-17.153 7.152c-5.586 1.9-11.219-1.237-14.356-5.521C31.383 70.093 19.429 75.045 7.129 75.73h-.1M3.843 48.058l4.633 24.014c11.437-1 22.915-6.111 39.093-17.322a1.776 1.776 0 0 1 2.569.606c2.087 3.8 6.707 7.031 11.149 5.514a134.379 134.379 0 0 0 16.777-7c2.211-1.048 4.717-2.236 7.819-3.657l2.7-1.33a6.174 6.174 0 0 0 3.344-3.562 9.168 9.168 0 0 0-.738-6.943 2.054 2.054 0 0 1-.055-.128l-7.34-19.044a1.428 1.428 0 0 1-.038-.11 6.374 6.374 0 0 0-.326-.853 1.776 1.776 0 0 1-.055-.126l-.935-2.426a64.252 64.252 0 0 0-2.249-5.145l-1.368-2.788a7.573 7.573 0 0 0-9.933-3.517c-13 6.032-21.91 10.411-25.1 12.33a10.691 10.691 0 0 0-4.57 12.819l.361.864a1.776 1.776 0 0 1-.518 2.061C29.524 40.086 20.8 42.973 13.788 45.292c-1.272.421-2.487.823-3.638 1.232a1.749 1.749 0 0 1-.179.054z" transform="translate(216.768 114.538)"/>
                        <path id="패스_7079" data-name="패스 7079" class="cls-5" d="m0 11.664 4.555-2.035C8.036 8.2 8.767 3.395 7.14 0" transform="translate(294.66 132.015)"/>
                        <path id="패스_7080" data-name="패스 7080" class="cls-6" d="M1.778 15.218a1.777 1.777 0 0 1-.725-3.4l4.554-2.034a3.618 3.618 0 0 0 1.981-2.126 6.78 6.78 0 0 0-.273-5.113 1.777 1.777 0 1 1 3.2-1.534 10.348 10.348 0 0 1 .385 7.922A7.013 7.013 0 0 1 7 13.05l-4.5 2.013a1.77 1.77 0 0 1-.724.155" transform="translate(292.883 130.237)"/>
                        <path id="패스_7081" data-name="패스 7081" class="cls-5" d="M0 .232c1.486 4.012 5.826 5.416 9.877 4.042L19.445 0" transform="translate(275.215 143.679)"/>
                        <path id="패스_7082" data-name="패스 7082" class="cls-6" d="M8.657 8.336a8.866 8.866 0 0 1-8.546-5.71 1.777 1.777 0 0 1 3.332-1.233c1.192 3.22 4.7 3.943 7.566 3L20.5.155A1.777 1.777 0 0 1 21.946 3.4l-9.567 4.273q-.075.034-.154.061a11.11 11.11 0 0 1-3.568.6" transform="translate(273.438 141.902)"/>
                        <path id="패스_7083" data-name="패스 7083" class="cls-5" d="M10.032 34.785.761 13.85A9.944 9.944 0 0 1 5.975.928l.24-.1a9.813 9.813 0 0 1 12.594 4.39L24.23 17.6" transform="translate(244.627 115.256)"/>
                        <path id="패스_7084" data-name="패스 7084" class="cls-6" d="M11.791 38.328a1.778 1.778 0 0 1-1.625-1.057L.894 16.335a11.785 11.785 0 0 1 6.128-15.27l.237-.1a11.64 11.64 0 0 1 14.877 5.184c.021.04.041.081.059.122l5.421 12.385a1.776 1.776 0 0 1-3.255 1.425l-5.393-12.32A8.069 8.069 0 0 0 8.685 4.216l-.212.092a8.215 8.215 0 0 0-4.314 10.627l9.255 20.9a1.778 1.778 0 0 1-1.624 2.5" transform="translate(242.869 113.491)"/>
                        <path id="패스_7085" data-name="패스 7085" class="cls-6" d="M19.139 44.426a9.458 9.458 0 0 1-8.924-6.1L.627 16.39l-.038-.09a9.514 9.514 0 0 1 5.53-12.172L15.656.139a1.777 1.777 0 1 1 1.371 3.278L7.435 7.428A5.966 5.966 0 0 0 3.9 15.016l9.59 21.933c.013.031.026.062.037.094a6.044 6.044 0 0 0 7.719 3.477 1.777 1.777 0 0 1 1.141 3.365 10.113 10.113 0 0 1-3.249.541" transform="translate(272.96 128.233)"/>
                        <path id="패스_7086" data-name="패스 7086" class="cls-6" d="M9.253 19.218a9.739 9.739 0 0 1-9.142-6.255 1.777 1.777 0 0 1 3.332-1.235 6.205 6.205 0 0 0 7.7 3.641l13.21-6.5a4.72 4.72 0 0 0 2.292-6.33 1.777 1.777 0 1 1 3.2-1.535 8.272 8.272 0 0 1-3.961 11.069L12.6 18.613a1.838 1.838 0 0 1-.214.088 9.747 9.747 0 0 1-3.133.517" transform="translate(278.623 143.446)"/>
                        <path id="패스_7087" data-name="패스 7087" class="cls-6" d="M1.778 21.454a1.777 1.777 0 0 1-.684-3.417c3.133-1.3 5.139-3.2 5.964-5.626C8.61 7.835 5.709 2.714 5.68 2.663A1.777 1.777 0 0 1 8.759.89c.153.266 3.725 6.582 1.663 12.661-1.166 3.44-3.845 6.049-7.962 7.766a1.772 1.772 0 0 1-.682.137" transform="translate(268.269 142.779)"/>
                        <path id="패스_7088" data-name="패스 7088" class="cls-7" d="M76.572.086a23.469 23.469 0 0 1 25.377 21.393l2.6 30.555a23.47 23.47 0 0 1-21.39 25.377L0 84.5" transform="translate(108.288 171.006)"/>
                        <path id="패스_7089" data-name="패스 7089" class="cls-6" d="M1.775 88.049a1.777 1.777 0 0 1-.149-3.549l83.16-7.084a21.692 21.692 0 0 0 19.773-23.456l-2.6-30.555A21.693 21.693 0 0 0 78.5 3.634a1.777 1.777 0 1 1-.3-3.54 25.247 25.247 0 0 1 27.3 23.013l2.6 30.555a25.246 25.246 0 0 1-23.012 27.3L1.927 88.043c-.051 0-.1.006-.153.006" transform="translate(106.511 169.228)"/>
                        <path id="패스_7090" data-name="패스 7090" class="cls-8" d="M.444 50.291c19.124 2.352 38.9-3.934 69.786-19.366L54.32 0C36.047 11.78 21.192 12.371 10.226 14.185L0 14.787" transform="translate(197.331 144.195)"/>
                        <path id="패스_7091" data-name="패스 7091" class="cls-6" d="M10.17 54.334A66.7 66.7 0 0 1 2 53.831a1.777 1.777 0 1 1 .438-3.531C19.9 52.454 38.216 47.461 69.6 31.914l-14.2-27.6c-15.258 9.4-27.957 11.208-38.231 12.671-1.717.244-3.339.475-4.88.73a1.688 1.688 0 0 1-.185.021l-10.226.6A1.757 1.757 0 0 1 0 16.669a1.776 1.776 0 0 1 1.669-1.878l10.133-.6c1.552-.255 3.163-.485 4.866-.727C26.971 12 39.79 10.176 55.134.284a1.776 1.776 0 0 1 2.542.68l15.91 30.926a1.776 1.776 0 0 1-.785 2.4C44.537 48.413 26.413 54.334 10.17 54.334" transform="translate(195.554 142.418)"/>
                        <path id="패스_7092" data-name="패스 7092" class="cls-5" d="M16.926 6.37 11.2 14.34 1.06 9.619 0 0" transform="translate(26.089 244.993)"/>
                        <path id="패스_7093" data-name="패스 7093" class="cls-5" d="M.922 0s-4.852 9.85 7.7 13.328" transform="translate(25.166 244.993)"/>
                        <path id="패스_7094" data-name="패스 7094" class="cls-6" d="M10.4 16.883a1.788 1.788 0 0 1-.475-.065c-4.611-1.277-7.665-3.525-9.08-6.682-2-4.462.165-8.954.259-9.143a1.776 1.776 0 0 1 3.19 1.563 8.1 8.1 0 0 0-.2 6.153c.968 2.132 3.246 3.708 6.772 4.685a1.777 1.777 0 0 1-.474 3.489" transform="translate(23.392 243.215)"/>
                        <path id="패스_7095" data-name="패스 7095" class="cls-8" d="M45.977 67.3 0 70.64c1.315-17.922 6.918-36.3 19.97-49.212C27.069 14.4 35.9 10.416 45.311 7.5A223.215 223.215 0 0 1 77.14 0" transform="translate(52.489 162.821)"/>
                        <path id="패스_7096" data-name="패스 7096" class="cls-6" d="M1.777 74.194A1.777 1.777 0 0 1 0 72.287C1.09 57.5 5.525 36.758 20.5 21.942c6.4-6.335 14.44-10.763 26.066-14.358A223.048 223.048 0 0 1 78.645.021a1.777 1.777 0 1 1 .541 3.512 219.632 219.632 0 0 0-31.574 7.446C36.561 14.4 28.969 18.556 23 24.468 9.479 37.844 5.01 56.5 3.718 70.495l43.906-3.186a1.776 1.776 0 0 1 .257 3.543L1.9 74.189h-.128" transform="translate(50.712 161.044)"/>
                        <path id="패스_7097" data-name="패스 7097" class="cls-7" d="m19.282 0-.711 2.132s-4.534 16.851-7.25 33.762l-.757 5.392-6.807-2.959a6.241 6.241 0 0 1-3.72-6.4A120.218 120.218 0 0 1 2.89 15.8a89.787 89.787 0 0 1 2.63-8.84" transform="translate(76.419 171)"/>
                        <path id="패스_7098" data-name="패스 7098" class="cls-6" d="M12.343 44.84a1.778 1.778 0 0 1-.708-.147l-6.808-2.96a7.977 7.977 0 0 1-4.778-8.221 122.192 122.192 0 0 1 2.892-16.354l.332-1.388C3.941 12.963 4.7 9.782 5.6 7.228a1.777 1.777 0 0 1 3.35 1.185c-.84 2.376-1.575 5.46-2.223 8.18l-.335 1.4A118.955 118.955 0 0 0 3.581 33.9a4.44 4.44 0 0 0 2.661 4.576l4.666 2.024.432-3.078c2.7-16.842 7.248-33.807 7.294-33.976.009-.033.019-.067.03-.1l.711-2.132a1.777 1.777 0 0 1 3.371 1.124l-.694 2.082c-.273 1.022-4.6 17.359-7.2 33.533L14.1 43.31a1.776 1.776 0 0 1-1.759 1.529" transform="translate(74.642 169.223)"/>
                        <path id="패스_7099" data-name="패스 7099" class="cls-9" d="M74.128 88.659 0 48.681l24.339-45.13L33.971 0l49.788 85.108z" transform="translate(1.777 183.2)"/>
                        <path id="패스_7100" data-name="패스 7100" class="cls-6" d="M75.9 92.213a1.772 1.772 0 0 1-.839-.213L.934 52.021a1.776 1.776 0 0 1-.72-2.407l24.338-45.13a1.776 1.776 0 0 1 .949-.824L35.134.11a1.778 1.778 0 0 1 2.148.77L87.07 85.988a1.777 1.777 0 0 1-.919 2.564L76.519 92.1a1.774 1.774 0 0 1-.615.11M4.184 49.737l71.858 38.755 6.89-2.54L34.966 3.958l-7.605 2.8z" transform="translate(0 181.423)"/>
                        <path id="사각형_2985" data-name="사각형 2985" class="cls-9" transform="rotate(-61.64 197.062 104.6)" d="M0 0h51.275v84.221H0z"/>
                        <path id="패스_7101" data-name="패스 7101" class="cls-6" d="M75.9 88.663a1.777 1.777 0 0 1-.843-.213L.933 48.471a1.775 1.775 0 0 1-.72-2.407L24.553.934a1.775 1.775 0 0 1 2.407-.72l74.127 39.978a1.775 1.775 0 0 1 .72 2.407l-24.34 45.13a1.776 1.776 0 0 1-1.054.859 1.8 1.8 0 0 1-.509.074M4.183 46.187l71 38.292 22.653-42-71-38.291z" transform="translate(9.632 181.423)"/>
                        <path id="패스_7102" data-name="패스 7102" d="M19.735 17.167 0 6.523l2.553-4.734A3.4 3.4 0 0 1 7.166.409L20.908 7.82a3.4 3.4 0 0 1 1.381 4.613z" transform="translate(38.073 177.93)" style="fill:#66bd82"/>
                        <path id="패스_7103" data-name="패스 7103" class="cls-6" d="M21.511 20.721a1.765 1.765 0 0 1-.842-.213L.934 9.865a1.776 1.776 0 0 1-.72-2.407l2.553-4.734A5.18 5.18 0 0 1 9.786.623l13.741 7.411a5.187 5.187 0 0 1 2.1 7.02l-2.553 4.734a1.776 1.776 0 0 1-1.565.934M4.184 7.581l16.608 8.956 1.71-3.17a1.63 1.63 0 0 0-.661-2.206L8.1 3.75a1.629 1.629 0 0 0-2.206.66z" transform="translate(36.296 176.152)"/>
                        <path id="패스_7104" data-name="패스 7104" d="M19.735 17.167 0 6.523l2.553-4.734A3.4 3.4 0 0 1 7.166.409L20.908 7.82a3.4 3.4 0 0 1 1.381 4.613z" transform="translate(62.027 190.849)" style="fill:#fd8b62"/>
                        <path id="패스_7105" data-name="패스 7105" class="cls-6" d="M21.511 20.719a1.775 1.775 0 0 1-.843-.213L.934 9.862a1.776 1.776 0 0 1-.72-2.407l2.552-4.734A5.187 5.187 0 0 1 9.786.62l13.741 7.412a5.18 5.18 0 0 1 2.1 7.02l-2.553 4.734a1.778 1.778 0 0 1-1.564.933M4.183 7.578l16.608 8.957 1.71-3.17a1.628 1.628 0 0 0-.66-2.206L8.1 3.747a1.628 1.628 0 0 0-2.206.66z" transform="translate(60.251 189.074)"/>
                        <path id="패스_7106" data-name="패스 7106" class="cls-8" d="M.918 55.644c-1.208 14.51-2.2 40.747 3.745 52.481l103.807-5.306-3.946-53.958S107.64 17.35 103.407 0" transform="translate(86.823 151.25)"/>
                        <path id="패스_7107" data-name="패스 7107" class="cls-6" d="M6.428 111.68a1.776 1.776 0 0 1-1.584-.973C-1.654 97.891-.069 69.07.914 57.274a1.777 1.777 0 1 1 3.541.295c-.931 11.177-2.441 37.989 3.072 50.5l100.805-5.153-3.813-52.147a1.768 1.768 0 0 1 0-.3c.031-.312 3.037-31.413-1.075-48.266a1.777 1.777 0 0 1 3.452-.842c4.149 17.005 1.432 46.622 1.174 49.3l3.934 53.807a1.776 1.776 0 0 1-1.681 1.9L6.52 111.677h-.091" transform="translate(85.057 149.472)"/>
                        <path id="선_211" data-name="선 211" class="cls-8" transform="translate(190.23 190.127)" d="M1.117 9.984 0 0"/>
                        <path id="패스_7108" data-name="패스 7108" class="cls-6" d="M2.892 13.537a1.776 1.776 0 0 1-1.764-1.579L.011 1.974a1.776 1.776 0 0 1 3.531-.4l1.117 9.984a1.777 1.777 0 0 1-1.767 1.974" transform="translate(188.453 188.351)"/>
                        <path id="패스_7109" data-name="패스 7109" class="cls-12" d="M0 .962s-.019 39.78 50.125 34.458c0 0-15.543-14.163-13.414-23.176 0 0-20.952-1.5-28.933-12.244" transform="translate(133.936 199.524)"/>
                        <path id="패스_7110" data-name="패스 7110" class="cls-6" d="M43.023 39.465c-13.056 0-23.44-3.4-30.949-10.16C.13 18.556 0 3.379 0 2.738A1.777 1.777 0 0 1 1.776.962a1.777 1.777 0 0 1 1.777 1.777c0 .242.2 14.326 10.931 23.955 7.727 6.933 18.956 9.976 33.429 9.059a72.878 72.878 0 0 1-4.921-5.676c-4.383-5.652-6.555-10.506-6.48-14.469-5.453-.649-21.358-3.308-28.384-12.772A1.777 1.777 0 0 1 10.98.718c7.4 9.959 27.433 11.517 27.635 11.531a1.777 1.777 0 0 1 1.6 2.18c-1.545 6.55 8.776 17.708 12.885 21.455a1.777 1.777 0 0 1-1.01 3.08 86 86 0 0 1-9.066.5M3.553 2.74z" transform="translate(132.16 197.747)"/>
                        <path id="패스_7111" data-name="패스 7111" class="cls-12" d="M.034 8.68s-.867 16.035 6.158 17.694l7.778-.962 5.985-13.548L14.616.507S5.422-3.051.034 8.68" transform="translate(127.744 174.113)"/>
                        <path id="패스_7112" data-name="패스 7112" class="cls-6" d="M7.97 29.965a1.78 1.78 0 0 1-.408-.048C3.878 29.047 1.5 25.372.5 18.995a45.906 45.906 0 0 1-.463-8.6A1.759 1.759 0 0 1 .2 9.753C5.01-.728 13.317-.775 17.035.665a1.775 1.775 0 0 1 .967.9l5.339 11.357a1.779 1.779 0 0 1 .018 1.474l-5.986 13.548a1.777 1.777 0 0 1-1.407 1.045l-7.777.962a1.794 1.794 0 0 1-.218.014M3.57 10.929c-.153 3.97.371 14.053 4.535 15.453l6.424-.795L19.781 13.7l-4.656-9.9c-1.906-.442-7.681-.981-11.555 7.129" transform="translate(125.966 172.298)"/>
                        <path id="패스_7113" data-name="패스 7113" class="cls-8" d="m0 0 9.458 20.27a7 7 0 0 0 1.363 2.013c1.893 1.89 4.267 2.109 7.742-.406l11.924-8.555 12.384 9.336a5.221 5.221 0 0 0 7.63-.923L63.379.806" transform="translate(106.662 173.661)"/>
                        <path id="패스_7114" data-name="패스 7114" class="cls-6" d="M48.142 27.451a7.593 7.593 0 0 1-4.563-1.6L32.238 17.3l-10.862 7.8c-3.942 2.854-7.32 2.928-10.033.219A8.78 8.78 0 0 1 9.625 22.8L.167 2.528a1.777 1.777 0 0 1 3.22-1.5L12.845 21.3a5.271 5.271 0 0 0 1.009 1.5c.942.94 2.217 1.749 5.445-.588l11.93-8.559a1.773 1.773 0 0 1 2.1.025l12.385 9.336a3.9 3.9 0 0 0 2.878.849 3.4 3.4 0 0 0 2.214-1.359L63.643 1.652a1.776 1.776 0 1 1 3.026 1.862L53.79 24.443a1.476 1.476 0 0 1-.09.133 6.982 6.982 0 0 1-4.6 2.808 6.809 6.809 0 0 1-.955.067" transform="translate(104.885 171.884)"/>
                        <path id="선_212" data-name="선 212" class="cls-8" transform="translate(51.005 249.685)" d="M34.532 18.623 0 0"/>
                        <path id="패스_7115" data-name="패스 7115" class="cls-6" d="M36.307 22.178a1.763 1.763 0 0 1-.842-.213L.934 3.341A1.776 1.776 0 1 1 2.62.214l34.531 18.623a1.777 1.777 0 0 1-.845 3.34" transform="translate(49.228 247.907)"/>
                        <path id="패스_7116" data-name="패스 7116" class="cls-5" d="M52.183 23.15c1.052-3.966-4.4-10.3-8.219-12.174l-13.6-5.747a8.715 8.715 0 0 0-.891-.375L19.826.772A9.762 9.762 0 0 0 7.265 5.454L.568 20.138a8.512 8.512 0 0 0 4.9 11l10.572 5.194 14 5.355 6.912 2.644 6.258-10.824s6.189-5.535 3.3-6.067z" transform="translate(32.438 238.843)"/>
                        <path id="패스_7117" data-name="패스 7117" class="cls-6" d="M38.024 42.775a1.773 1.773 0 0 1-.74-.163L6.238 28.337A10.289 10.289 0 0 1 .823 14.863L7.344 1.02a1.777 1.777 0 0 1 3.215 1.514l-6.493 13.78a6.739 6.739 0 0 0 3.606 8.772l31.1 14.3a1.777 1.777 0 0 1-.743 3.391" transform="translate(30.752 242.52)"/>
                        <path id="패스_7118" data-name="패스 7118" class="cls-6" d="M12.072 9.9a12.212 12.212 0 0 1-4.659-.922L1.1 6.375A1.777 1.777 0 1 1 2.454 3.09l6.313 2.6a8.875 8.875 0 0 0 11.45-4.624 1.777 1.777 0 1 1 3.256 1.423A12.459 12.459 0 0 1 12.072 9.9" transform="translate(67.001 278.785)"/>
                        <path id="패스_7119" data-name="패스 7119" class="cls-6" d="M1.775 17.407a1.778 1.778 0 0 1-1.606-2.532l4.184-8.913.036-.073a10.662 10.662 0 0 1 14.146-4.814 1.776 1.776 0 0 1-1.568 3.188 7.125 7.125 0 0 0-9.416 3.248l-4.166 8.874a1.776 1.776 0 0 1-1.609 1.022" transform="translate(59.107 247.502)"/>
                        <path id="패스_7120" data-name="패스 7120" class="cls-6" d="M36.573 38.95a1.777 1.777 0 0 1-1.273-3.012l11.52-11.9c.873-2.7-4.761-7.533-9.082-9.672L13.645 4.184A7.993 7.993 0 0 0 3.371 8.013 1.776 1.776 0 1 1 .183 6.445 11.546 11.546 0 0 1 15.029.911l24.137 10.2c.031.013.062.027.092.042a30.242 30.242 0 0 1 7.83 5.669c3.953 4.09 3.726 7.14 2.84 8.977a1.791 1.791 0 0 1-.324.464L37.849 38.41a1.772 1.772 0 0 1-1.276.54" transform="translate(37.927 237.068)"/>
                        <path id="패스_7121" data-name="패스 7121" class="cls-6" d="M1.776 19.145A1.778 1.778 0 0 1 .143 16.67L4.7 6c.019-.044.04-.088.062-.13a10.943 10.943 0 0 1 14.38-4.795 1.777 1.777 0 0 1-1.568 3.188 7.364 7.364 0 0 0-9.632 3.2l-4.53 10.6a1.777 1.777 0 0 1-1.634 1.079" transform="translate(46.122 242.103)"/>
                        <path id="패스_7122" data-name="패스 7122" class="cls-6" d="M1.777 24.982a1.777 1.777 0 0 1-1.25-3.039c6.4-6.335 14.44-10.763 26.066-14.358A223.044 223.044 0 0 1 58.675.021a1.776 1.776 0 1 1 .541 3.511 219.643 219.643 0 0 0-31.574 7.446C16.592 14.4 9 18.556 3.027 24.468a1.771 1.771 0 0 1-1.25.514" transform="translate(70.682 161.044)"/>
                        <path id="패스_7123" data-name="패스 7123" class="cls-7" d="M0 5.532s3.724 19.3 5.312 36.354l1.242 11.82 5.223-3.95a12.822 12.822 0 0 0 3.8-4.477 12.825 12.825 0 0 0 1.258-6.579C16.2 23.9 10.61 0 10.61 0z" transform="translate(186.036 158.226)"/>
                        <path id="패스_7124" data-name="패스 7124" class="cls-6" d="M8.33 57.259a1.776 1.776 0 0 1-1.767-1.591l-1.241-11.82C3.759 27.059.07 7.837.032 7.645a1.777 1.777 0 0 1 .924-1.912L11.566.2a1.776 1.776 0 0 1 2.551 1.171c.23.982 5.636 24.233 6.271 39.033a14.642 14.642 0 0 1-1.447 7.441 14.673 14.673 0 0 1-4.316 5.1L9.4 56.9a1.776 1.776 0 0 1-1.072.359M3.766 8.275c.858 4.636 3.751 20.813 5.091 35.225l.911 8.669 2.714-2.052a11.11 11.11 0 0 0 3.276-3.849 11.124 11.124 0 0 0 1.079-5.709c-.508-11.847-4.292-29.872-5.676-36.138z" transform="translate(184.259 156.449)"/>
                        <path id="패스_7125" data-name="패스 7125" class="cls-8" d="M4.376 0C3.011 6.007 1.452 13.484.249 20.974L0 24.76" transform="translate(87.492 185.921)"/>
                        <path id="패스_7126" data-name="패스 7126" class="cls-6" d="M1.778 28.315h-.119A1.776 1.776 0 0 1 0 26.422l.249-3.787c0-.055.01-.11.018-.165C1.3 16.079 2.693 8.985 4.42 1.384a1.776 1.776 0 1 1 3.464.787c-1.7 7.494-3.078 14.485-4.091 20.78l-.244 3.7a1.776 1.776 0 0 1-1.77 1.66" transform="translate(85.716 184.143)"/>
                        <path id="패스_7127" data-name="패스 7127" class="cls-6" d="M10.023 10.383a1.775 1.775 0 0 1-1.133-.409L.643 3.145A1.777 1.777 0 1 1 2.91.408l7.16 5.93L17.4.754a1.777 1.777 0 0 1 2.153 2.827L11.1 10.02a1.778 1.778 0 0 1-1.076.363" transform="translate(126.805 178.693)"/>
                        <path id="패스_7128" data-name="패스 7128" class="cls-5" d="m19.544 34.115-5.228-.771A16.761 16.761 0 1 1 19.21.182l5.228.771" transform="translate(46.362 86.026)"/>
                        <path id="패스_7129" data-name="패스 7129" class="cls-6" d="M21.324 37.671a1.762 1.762 0 0 1-.262-.019l-5.228-.772A18.537 18.537 0 0 1 7.488 3.661 18.406 18.406 0 0 1 21.248.2l5.227.771a1.776 1.776 0 1 1-.519 3.515l-5.228-.771A14.984 14.984 0 0 0 6.512 27.477a14.885 14.885 0 0 0 9.841 5.888l5.227.772a1.777 1.777 0 0 1-.257 3.534" transform="translate(44.584 84.247)"/>
                        <path id="패스_7130" data-name="패스 7130" class="cls-5" d="m0 48.047 5.76.85a17.319 17.319 0 0 0 19.662-14.605 17.32 17.32 0 0 0-14.605-19.663l-3.526-.52L9.373 0" transform="translate(211.953 90.019)"/>
                        <path id="패스_7131" data-name="패스 7131" class="cls-6" d="M10.078 52.638a19.2 19.2 0 0 1-2.8-.206l-5.76-.85a1.777 1.777 0 1 1 .519-3.515l5.76.85a15.543 15.543 0 0 0 4.538-30.753l-3.526-.52a1.777 1.777 0 0 1-1.5-2.017L9.392 1.518a1.777 1.777 0 0 1 3.516.519l-1.824 12.351 1.769.261a19.1 19.1 0 0 1-2.776 37.989" transform="translate(210.176 88.242)"/>
                        <path id="선_213" data-name="선 213" class="cls-8" transform="translate(214.655 120.797)" d="m0 0 8.023 1.184"/>
                        <path id="패스_7132" data-name="패스 7132" class="cls-6" d="M9.8 4.738a1.8 1.8 0 0 1-.262-.019L1.517 3.535A1.777 1.777 0 1 1 2.036.02l8.023 1.18A1.777 1.777 0 0 1 9.8 4.738" transform="translate(212.878 119.02)"/>
                        <path id="패스_7133" data-name="패스 7133" class="cls-5" d="m154.513 61.515-6.535 44.285A68.443 68.443 0 0 1 70.5 163.346l-12.224-1.8A68.443 68.443 0 0 1 .732 84.068l7.293-50.945L85.835 0" transform="translate(65.324 23.121)"/>
                        <path id="패스_7134" data-name="패스 7134" class="cls-6" d="M82.294 167.636a70.28 70.28 0 0 1-10.267-.756l-12.224-1.8A70.1 70.1 0 0 1 .756 85.585l7.292-50.938a1.776 1.776 0 0 1 1.063-1.383L86.921.142a1.777 1.777 0 0 1 1.392 3.269L11.424 36.142 4.272 86.1a66.543 66.543 0 0 0 56.049 75.465l12.224 1.8A66.542 66.542 0 0 0 148 107.315l6.535-44.283a1.777 1.777 0 0 1 3.516.519l-6.535 44.283a70.129 70.129 0 0 1-69.224 59.8" transform="translate(63.542 21.345)"/>
                        <path id="패스_7135" data-name="패스 7135" class="cls-6" d="M133.822 78.062c-14.056-11.939-22.39-14.17-33.7-32 0 0-1.03 16.683-57.917 21.567-14.139 1.212-28.966 10.029-31.965 15.442 0 0-17.595-18.652-6.657-39.807A32.918 32.918 0 0 1 18.92 28.749c6.494-3.055 16.942-8.177 26.476-13.765 22.177-13 47.244-25.952 71.227.033 0 0 36.146-13.468 50.275 26.824 0 0 6.176 17.553 7.534 28.893 1.514 12.634-6.206 28.776-19.464 38.254a1.272 1.272 0 0 1-2.138-.641c-2.316-8.762-4.31-14.837-11.246-23.148a61.942 61.942 0 0 0-7.763-7.137" transform="translate(59.114 1.777)"/>
                        <path id="패스_7136" data-name="패스 7136" class="cls-6" d="M155.744 112.887a2.955 2.955 0 0 1-1-.174 3.025 3.025 0 0 1-1.88-2.135c-2.265-8.57-4.128-14.359-10.892-22.463a45.58 45.58 0 0 0-6-5.619c-.519-.432-1.039-.865-1.553-1.3-4.039-3.43-7.539-6.006-10.925-8.5-7.7-5.664-13.9-10.229-21.262-21.072a22.329 22.329 0 0 1-7.018 6.654c-10.026 6.506-27.22 10.844-51.106 12.9-13.487 1.154-27.842 9.611-30.568 14.531l-1.178 2.126-1.668-1.768c-.185-.2-18.327-19.822-6.943-41.841A34.856 34.856 0 0 1 19.91 28.918c6.879-3.236 17.031-8.238 26.335-13.69C57.5 8.63 69.522 2.051 81.843.4c13.928-1.87 26.057 2.826 37.046 14.35 3.877-1.191 16.863-4.373 29.656 1.626 9.871 4.628 17.2 13.6 21.778 26.655.254.722 6.255 17.866 7.621 29.269 1.629 13.6-6.864 30.38-20.195 39.91a3.458 3.458 0 0 1-2 .678m-19.025-34.4c.506.429 1.017.854 1.527 1.279a48.917 48.917 0 0 1 6.45 6.073c7.033 8.427 9.17 14.722 11.421 23.162 12.107-8.9 19.763-24.053 18.3-36.276-1.32-11.019-7.384-28.341-7.445-28.515-4.252-12.126-10.959-20.407-19.934-24.615-13.609-6.381-27.9-1.187-28.046-1.134l-1.117.416-.815-.878C106.708 6.777 95.342 2.17 82.316 3.92c-11.667 1.566-23.329 7.96-34.275 14.374-9.417 5.52-19.673 10.573-26.618 13.84A31.282 31.282 0 0 0 6.907 45.857c-8.523 16.485 1.139 31.253 4.969 36.114C17.156 75.877 31.1 68.724 43.8 67.634c53.88-4.626 56.281-19.8 56.3-19.955l.338-5.472 2.932 4.678c7.841 12.366 14.189 17.037 22.227 22.95 3.274 2.409 6.985 5.139 11.118 8.65" transform="translate(57.367)"/>
                        <path id="패스_7137" data-name="패스 7137" class="cls-6" d="M8.567 4.936A4.306 4.306 0 1 1 4.936.047a4.306 4.306 0 0 1 3.631 4.889" transform="translate(117.556 102.026)"/>
                        <path id="패스_7138" data-name="패스 7138" class="cls-6" d="M5.029 10.037A5.024 5.024 0 0 1 .054 4.286a5.017 5.017 0 0 1 8.991-2.259 5.018 5.018 0 0 1-1.036 7.02 4.976 4.976 0 0 1-2.981.99m-.017-8.615a3.6 3.6 0 0 0-.518 7.154A3.6 3.6 0 0 0 7.9 2.875a3.607 3.607 0 0 0-2.889-1.453" transform="translate(116.845 101.315)"/>
                        <path id="패스_7139" data-name="패스 7139" class="cls-6" d="M8.567 4.936A4.307 4.307 0 1 1 4.936.047a4.306 4.306 0 0 1 3.631 4.889" transform="translate(153.27 107.347)"/>
                        <path id="패스_7140" data-name="패스 7140" class="cls-6" d="M5.022 10.035a5.076 5.076 0 0 1-.737-.054 5.015 5.015 0 1 1 .737.054m-.005-8.614a3.6 3.6 0 1 0 .527.039 3.6 3.6 0 0 0-.527-.039" transform="translate(152.559 106.636)"/>
                        <path id="패스_7141" data-name="패스 7141" class="cls-6" d="m47.164 10.293-1.748 13.424A22.83 22.83 0 1 1 .245 17.051L1.993 3.627A4.246 4.246 0 0 1 6.813.046l36.77 5.426a4.246 4.246 0 0 1 3.581 4.82" transform="translate(112.186 122.478)"/>
                        <path id="패스_7142" data-name="패스 7142" class="cls-6" d="M24.629 46.77a24.735 24.735 0 0 1-3.613-.266A24.675 24.675 0 0 1 .266 18.568L2.01 5.173A6.04 6.04 0 0 1 8.851.065l36.771 5.426a6.022 6.022 0 0 1 5.08 6.821l-1.745 13.411A24.7 24.7 0 0 1 24.629 46.77M7.971 3.553A2.473 2.473 0 0 0 5.53 5.662L3.786 19.057a21.026 21.026 0 0 0 33.361 19.982 20.9 20.9 0 0 0 8.29-13.8l1.749-13.425a2.469 2.469 0 0 0-2.082-2.8L8.333 3.58a2.46 2.46 0 0 0-.362-.027" transform="translate(110.408 120.701)"/>
                        <path id="패스_7143" data-name="패스 7143" class="cls-8" d="M40.113 8.339 39.5 12.51a6.143 6.143 0 0 1-6.954 5.165L5.231 13.644A6.143 6.143 0 0 1 .066 6.691L.681 2.52A2.95 2.95 0 0 1 4.03.032l33.6 4.958a2.95 2.95 0 0 1 2.487 3.349" transform="translate(116.405 123.289)"/>
                        <path id="패스_7144" data-name="패스 7144" class="cls-6" d="M35.224 21.3a7.963 7.963 0 0 1-1.162-.086L6.749 17.179A7.919 7.919 0 0 1 .085 8.208L.7 4.037A4.732 4.732 0 0 1 6.067.051l33.6 4.958a4.732 4.732 0 0 1 3.986 5.366l-.616 4.171a7.927 7.927 0 0 1-7.813 6.754M5.377 3.554a1.175 1.175 0 0 0-1.16 1L3.6 8.727a4.366 4.366 0 0 0 3.667 4.937l27.313 4.03a4.365 4.365 0 0 0 4.936-3.667l.615-4.171a1.174 1.174 0 0 0-.989-1.332L5.548 3.566a1.235 1.235 0 0 0-.172-.012" transform="translate(114.628 121.512)"/>
                        <path id="선_214" data-name="선 214" class="cls-8" transform="translate(58.35 102.084)" d="m0 0 7.009 1.034"/>
                        <path id="패스_7145" data-name="패스 7145" class="cls-6" d="M8.789 4.588a1.79 1.79 0 0 1-.262-.019L1.518 3.535A1.777 1.777 0 1 1 2.037.019l7.01 1.034a1.777 1.777 0 0 1-.257 3.534" transform="translate(56.572 100.307)"/>
                        <g id="그룹_5160" data-name="그룹 5160" transform="translate(92.088 13.258)" style="opacity:.39">
                            <g id="그룹_5159" data-name="그룹 5159">
                                <g id="그룹_5158" data-name="그룹 5158" style="clip-path:url(#clip-path-3)">
                                    <path id="패스_7146" data-name="패스 7146" class="cls-8" d="M2.645 18.833A2.978 2.978 0 0 1 1.473 13.3c1.339-.784 2.643-1.57 3.934-2.347C12.646 6.6 19.483 2.487 29.349.086a2.978 2.978 0 0 1 1.409 5.788c-8.983 2.186-15.442 6.072-22.28 10.187-1.31.789-2.635 1.586-3.994 2.381a2.961 2.961 0 0 1-1.84.39" transform="translate(12.805)"/>
                                    <path id="패스_7147" data-name="패스 7147" class="cls-8" d="M6.784 3.788a3.4 3.4 0 1 1-3-3.766 3.4 3.4 0 0 1 3 3.766" transform="translate(0 18.553)"/>
                                </g>
                            </g>
                        </g>
                        <g id="그룹_5163" data-name="그룹 5163" class="cls-15" transform="translate(75.395 108.472)">
                            <g id="그룹_5162" data-name="그룹 5162">
                                <g id="그룹_5161" data-name="그룹 5161" class="cls-16">
                                    <path id="패스_7148" data-name="패스 7148" class="cls-17" d="M30.922 9.539c-.476 4.185-7.779 6.792-16.311 5.821S-.452 10.209.024 6.024 7.8-.768 16.335.2 31.4 5.354 30.922 9.539"/>
                                </g>
                            </g>
                        </g>
                        <g id="그룹_5166" data-name="그룹 5166" class="cls-15" transform="translate(167.003 118.895)">
                            <g id="그룹_5165" data-name="그룹 5165">
                                <g id="그룹_5164" data-name="그룹 5164" class="cls-16">
                                    <path id="패스_7149" data-name="패스 7149" class="cls-17" d="M30.922 9.539c-.476 4.186-7.779 6.792-16.311 5.821S-.452 10.209.024 6.024 7.8-.768 16.335.2 31.4 5.354 30.922 9.539"/>
                                </g>
                            </g>
                        </g>
                        <path id="패스_7150" data-name="패스 7150" class="cls-6" d="M12.982 10.022a3.192 3.192 0 0 1-2.472-1.166 8.081 8.081 0 0 0-7.01-2.41A3.2 3.2 0 0 1 2.893.079a14.31 14.31 0 0 1 12.556 4.713 3.2 3.2 0 0 1-2.467 5.23" transform="translate(114.698 85.92)"/>
                        <path id="패스_7151" data-name="패스 7151" class="cls-6" d="M3.2 8.558a3.2 3.2 0 0 1-2.029-5.672A14.306 14.306 0 0 1 14.405.709a3.2 3.2 0 0 1-1.839 6.126 8.076 8.076 0 0 0-7.342 1 3.186 3.186 0 0 1-2.024.723" transform="translate(152.417 90.718)"/>
                        <path id="패스_7152" data-name="패스 7152" class="cls-6" d="M7.325 9.514a1.77 1.77 0 0 1-1.3-.566L.476 2.987a1.776 1.776 0 1 1 2.6-2.42l5.549 5.96a1.776 1.776 0 0 1-1.3 2.987" transform="translate(234.443 97.868)"/>
                        <path id="패스_7153" data-name="패스 7153" class="cls-6" d="M1.778 11.691h-.066A1.776 1.776 0 0 1 0 9.85l.293-8.138a1.776 1.776 0 1 1 3.55.128l-.291 8.138a1.776 1.776 0 0 1-1.774 1.713" transform="translate(249.527 92.011)"/>
                        <path id="패스_7154" data-name="패스 7154" class="cls-6" d="M1.777 9.1A1.777 1.777 0 0 1 .566 6.023L6.527.476a1.777 1.777 0 1 1 2.42 2.6l-5.96 5.548a1.77 1.77 0 0 1-1.21.476" transform="translate(258.874 98.741)"/>
                    </g>
                </g>
            </g>
        </g>
    </g>
</svg>
